<?xml version="1.0" encoding="UTF-8"?><svg id="Layer_2" xmlns="http://www.w3.org/2000/svg" viewBox="0 0 1131.47 355"><g id="Layer_1-2"><path d="M623.32,41.46c.45,19.89-12.29,40.01-39.68,40.01h-26.49V3.23h26.49c26.49,0,39.23,19,39.68,38.23ZM563.18,8.93v66.73h20.45c23.25,0,33.98-17.43,33.64-34.2-.34-16.32-11.07-32.52-33.64-32.52h-20.45ZM680.08,39.33h45.82v5.48h-45.82v30.85h49.4v5.81h-55.33V3.23h53.98v5.7h-48.06v30.4ZM833.08,18.32c-5.7-9.16-14.87-10.51-23.69-10.62-9.17,0-23.7,3.35-23.7,15.87,0,9.95,10.73,12.29,23.92,14.75,15.09,2.91,30.74,5.59,30.74,22.47-.11,17.66-17.88,21.91-30.96,21.91-12.18,0-26.04-5.03-32.08-16.99l5.36-2.68c4.81,9.5,17.1,14.19,26.71,14.19s24.92-2.68,24.92-16.54c.11-11.74-12.85-14.31-25.71-16.76-14.31-2.79-28.95-5.7-28.95-20.12-.34-16.54,16.88-21.68,29.73-21.68,11.18,0,20.9,1.79,28.61,13.3l-4.92,2.9ZM890.4,81.47V3.23h5.92v78.24h-5.92ZM1012.34,17.65c-6.82-6.71-16.32-10.06-25.15-10.06-22.91,0-34.65,16.77-34.54,34.87,0,18.44,11.74,34.31,34.54,34.31,8.38,0,17.1-2.91,23.81-9.05v-21.91h-27.27v-5.25h32.97v29.28c-8.16,8.16-17.88,12.63-29.51,12.63-26.6,0-40.35-18.55-40.35-39.9-.11-24.48,16.54-40.46,40.35-40.46,10.28,0,20.68,3.91,28.61,11.74l-3.46,3.8ZM1072.9,3.23l52.64,64.71V3.23h5.92v78.24h-2.35l-52.75-64.6v64.6h-6.04V3.23h2.57ZM615.6,158.69c0,8.05-4.92,14.31-12.74,16.77,9.83,2.68,15.42,10.62,15.42,19.67,0,16.1-14.98,20.45-28.39,20.45h-32.08v-78.24h32.08c13.19,0,25.71,6.48,25.71,21.35ZM563.85,172.77h26.82c9.39,0,19.23-2.91,19.23-14.08s-10.28-16.21-20.01-16.21h-26.04v30.29ZM563.85,209.76h26.04c9.84,0,22.47-2.35,22.47-14.75-.11-12.18-11.18-16.54-21.68-16.54h-26.82v31.29ZM689.02,184.28l-30.51-46.83v-.11h7.04l26.49,41.13,26.6-41.13h7.04v.11l-30.63,46.83v31.3h-6.03v-31.3ZM622.31,338.84c-7.82,7.82-18.22,11.73-28.5,11.73-26.38,0-40.13-18.44-40.24-39.56-.22-20.9,13.41-40.46,40.24-40.46,10.28,0,20.68,3.91,28.5,11.74l-4.14,3.57c-6.71-6.71-15.54-9.95-24.37-9.95-22.8,0-34.54,16.09-34.42,34.87.22,18.33,11.85,34.2,34.42,34.2,8.83,0,17.77-3.36,24.48-9.95l4.02,3.8ZM726.58,349.68v-35.54h-49.85v35.54h-6.04v-78.24h6.04v37.22h49.85v-37.22h6.03v78.24h-6.03ZM784.12,349.68v-78.24h5.92v78.24h-5.92ZM844.14,271.44l52.64,64.71v-64.71h5.92v78.24h-2.35l-52.75-64.6v64.6h-6.04v-78.24h2.57ZM1013.57,285.86c-6.82-6.71-16.32-10.06-25.15-10.06-22.91,0-34.65,16.76-34.54,34.87,0,18.44,11.74,34.31,34.54,34.31,8.38,0,17.1-2.91,23.81-9.06v-21.91h-27.27v-5.25h32.97v29.28c-8.16,8.16-17.88,12.63-29.51,12.63-26.6,0-40.35-18.55-40.35-39.9-.11-24.48,16.54-40.46,40.35-40.46,10.28,0,20.68,3.91,28.61,11.74l-3.46,3.8ZM0,0v355h253.57c50.71,0,101.43-50.71,101.43-101.43V101.43C355,50.71,304.28,0,253.57,0H0ZM304.28,145.8c0,17.5-14.19,31.7-31.7,31.7,17.5,0,31.7,14.2,31.7,31.7v44.37c0,50.71-50.71,50.71-50.71,50.71H50.71V50.71h202.85c50.71,0,50.71,50.71,50.71,50.71v44.37ZM158.48,152.14h69.73c5.33,0,9.54-1.11,12.86-2.89,12.49-6.64,12.49-22.47,12.49-22.47,0-2.15-.18-4.13-.52-5.93-3.61-19.43-24.84-19.43-24.84-19.43h-101.43c-12.68,0-25.36,12.68-25.36,25.36v101.43c0,12.68,12.68,25.36,25.36,25.36h101.43c17.52,0,22.94-12.11,24.61-19.59.75-3.35.75-5.76.75-5.76,0-12.58-6.24-18.92-12.53-22.12-6.39-3.24-12.83-3.24-12.83-3.24h-69.73c-6.34,0-6.34-6.35-6.34-6.35v-38.04c0-6.34,6.34-6.34,6.34-6.34Z"/></g></svg>