<?xml version="1.0" encoding="UTF-8"?><svg id="Layer_2" xmlns="http://www.w3.org/2000/svg" viewBox="0 0 28.34 28.34"><defs><style>.cls-1{fill:#fff;stroke:#000;stroke-miterlimit:10;stroke-width:.5px;}</style></defs><g id="Layer_1-2"><rect width="28.34" height="28.34"/><path class="cls-1" d="M16.97,5.41H5.71v17.51h11.26c3.45,0,6.25-2.8,6.25-6.26v-5.01c0-3.45-2.8-6.25-6.25-6.25ZM20.72,11.78c0,.9-.31,1.73-.83,2.39.52.66.83,1.48.83,2.38v.11h0c-.06,2.08-1.77,3.75-3.86,3.75h-8.64V7.91h8.64c2.1,0,3.81,1.67,3.86,3.75h0v.11h0ZM18.22,16.67c0,.69-.56,1.25-1.25,1.25h-6.26v-7.51h6.26c.69,0,1.25.56,1.25,1.25s-.56,1.25-1.25,1.25h-3.75v2.5h3.75c.69,0,1.25.56,1.25,1.25h0Z"/></g></svg>