<?xml version="1.0" encoding="UTF-8"?><svg id="Layer_2" xmlns="http://www.w3.org/2000/svg" viewBox="0 0 1620.01 1080"><defs><style>.cls-1{font-family:ProximaNova-Regular, 'Proxima Nova';font-size:51px;}.cls-1,.cls-2{fill:#fff;}.cls-3{fill:none;stroke:#919396;stroke-miterlimit:10;stroke-width:.5px;}.cls-4{letter-spacing:0em;}.cls-5{letter-spacing:-.01em;}.cls-6{fill:#152436;}.cls-7{fill:#bc8548;}</style></defs><g id="Layer_1-2"><rect class="cls-6" width="1620.01" height="1080"/><rect class="cls-3" x="517.19" y="301.54" width="585.63" height="476.93" transform="translate(1350 -270) rotate(90)"/><path class="cls-2" d="M846.21,368.07c-1.02-1.02-2.43-1.66-3.99-1.66h-16.96v-4.91c0-3.66-4.11-5.87-9.38-6.72-1.83-.3-3.78-.44-5.7-.44s-3.87.15-5.7.44c-5.27.86-9.38,3.06-9.38,6.72v4.91h-16.97c-1.56,0-2.97.64-4,1.67-1.02,1.02-1.66,2.44-1.66,3.99v31.42l1.17.48c.87.35,1.74.7,2.6,1.02v19.86c0,1.56.63,2.97,1.65,3.99,1.02,1.02,2.44,1.66,4,1.66h56.55c1.55,0,2.96-.64,3.99-1.67,1.03-1.02,1.67-2.44,1.66-3.99v-19.86c.87-.33,1.73-.67,2.6-1.02l1.18-.48v-31.43c0-1.56-.63-2.97-1.66-4ZM798.85,361.51c0-1.41,2.72-2.45,6.22-3.01,1.58-.26,3.32-.38,5.09-.38s3.52.13,5.1.38c3.49.56,6.21,1.6,6.21,3.01v4.91h-22.62v-4.91ZM840.33,424.86c0,.52-.21.99-.56,1.34-.33.34-.81.55-1.33.55h-56.55c-.52,0-.99-.21-1.33-.55-.34-.34-.55-.81-.56-1.33v-18.52c3,1.02,6.01,1.88,9,2.58,2.44.58,4.88,1.06,7.34,1.43h.04s.36.06.36.06h.02s.17.03.17.03h.05s.13.03.13.03h.08s.11.02.11.02l.11.02h.08s.13.03.13.03h.05s.16.03.16.03h.02s.18.03.18.03h.01s.17.03.17.03h.04s.14.02.14.02h.07s.11.02.11.02l.1.02h.08s.12.03.12.03v2.83c0,1.56.63,2.97,1.66,3.99,1.02,1.02,2.44,1.66,3.99,1.66h11.31c1.56,0,2.97-.64,3.99-1.66,1.02-1.02,1.66-2.44,1.66-3.99v-2.83l.12-.02h.08s.1-.03.1-.03h.11s.07-.02.07-.02l.14-.02h.04s.17-.03.17-.03h.01s.18-.03.18-.03h.02s.17-.03.17-.03h.05s.13-.03.13-.03h.08s.11-.02.11-.02l.1-.02h.08s.14-.03.14-.03h.05s.16-.03.16-.03h.02l.18-.03h0l.42-.06.11-.02.1-.02.08-.02.13-.02h.05s.36-.07.36-.07h0l.17-.03h.04c2.03-.35,4.05-.76,6.08-1.24,2.1-.49,4.22-1.07,6.33-1.72h.03s.41-.14.41-.14l.12-.04.09-.03.19-.06h.02s.12-.05.12-.05l.09-.03.05-.02.14-.05h.02s.12-.05.12-.05l.09-.03.05-.02.14-.05h.02s.55-.19.55-.19l.08-.03.06-.02.28-.09v18.52ZM802.62,413.54v-7.54c0-.52.21-.99.55-1.33.35-.34.82-.55,1.33-.55h11.31c.52,0,.99.21,1.33.55.34.34.56.81.56,1.33v7.54c0,.52-.21.99-.56,1.33-.34.34-.81.55-1.33.55h-11.31c-.52,0-.99-.21-1.33-.55-.34-.34-.55-.81-.55-1.33ZM844.1,400.96c-.85.34-1.69.66-2.53.96l-.07.03-.11.04-.08.03-.1.03-.09.03-.08.03-.17.06-.12.04-.06.02-.12.05-.05.02-.14.05-.03.02-.34.11h0s-.17.06-.17.06l-.35.12h-.02s-.15.06-.15.06l-.03.02c-2.94.99-5.87,1.84-8.82,2.53-2.95.7-5.89,1.24-8.83,1.64h-.02s-.14.02-.14.02v-.92c0-1.56-.64-2.97-1.66-3.99-1.02-1.02-2.44-1.66-3.99-1.66h-11.31c-1.56,0-2.97.64-3.99,1.66-1.03,1.02-1.66,2.44-1.66,3.99v.92l-.16-.02-.17-.02h-.02c-2.88-.39-5.76-.93-8.65-1.61-3.71-.87-7.41-1.99-11.09-3.33l-.89-.32c-.55-.21-1.1-.41-1.64-.63v-28.9c0-.52.21-.99.55-1.34.34-.34.81-.55,1.33-.55h64.09c.52,0,.99.21,1.33.55.34.34.55.81.55,1.33v28.89Z"/><path class="cls-7" d="M802.62,413.54v-7.54c0-.52.21-.99.55-1.33.35-.34.82-.55,1.33-.55h11.31c.52,0,.99.21,1.33.55.34.34.56.81.56,1.33v7.54c0,.52-.21.99-.56,1.33-.34.34-.81.55-1.33.55h-11.31c-.52,0-.99-.21-1.33-.55-.34-.34-.55-.81-.55-1.33ZM821.47,406.91v-.92c0-1.56-.64-2.97-1.66-3.99-1.02-1.02-2.44-1.66-3.99-1.66h-11.31c-1.56,0-2.97.64-3.99,1.66-1.03,1.02-1.66,2.44-1.66,3.99v7.54c0,1.56.63,2.97,1.66,3.99,1.02,1.02,2.44,1.66,3.99,1.66h11.31c1.56,0,2.97-.64,3.99-1.66,1.02-1.02,1.66-2.44,1.66-3.99v-6.63Z"/><path class="cls-2" d="M815.86,354.79c-1.83-.3-3.78-.44-5.7-.44s-3.87.15-5.7.44c-5.27.86-9.38,3.06-9.38,6.72v4.91h3.77v-4.91c0-1.41,2.72-2.45,6.22-3.01,1.58-.26,3.32-.38,5.09-.38s3.52.13,5.1.38c3.49.56,6.21,1.6,6.21,3.01v4.91h3.77v-4.91c0-3.66-4.11-5.87-9.38-6.72Z"/><text class="cls-1" transform="translate(674.88 563.64)"><tspan x="0" y="0">Theft, Fraud,</tspan><tspan x="57.88" y="61.2">Money </tspan><tspan class="cls-5" x="14.53" y="122.4">L</tspan><tspan class="cls-4" x="39.83" y="122.4">aundering</tspan><tspan x="-11.25" y="183.6">&amp; Cybercrime</tspan></text></g></svg>