<?xml version="1.0" encoding="UTF-8"?><svg id="Layer_2" xmlns="http://www.w3.org/2000/svg" viewBox="0 0 1620.01 1080"><defs><style>.cls-1{font-family:ProximaNova-Regular, 'Proxima Nova';font-size:51px;}.cls-1,.cls-2{fill:#fff;}.cls-3{fill:none;stroke:#919396;stroke-miterlimit:10;stroke-width:.5px;}.cls-4{fill:#152436;}.cls-5{fill:#bc8548;}</style></defs><g id="Layer_1-2"><rect class="cls-4" width="1620.01" height="1080"/><rect class="cls-3" x="517.19" y="301.54" width="585.63" height="476.93" transform="translate(1350 -270) rotate(90)"/><text class="cls-1" transform="translate(702.42 563.65)"><tspan x="0" y="0">Murder &amp; </tspan><tspan x="-42.15" y="61.2">Manslaughter</tspan></text><path class="cls-2" d="M775.72,411.87c-5.73-.25-14.27-9.17-18.23-13.19-1.93-2.04-2.62-4.53-1.72-7.2.67-1.99,2.18-3.75,4.06-4.66,2.04-1.01,4.45-1.01,6.51.59,3.3,2.56,6.58,5.12,9.89,7.68.8.64,3.12-.41,5.07-1.83.92-.64,2.34-1.88,2.71-2.95.05-.11.05-.2,0-.25-9.27-6.17-12.54-12.37-12.38-17.33.21-7.45,7.84-11.93,14.75-10.22,4.63,1.14,8.99,5.08,10.53,12.76.55,2.79,1.63,4.62,4.77,3.89,3-.69,6.01-1.37,9.01-2.04,2.64-.62,5.5-.39,8.03.55l9.88,3.61c5.85,2.12,6.47,2.01,9.7,7.5,2.48,4.18,4.84,8.19,6.33,12.46,3.26,9.4-7.84,10.95-11.72,4.73-1.72-2.79-3.85-5.85-6.17-8.16-1.79-1.78-4.45-2.31-6.93-2.61,1.72,3.07,3.74,6.04,5.76,9.01,3.78,5.6,6.15,10.13,8.99,16.32,2.75,5.99,5.57,12.12,8.19,14.79,4.06,4.18,8.12,8.37,12.18,12.58,1.79,1.83,2.27,3.95,1.88,5.9-.48,2.4-2.27,4.37-4.47,5.37-2.25,1.03-5.02,1.12-7.66-.41-6.7-3.91-12.41-8.8-17.91-14.2-3.3-3.25-4.63-7.16-5.99-11.14-.23-.66-.46-1.33-.71-1.99-.44,1.49-.82,3.16-1.03,4.78-.39,3.09-.35,4.39,1.1,6.79,1.38,2.29,2.77,4.3,4.29,6.13,1.77,2.13,3.69,4.07,5.94,6.01,2.09,1.81,2.5,4.05,1.88,6.17-.62,2.08-2.25,3.86-4.11,4.94-2.5,1.46-5.66,1.81-8.28-.02-5.05-3.52-8.67-7.2-12.77-11.39-.89-.89-1.79-1.83-3.19-3.22-3.76-3.73-6.4-8.69-5.96-14.11.53-6.79,1.06-14.86-.69-21.49-.78-3-2.77-5.67-4.95-7.84-1.86.41-3.51.98-5.16,1.55-3.33,1.19-6.58,2.31-11.4,2.13h0ZM775.86,408.44c4.15.18,7.11-.84,10.14-1.92,1.97-.69,3.99-1.39,6.42-1.85.55-.11,1.15.02,1.58.43,2.94,2.74,5.53,6.13,6.56,10.08,1.84,7.02,1.35,15.41.78,22.61-.35,4.41,1.95,8.39,4.98,11.41.85.85,2.04,2.06,3.21,3.25,3.99,4.09,7.5,7.68,12.27,11,1.38.96,3.14.71,4.61-.14,1.08-.64,2.16-1.71,2.52-2.95.27-.89.09-1.85-.8-2.63-2.41-2.06-4.47-4.14-6.35-6.42-1.6-1.97-3.1-4.05-4.52-6.4-1.86-3.09-2.13-5.15-1.63-9.1.46-3.66,1.72-7.55,2.89-9.72.16-.32.44-.57.76-.73.85-.43,1.88-.07,2.29.78,1.03,2.03,1.74,4.11,2.43,6.19,1.24,3.59,2.43,7.13,5.16,9.79,5.3,5.19,10.8,9.92,17.22,13.7,1.56.89,3.21.85,4.52.25,1.19-.55,2.27-1.62,2.52-2.92.18-.91-.07-1.94-.99-2.88-4.06-4.18-8.12-8.35-12.18-12.53-3.01-3.11-5.96-9.51-8.83-15.78-2.78-6.04-5.05-10.38-8.72-15.82-2.64-3.89-5.3-7.8-7.38-12.05-.18-.39-.3-.69-.25-1.14.14-.94.99-1.6,1.93-1.49.5.07,1.06.11,1.65.18,3.37.34,7.5.76,10.5,3.75,2.52,2.51,4.79,5.76,6.65,8.8,1.6,2.56,7.5,3.71,5.57-1.83-1.38-3.93-3.65-7.8-6.05-11.87-2.68-4.55-3.05-4.23-7.91-5.99l-9.88-3.64c-1.93-.68-4.13-.87-6.12-.43-2.98.69-5.98,1.37-8.99,2.06-5.11,1.17-7.96-1.83-8.9-6.56-1.24-6.15-4.52-9.24-8-10.11-4.75-1.19-10.34,1.76-10.48,7-.11,3.91,2.75,9.01,10.89,14.4,1.58,1.05,1.88,2.56,1.33,4.21-.64,1.81-2.41,3.5-3.94,4.62-3,2.17-7.02,3.43-9.2,1.74-3.3-2.56-6.58-5.12-9.88-7.68-.89-.69-1.95-.66-2.89-.21-1.08.5-1.95,1.53-2.32,2.65-.41,1.19-.23,2.56.92,3.73,3.19,3.25,11.49,11.98,15.92,12.16h0Z"/><path class="cls-5" d="M775.72,411.87l.14-3.43h0c4.15.18,7.11-.84,10.14-1.92,1.97-.69,3.99-1.39,6.42-1.85.55-.11,1.15.02,1.58.43,2.94,2.74,5.53,6.13,6.56,10.08,1.84,7.02,1.35,15.41.78,22.61-.35,4.41,1.95,8.39,4.98,11.41.85.85,2.04,2.06,3.21,3.25l-2.45,2.4c-.89-.89-1.79-1.83-3.19-3.22-3.76-3.73-6.4-8.69-5.96-14.11.53-6.79,1.06-14.86-.69-21.49-.78-3-2.77-5.67-4.95-7.84-1.86.41-3.51.98-5.16,1.55-3.33,1.19-6.58,2.31-11.4,2.13h0"/></g></svg>