<?xml version="1.0" encoding="UTF-8"?><svg id="Layer_2" xmlns="http://www.w3.org/2000/svg" viewBox="0 0 1620.01 1080"><defs><style>.cls-1{font-family:ProximaNova-Regular, 'Proxima Nova';font-size:17px;}.cls-1,.cls-2{fill:#fff;}.cls-3{fill:#1f3049;}.cls-4{letter-spacing:-.08em;}.cls-5{letter-spacing:-.06em;}.cls-6{letter-spacing:-.02em;}.cls-7{letter-spacing:-.01em;}.cls-8{letter-spacing:-.05em;}.cls-9{letter-spacing:-.03em;}.cls-10{letter-spacing:-.03em;}.cls-11{fill:#152436;}.cls-12{fill:#bc8548;}</style></defs><g id="Layer_1-2"><rect class="cls-2" width="1620.01" height="1080"/><rect class="cls-2" x="270" width="1080" height="1080"/><rect class="cls-11" x="515.01" y="310.48" width="195.21" height="158.98" transform="translate(1002.59 -222.65) rotate(90)"/><rect class="cls-11" x="712.43" y="310.48" width="195.21" height="158.98" transform="translate(1200.01 -420.07) rotate(90)"/><rect class="cls-11" x="909.95" y="310.48" width="195.21" height="158.98" transform="translate(1397.53 -617.58) rotate(90)"/><rect class="cls-11" x="515.01" y="540.8" width="195.21" height="158.98" transform="translate(1232.91 7.67) rotate(90)"/><rect class="cls-11" x="712.43" y="540.8" width="195.21" height="158.98" transform="translate(1430.33 -189.75) rotate(90)"/><rect class="cls-11" x="909.85" y="540.8" width="195.21" height="158.98" transform="translate(1627.75 -387.17) rotate(90)"/><rect class="cls-11" x="514.84" y="771.12" width="195.21" height="158.98" transform="translate(1463.06 238.16) rotate(90)"/><rect class="cls-11" x="712.26" y="771.12" width="195.21" height="158.98" transform="translate(1660.48 40.74) rotate(90)"/><rect class="cls-11" x="909.95" y="771.12" width="195.21" height="158.98" transform="translate(1858.16 -156.95) rotate(90)"/><path class="cls-3" d="M704.05,181.18h7.11v.27l-6.33,8.81h6.33v.74h-7.45v-.32l6.24-8.8h-5.91v-.7Z"/><path class="cls-3" d="M724.24,191v-4.46h-6.26v4.46h-.76v-9.82h.76v4.67h6.26v-4.67h.76v9.82h-.76Z"/><path class="cls-3" d="M739.65,191l-1.08-2.41h-5.86l-1.07,2.41h-.81l4.41-9.82h.83l4.41,9.82h-.81ZM738.27,187.89l-2.64-5.98-2.64,5.98h5.27Z"/><path class="cls-3" d="M746.26,191v-9.82h.74v9.82h-.74Z"/><path class="cls-3" d="M768.69,183.55c0-1.54-1.21-1.81-2.51-1.81-1.88,0-2.78.87-2.76,1.98.01,1.5,1.61,1.96,2.79,1.96h4.17v.6h-.9v2.15c0,1.05.24,1.99,1.22,1.98v.59c-.8.11-1.43-.42-1.64-1.25-.72,1.16-1.84,1.37-2.89,1.37-2.39,0-3.63-1.05-3.63-2.74,0-1.22,1-2.08,1.98-2.4-1.02-.31-1.81-1.16-1.81-2.26,0-1.52,1.25-2.61,3.49-2.61,1.57,0,3.16.41,3.16,2.43h-.66ZM768.86,186.29h-2.69c-1.94,0-2.92,1.09-2.92,2.1,0,1.26.93,2.08,2.9,2.08,1.12,0,2.71-.39,2.71-2.03v-2.15Z"/><path class="cls-3" d="M793.48,191l-1.08-2.41h-5.86l-1.07,2.41h-.81l4.41-9.82h.83l4.41,9.82h-.81ZM792.11,187.89l-2.64-5.98-2.64,5.98h5.28Z"/><path class="cls-3" d="M806.45,183.08c-.72-1.15-1.87-1.32-2.97-1.33-1.15,0-2.97.42-2.97,1.99,0,1.25,1.35,1.54,3,1.85,1.89.36,3.86.7,3.86,2.82-.01,2.22-2.24,2.75-3.89,2.75-1.53,0-3.27-.63-4.03-2.13l.67-.34c.6,1.19,2.15,1.78,3.35,1.78s3.13-.34,3.13-2.08c.01-1.47-1.61-1.8-3.23-2.1-1.8-.35-3.63-.72-3.63-2.53-.04-2.08,2.12-2.72,3.73-2.72,1.4,0,2.62.22,3.59,1.67l-.62.36Z"/><path class="cls-3" d="M820,183.08c-.72-1.15-1.87-1.32-2.97-1.33-1.15,0-2.97.42-2.97,1.99,0,1.25,1.35,1.54,3,1.85,1.89.36,3.86.7,3.86,2.82-.01,2.22-2.24,2.75-3.89,2.75-1.53,0-3.27-.63-4.03-2.13l.67-.34c.6,1.19,2.15,1.78,3.35,1.78s3.13-.34,3.13-2.08c.01-1.47-1.61-1.8-3.23-2.1-1.8-.35-3.63-.72-3.63-2.53-.04-2.08,2.12-2.72,3.73-2.72,1.4,0,2.62.22,3.59,1.67l-.62.36Z"/><path class="cls-3" d="M836.67,186.11c-.01,2.58-1.66,5.06-4.95,5.06s-4.95-2.5-4.95-5.09,1.64-5.05,4.95-5.05,4.97,2.43,4.95,5.08ZM827.51,186.09c.01,2.22,1.42,4.38,4.21,4.38s4.22-2.16,4.22-4.38-1.4-4.36-4.22-4.36-4.22,2.05-4.21,4.36Z"/><path class="cls-3" d="M851.25,189.64c-.98.98-2.29,1.47-3.58,1.47-3.31,0-5.04-2.31-5.05-4.97-.03-2.62,1.68-5.08,5.05-5.08,1.29,0,2.6.49,3.58,1.47l-.52.45c-.84-.84-1.95-1.25-3.06-1.25-2.86,0-4.34,2.02-4.32,4.38.03,2.3,1.49,4.29,4.32,4.29,1.11,0,2.23-.42,3.07-1.25l.51.48Z"/><path class="cls-3" d="M857.71,191v-9.82h.74v9.82h-.74Z"/><path class="cls-3" d="M873.1,191l-1.08-2.41h-5.86l-1.07,2.41h-.81l4.41-9.82h.83l4.41,9.82h-.81ZM871.73,187.89l-2.64-5.98-2.64,5.98h5.27Z"/><path class="cls-3" d="M881.03,181.87h-3.55v-.67h7.86v.67h-3.55v9.13h-.76v-9.13Z"/><path class="cls-3" d="M892.19,185.71h5.75v.69h-5.75v3.87h6.2v.73h-6.94v-9.82h6.78v.72h-6.03v3.82Z"/><path class="cls-3" d="M911.39,183.08c-.72-1.15-1.87-1.32-2.97-1.33-1.15,0-2.97.42-2.97,1.99,0,1.25,1.35,1.54,3,1.85,1.89.36,3.86.7,3.86,2.82-.01,2.22-2.24,2.75-3.89,2.75-1.53,0-3.27-.63-4.03-2.13l.67-.34c.6,1.19,2.15,1.78,3.35,1.78s3.13-.34,3.13-2.08c.01-1.47-1.61-1.8-3.23-2.1-1.8-.35-3.63-.72-3.63-2.53-.04-2.08,2.12-2.72,3.73-2.72,1.4,0,2.62.22,3.59,1.67l-.62.36Z"/><polygon class="cls-12" points="819.13 126.32 795.94 149.51 795.94 150.46 796.89 150.46 820.08 127.28 820.08 126.32 819.13 126.32"/><polygon class="cls-12" points="795.94 126.32 795.94 132.38 795.98 132.38 797.29 131.07 797.29 127.67 809.87 127.67 809.87 126.32 795.94 126.32"/><polygon class="cls-12" points="818.74 145.7 818.74 149.12 806.15 149.12 806.15 150.46 820.08 150.46 820.08 144.41 820.03 144.41 818.74 145.7"/><text class="cls-1" transform="translate(590.17 397.85)"><tspan x="0" y="0">Drugs</tspan><tspan x="-11.46" y="20.4">Offences</tspan></text><path class="cls-2" d="M812.08,335.78c.55,0,1.08.22,1.47.61l3.8,3.8,8.21.71c.34,0,.67.1.96.3.39.27.65.69.71,1.16l.17.56c.03.24.19.45.42.54.26.1.43.36.43.64v.76c0,.81-.31,1.24-.87,1.82-.47.49-1.11.77-1.79.77l-.44-.05c.01-.12.02-.73.02-.85,0-1.95-2.09-3.77-4.04-3.77s-4.09,1.86-4.09,3.81c0,.12,0,.73.02.85h-15.38c.01-.12-.03-.73-.03-.85,0-1.95-1.99-3.77-3.95-3.77s-3.95,1.63-3.95,3.58c0,.16-.05.85-.03,1.03h-.69c-.45,0-.89-.12-1.28-.35l-.21-.12c-.75-.45-1.21-.9-1.21-1.78v-.4c0-.25.18-.47.43-.52.22-.04.39-.23.42-.45l.3-2.7c.03-.24.22-.43.46-.46l.38-.05h0l.31-.04c.05,0,.11-.02.16-.05l3.59-.29,5.09-4.45h10.6M812.08,334.47h-11.09l-.37.32-4.76,4.16-3.16.26-.23.02-.11.05-.19.02-.38.05c-.84.1-1.49.76-1.6,1.6h0s0,.02,0,.02l-.25,2.23c-.55.32-.91.92-.91,1.59v.4c0,1.59.99,2.39,1.84,2.9l.21.12c.59.35,1.27.54,1.95.54h2.14l-.14-1.42c0-.1.01-.4.02-.55,0-.17.01-.31.01-.38,0-1.15,1.31-2.27,2.64-2.27s2.64,1.26,2.64,2.45c0,.05,0,.19.01.34,0,.12.02.33.02.42l-.14,1.4h18.28l-.14-1.44c0-.08-.01-.58-.01-.72,0-1.17,1.48-2.5,2.77-2.5s2.73,1.28,2.73,2.45c0,.14,0,.64-.01.74l-.13,1.3,1.3.12.44.05h.07s.07,0,.07,0c1.03,0,2.03-.43,2.74-1.18.62-.66,1.23-1.41,1.23-2.73v-.76c0-.71-.37-1.35-.95-1.7l-.1-.33c-.14-.79-.59-1.49-1.24-1.95-.49-.34-1.05-.52-1.64-.53l-7.68-.66-3.46-3.46c-.64-.64-1.49-.99-2.4-.99h0Z"/><rect class="cls-2" x="795.34" y="338.97" width="23.39" height="1.31"/><rect class="cls-2" x="807.35" y="335.13" width="1.31" height="4.51" transform="translate(-33.24 94.47) rotate(-6.56)"/><rect class="cls-2" x="799.92" y="336.75" width="4.33" height="1.31" transform="translate(153.95 918.02) rotate(-64.67)"/><path class="cls-12" d="M797.68,344.08c1.5,0,2.71,1.21,2.71,2.71s-1.21,2.71-2.71,2.71-2.71-1.21-2.71-2.71,1.21-2.71,2.71-2.71M797.68,342.77c-2.22,0-4.02,1.8-4.02,4.02s1.8,4.02,4.02,4.02,4.02-1.8,4.02-4.02-1.8-4.02-4.02-4.02h0Z"/><path class="cls-12" d="M821.1,344.08c1.5,0,2.71,1.21,2.71,2.71s-1.21,2.71-2.71,2.71-2.71-1.21-2.71-2.71,1.21-2.71,2.71-2.71M821.1,342.77c-2.22,0-4.02,1.8-4.02,4.02s1.8,4.02,4.02,4.02,4.02-1.8,4.02-4.02-1.8-4.02-4.02-4.02h0Z"/><text class="cls-1" transform="translate(787.95 397.85)"><tspan class="cls-4" x="0" y="0">T</tspan><tspan x="8.25" y="0">raffic</tspan><tspan x="-11.38" y="20.4">Offences</tspan></text><path class="cls-2" d="M1019.62,332.66c-.34-.34-.81-.55-1.33-.55h-5.65v-1.64c0-1.22-1.37-1.96-3.13-2.24-.61-.1-1.26-.15-1.9-.15s-1.29.05-1.9.15c-1.76.29-3.13,1.02-3.13,2.24v1.64h-5.66c-.52,0-.99.21-1.33.56-.34.34-.55.81-.55,1.33v10.47l.39.16c.29.12.58.23.87.34v6.62c0,.52.21.99.55,1.33s.81.55,1.33.55h18.85c.52,0,.99-.21,1.33-.56.34-.34.56-.81.55-1.33v-6.62c.29-.11.58-.22.87-.34l.39-.16v-10.48c0-.52-.21-.99-.55-1.33ZM1003.84,330.47c0-.47.91-.82,2.07-1,.53-.09,1.11-.13,1.7-.13s1.17.04,1.7.13c1.16.19,2.07.53,2.07,1v1.64h-7.54v-1.64ZM1017.66,351.59c0,.17-.07.33-.19.45-.11.11-.27.18-.44.18h-18.85c-.17,0-.33-.07-.44-.18-.11-.11-.18-.27-.19-.44v-6.17c1,.34,2,.63,3,.86.81.19,1.63.35,2.45.48h.01s.12.02.12.02h0s.06,0,.06,0h.02s.04.01.04.01h.03s.04,0,.04,0h.04s.03,0,.03,0h.04s.02,0,.02,0h.05s0,0,0,0h.06s0,0,0,0h.06s.01,0,.01,0h.05s.02.01.02.01h.04s.03,0,.03,0h.03s.04,0,.04,0v.94c0,.52.21.99.55,1.33.34.34.81.55,1.33.55h3.77c.52,0,.99-.21,1.33-.55.34-.34.55-.81.55-1.33v-.94h.04s.03,0,.03,0h.03s.04,0,.04,0h.02s.05-.01.05-.01h.01s.06,0,.06,0h0s.06,0,.06,0h0s.06,0,.06,0h.02s.04,0,.04,0h.03s.04,0,.04,0h.03s.03,0,.03,0h.05s.02,0,.02,0h.05s0,0,0,0h.06s0-.01,0-.01l.14-.02h.04s.03-.01.03-.01h.03s.04-.01.04-.01h.02s.12-.02.12-.02h.06s.01-.01.01-.01c.68-.11,1.35-.25,2.03-.41.7-.16,1.41-.36,2.11-.57h0s.14-.05.14-.05h.04s.03-.02.03-.02l.06-.02h0s.04-.02.04-.02h.03s.02-.02.02-.02l.05-.02h0s.04-.02.04-.02h.03s.02-.02.02-.02l.05-.02h0s.18-.06.18-.06h.03s.02-.02.02-.02l.09-.03v6.17ZM1005.1,347.82v-2.51c0-.17.07-.33.18-.44.12-.11.27-.18.44-.18h3.77c.17,0,.33.07.44.18s.19.27.19.44v2.51c0,.17-.07.33-.19.44-.11.11-.27.18-.44.18h-3.77c-.17,0-.33-.07-.44-.18-.11-.11-.18-.27-.18-.44ZM1018.92,343.63c-.28.11-.56.22-.84.32h-.02s-.04.02-.04.02h-.03s-.03.02-.03.02h-.03s-.03.02-.03.02l-.06.02h-.04s-.02.02-.02.02l-.04.02h-.02s-.05.02-.05.02h-.01s-.11.04-.11.04h0s-.06.02-.06.02l-.12.04h0s-.05.02-.05.02h-.01c-.98.34-1.96.62-2.94.85-.98.23-1.96.41-2.94.55h0s-.05,0-.05,0v-.31c0-.52-.21-.99-.55-1.33-.34-.34-.81-.55-1.33-.55h-3.77c-.52,0-.99.21-1.33.55-.34.34-.55.81-.55,1.33v.31h-.05s-.06-.02-.06-.02h0c-.96-.13-1.92-.31-2.88-.54-1.24-.29-2.47-.66-3.7-1.11l-.3-.11c-.18-.07-.37-.14-.55-.21v-9.63c0-.17.07-.33.18-.45.11-.11.27-.18.44-.18h21.36c.17,0,.33.07.44.18.11.11.18.27.18.44v9.63Z"/><path class="cls-12" d="M1005.1,347.82v-2.51c0-.17.07-.33.18-.44.12-.11.27-.18.44-.18h3.77c.17,0,.33.07.44.18s.19.27.19.44v2.51c0,.17-.07.33-.19.44-.11.11-.27.18-.44.18h-3.77c-.17,0-.33-.07-.44-.18-.11-.11-.18-.27-.18-.44ZM1011.38,345.61v-.31c0-.52-.21-.99-.55-1.33-.34-.34-.81-.55-1.33-.55h-3.77c-.52,0-.99.21-1.33.55-.34.34-.55.81-.55,1.33v2.51c0,.52.21.99.55,1.33.34.34.81.55,1.33.55h3.77c.52,0,.99-.21,1.33-.55.34-.34.55-.81.55-1.33v-2.21Z"/><path class="cls-2" d="M1009.51,328.23c-.61-.1-1.26-.15-1.9-.15s-1.29.05-1.9.15c-1.76.29-3.13,1.02-3.13,2.24v1.64h1.26v-1.64c0-.47.91-.82,2.07-1,.53-.09,1.11-.13,1.7-.13s1.17.04,1.7.13c1.16.19,2.07.53,2.07,1v1.64h1.26v-1.64c0-1.22-1.37-1.96-3.13-2.24Z"/><text class="cls-1" transform="translate(962.52 397.85)"><tspan x="0" y="0">Theft, Fraud,</tspan><tspan x="19.29" y="20.4">Money </tspan><tspan class="cls-7" x="4.84" y="40.8">L</tspan><tspan x="13.28" y="40.8">aundering</tspan><tspan x="-3.75" y="61.2">&amp; Cybercrime</tspan></text><text class="cls-1" transform="translate(576.76 628.17)"><tspan x="0" y="0">Murder &amp; </tspan><tspan x="-14.05" y="20.4">Manslaughter</tspan></text><path class="cls-12" d="M814.29,560.44c1.57,0,3,.58,4.02,1.63.96.99,1.55,2.38,1.55,4.08s-.77,3.66-1.79,5.24c-1.11,1.71-2.56,2.98-3.78,2.98s-2.67-1.27-3.78-2.98c-1.02-1.58-1.8-3.57-1.8-5.24s.59-3.1,1.55-4.08c1.02-1.05,2.45-1.63,4.02-1.63h0ZM801.75,564.62c1.31,0,2.51.46,3.37,1.3.82.8,1.32,1.92,1.32,3.3s-.64,2.92-1.5,4.18c-.93,1.36-2.16,2.37-3.19,2.37s-2.26-1.01-3.19-2.37c-.85-1.25-1.5-2.84-1.5-4.18s.5-2.5,1.32-3.3c.86-.84,2.06-1.3,3.37-1.3h0ZM804.15,566.92c-.59-.58-1.45-.9-2.4-.9s-1.8.32-2.4.9c-.56.54-.9,1.33-.9,2.3,0,1.05.54,2.35,1.25,3.39.69,1.01,1.49,1.76,2.04,1.76s1.35-.75,2.04-1.76c.72-1.05,1.25-2.34,1.25-3.39,0-.98-.34-1.76-.89-2.3h0ZM817.31,563.04c-.75-.78-1.83-1.2-3.03-1.2s-2.27.43-3.03,1.2c-.71.73-1.15,1.79-1.15,3.11,0,1.4.67,3.11,1.57,4.49.87,1.34,1.9,2.34,2.61,2.34s1.74-1,2.61-2.34c.89-1.38,1.57-3.09,1.57-4.49,0-1.32-.44-2.38-1.15-3.11h0Z"/><path class="cls-2" d="M821.45,577.85c-.98-1.67-2.53-2.09-4.98-2.08-.25,0-.5.14-.62.39l-1.57,3.18-1.54-3.13c-.1-.26-.35-.44-.64-.44-2.45,0-3.99.42-4.98,2.09-.04.08-.09.15-.13.24-.29-.25-.61-.43-.98-.58-.69-.26-1.5-.35-2.47-.35-.26,0-.51.15-.63.4l-1.16,2.47-1.14-2.43c-.1-.26-.36-.45-.65-.45-2.06,0-3.36.37-4.19,1.85-.74,1.31-.99,3.5-.99,7.21,0,.38.31.7.7.7h26.47c.38,0,.7-.31.7-.7,0-4.31-.3-6.85-1.19-8.36ZM806.05,582.16c-.07.98-.11,2.1-.12,3.37h-9.75c.03-3.04.24-4.83.8-5.83.46-.82,1.27-1.08,2.54-1.13l1.41,2.99c.06.12.12.23.21.32.16.17.36.27.61.27s.45-.1.61-.27c.09-.09.16-.2.21-.32l1.41-2.99c.62.02,1.13.09,1.54.25.36.14.65.36.88.69-.16.75-.28,1.62-.35,2.65ZM807.32,585.52c.03-3.63.29-5.77,1-6.96.61-1.03,1.67-1.35,3.35-1.39l1.76,3.57c.06.13.14.24.24.34.17.17.37.26.62.26s.46-.09.63-.26l.06-.07c.07-.08.12-.17.17-.27l1.76-3.57c1.68.04,2.74.36,3.35,1.39.7,1.19.96,3.33.99,6.96h-13.93Z"/><text class="cls-1" transform="translate(775.22 628.17)"><tspan x="0" y="0">S</tspan><tspan class="cls-10" x="9.96" y="0">e</tspan><tspan x="18.99" y="0">xual &amp; </tspan><tspan x="1.97" y="20.4">Indecent</tspan><tspan x="7.46" y="40.8">Assault</tspan></text><text class="cls-1" transform="translate(973.93 628.17)"><tspan class="cls-9" x="0" y="0">R</tspan><tspan x="9.83" y="0">obber</tspan><tspan class="cls-5" x="54.28" y="0">y</tspan><tspan x="61.64" y="0">,</tspan><tspan x="-2.27" y="20.4">Extortion,</tspan><tspan x="-9.53" y="40.8">Kidnapping</tspan></text><path class="cls-12" d="M623.22,804.83c-.07-.28-.08-.56-.07-.83h-1.73c-.02.41.01.83.12,1.25l2.45,9.82c.04.14.04.27.01.39-.02.12-.08.24-.17.36-.08.11-.19.19-.3.25-.11.05-.24.08-.38.08h-6.66c-.22,0-.43-.08-.58-.21-.15-.14-.26-.32-.28-.55l-1.17-9.32c-.1-.78-.4-1.48-.84-2.07h-4.06l-.64,2.38c-.12.46.15.94.61,1.06.46.12.94-.15,1.06-.61l.69-2.58c.22.1.42.24.61.4.46.4.77.97.86,1.63l.36,2.93h-4.12c-.61,0-1.17-.2-1.61-.54-.44-.34-.77-.84-.91-1.43l-.81-3.24h-1.79l.91,3.66c.24.97.79,1.79,1.53,2.37.74.58,1.67.91,2.67.91h4.33l.58,4.66c.08.65.4,1.22.86,1.63.46.41,1.07.65,1.73.65h6.66c.4,0,.79-.09,1.14-.26.35-.17.66-.42.91-.75.25-.32.42-.68.5-1.06.08-.38.07-.78-.03-1.17l-2.45-9.82Z"/><path class="cls-2" d="M597.61,803.99h16.02c-.18-.23-.37-.45-.59-.65-.77-.68-1.78-1.09-2.87-1.09h-12.02l-.87-1.73h26l-.6.6c-.55.55-.93,1.2-1.12,1.91-.09.31-.12.63-.13.96h1.73c.01-.17.02-.34.07-.5.11-.41.35-.8.68-1.14l2.08-2.08h.01v-.02l.02-.03h0s.01-.01.01-.01h0s0-.01,0-.01h0s0-.02,0-.02h0s0-.02,0-.02h0s0-.01,0-.01l.02-.03h0s.01-.02.01-.02h0s0-.02,0-.02h0s.01-.01.01-.01h0s0-.02,0-.02h0s0-.02,0-.02h0s0-.02,0-.02h0s0-.02,0-.02v-.02s0,0,0,0v-.02s0,0,0,0h0s0-.02,0-.02h0s0-.02,0-.02h0s0-.02,0-.02h0v-.03s0-.02,0-.02h0s0-.02,0-.02h0s0-.02,0-.02h0v-.03s0,0,0,0v-.02s0-.02,0-.02h0s0-.02,0-.02h0v-.02h0v-.03h0s0-.02,0-.02h0s0-.02,0-.02h0v-.02h0v-.04s0-.02,0-.02h0s0-.02,0-.02h0v-.02h0s0-.02,0-.02v-.02s0,0,0,0v-.02s0,0,0,0v-.02s0,0,0,0v-.02s0,0,0,0h0s0-.02,0-.02h0s-.01-.04-.01-.04v-.02s0,0,0,0h0v-.02h0s0-.02,0-.02h0s0-.02,0-.02h0s0-.02,0-.02h0s0-.02,0-.02v-.02s0,0,0,0h0s0-.02,0-.02v-.02s-.02,0-.02,0l-1.42-2.84,1.3-1.3c.34-.34.34-.89,0-1.23-.34-.34-.89-.34-1.23,0l-.89.89-1.2-2.4c-.15-.3-.46-.48-.77-.48h-25.16v-.87c0-.48-.39-.87-.87-.87s-.87.39-.87.87v.87h-2.6c-.48,0-.87.39-.87.87v6.94c0,.48.39.86.87.87h2.94l1.49,2.99c.15.3.46.48.77.48ZM593.27,798.79v-5.2h28.11l1.46,2.92s.04.09.07.13l1.07,2.15h-30.71Z"/><text class="cls-1" transform="translate(580.44 875.36)"><tspan x="0" y="0">Firearms</tspan></text><path class="cls-2" d="M812.75,808.71c-.42-.21-.59-.72-.38-1.14.21-.42.72-.59,1.13-.38,1.88.94,2.85,1.88,3.35,2.86.52,1.01.52,1.96.52,3v3.4c0,.47-.38.85-.85.85h-11.9c-.47,0-.85-.38-.85-.85v-3.4c0-1.04,0-1.98.52-3,.5-.98,1.46-1.92,3.35-2.86.42-.21.93-.04,1.13.38.21.42.04.93-.38,1.14-1.51.76-2.25,1.44-2.6,2.11-.33.64-.33,1.4-.33,2.23v2.55h1.7v-2.55c0-.47.38-.85.85-.85s.85.38.85.85v2.55h3.4v-2.55c0-.47.38-.85.85-.85s.85.38.85.85v2.55h1.7v-2.55c0-.83,0-1.59-.33-2.23-.35-.68-1.09-1.36-2.6-2.11h0Z"/><path class="cls-12" d="M812.92,797.97c-.63-.7-1.52-1.06-2.49-1.06s-1.86.36-2.5,1.06c-.56.62-.9,1.5-.9,2.62s.36,2.33.94,3.23c.61.94,1.47,1.58,2.46,1.58s1.86-.64,2.46-1.58c.58-.9.94-2.1.94-3.23s-.34-2-.91-2.62ZM811.47,802.91c-.31.48-.68.8-1.04.8s-.73-.32-1.03-.8c-.41-.64-.67-1.5-.67-2.31,0-.67.18-1.17.47-1.49.29-.33.74-.5,1.23-.5s.94.17,1.23.5c.29.32.46.82.46,1.49,0,.82-.25,1.68-.66,2.31Z"/><path class="cls-2" d="M822.48,815.6v-4.25c0-.47.38-.85.85-.85s.85.38.85.85v4.25h1.7v-6.8c0-1.7-1.3-2.34-2.46-2.91-1.38-.68-2.64-1.3-2.64-3.03,0-.47.38-.85.85-.85s.85.38.85.85c0,.68.81,1.08,1.69,1.52,1.61.79,3.41,1.68,3.41,4.43v7.65c0,.47-.38.85-.85.85h-6.8c-.47,0-.85-.38-.85-.85s.38-.85.85-.85h2.55Z"/><path class="cls-12" d="M823.07,789.9l-.04-.04c-.79-.96-1.89-1.44-3.11-1.44s-2.36.5-3.15,1.49c-.68.85-1.1,2.06-1.1,3.61s.46,3.31,1.18,4.58l.03.05c.75,1.29,1.81,2.17,3.04,2.17s2.31-.9,3.07-2.22c.73-1.27,1.18-2.98,1.18-4.58s-.42-2.76-1.1-3.61ZM821.52,797.25c-.46.81-1.03,1.36-1.59,1.36s-1.11-.53-1.57-1.32l-.02-.04c-.59-1.03-.95-2.42-.95-3.74,0-1.14.27-1.99.72-2.55.45-.56,1.1-.85,1.83-.85s1.35.27,1.79.81l.03.04c.45.56.72,1.41.72,2.55,0,1.32-.37,2.71-.95,3.74Z"/><path class="cls-2" d="M796.99,815.6v-4.25c0-.47.38-.85.85-.85s.85.38.85.85v4.25h2.55c.47,0,.85.38.85.85s-.38.85-.85.85h-6.8c-.47,0-.85-.38-.85-.85v-7.65c0-2.75,1.8-3.64,3.41-4.43.88-.44,1.69-.83,1.69-1.52,0-.47.38-.85.85-.85s.85.38.85.85c0,1.73-1.25,2.35-2.64,3.03-1.16.58-2.46,1.22-2.46,2.91v6.8h1.7Z"/><path class="cls-12" d="M804.38,789.9c-.79-.99-1.91-1.49-3.14-1.49s-2.32.48-3.1,1.44l-.04.05c-.69.85-1.1,2.06-1.1,3.61s.45,3.31,1.18,4.58c.76,1.32,1.83,2.22,3.07,2.22s2.29-.88,3.04-2.17l.03-.05c.73-1.27,1.18-2.98,1.18-4.58s-.42-2.76-1.11-3.61ZM802.83,797.25l-.03.04c-.46.79-1.01,1.32-1.57,1.32s-1.13-.55-1.59-1.36c-.59-1.03-.96-2.42-.96-3.74,0-1.14.28-1.99.73-2.55l.03-.04c.45-.54,1.08-.81,1.79-.81s1.38.28,1.82.85c.45.56.73,1.41.73,2.55,0,1.32-.37,2.71-.95,3.74Z"/><text class="cls-1" transform="translate(773.4 858.48)"><tspan x="0" y="0">Assault &amp;</tspan><tspan x="-.32" y="20.4">Domestic</tspan><tspan x="-1.98" y="40.8">Violences</tspan><tspan x="13.44" y="61.2">(</tspan><tspan class="cls-8" x="17.65" y="61.2">A</tspan><tspan class="cls-6" x="27.92" y="61.2">V</tspan><tspan x="38.77" y="61.2">O)</tspan></text><path class="cls-12" d="M1004.75,797.85c1.11,0,2.13.34,2.86,1.07l.04.05c.63.65,1.01,1.58,1.01,2.79,0,1.28-.43,2.67-1.13,3.71-.69,1.04-1.67,1.76-2.78,1.76s-2.09-.72-2.79-1.77l-.02-.03c-.68-1.04-1.11-2.41-1.11-3.68s.4-2.18,1.05-2.84c.73-.73,1.75-1.07,2.86-1.07h0ZM1006.5,800.03c-.42-.42-1.04-.61-1.75-.61s-1.34.2-1.75.61c-.37.37-.6.94-.6,1.74,0,.97.33,2.03.84,2.82l.02.03c.42.63.95,1.07,1.48,1.07s1.07-.44,1.49-1.07c.53-.79.86-1.86.86-2.85,0-.77-.21-1.33-.56-1.7l-.03-.03h0Z"/><path class="cls-2" d="M998.49,819.76c-.43,0-.78-.35-.78-.78s.35-.78.78-.78h12.52c.43,0,.78.35.78.78s-.35.78-.78.78h-12.52Z"/><path class="cls-12" d="M1011.79,818.98c0,.43-.35.78-.78.78s-.78-.35-.78-.78v-6.26c0-.65-.27-1.23-.69-1.66l-.03-.04c-.42-.4-.99-.65-1.62-.65h-6.26c-.64,0-1.23.26-1.66.69-.42.43-.69,1.01-.69,1.66v6.26c0,.43-.35.78-.78.78s-.78-.35-.78-.78v-6.26c0-1.08.44-2.06,1.15-2.77.71-.71,1.69-1.15,2.77-1.15h6.26c1.05,0,2.02.42,2.72,1.11l.05.04c.71.71,1.15,1.69,1.15,2.77v6.26h0Z"/><path class="cls-12" d="M1002.4,818.98c0,.43-.35.78-.78.78s-.78-.35-.78-.78v-4.69c0-.43.35-.78.78-.78s.78.35.78.78v4.69h0Z"/><path class="cls-12" d="M1008.66,818.98c0,.43-.35.78-.78.78s-.78-.35-.78-.78v-4.69c0-.43.35-.78.78-.78s.78.35.78.78v4.69h0Z"/><path class="cls-2" d="M1005.53,795.5c0,.43-.35.78-.78.78s-.78-.35-.78-.78v-6.26c0-.43.35-.78.78-.78s.78.35.78.78v6.26h0Z"/><path class="cls-2" d="M1008.66,789.24c0-.43.35-.78.78-.78s.78.35.78.78v7.83c0,.43-.35.78-.78.78s-.78-.35-.78-.78v-7.83h0Z"/><path class="cls-2" d="M1013.36,789.24c0-.43.35-.78.78-.78s.78.35.78.78v29.74c0,.43-.35.78-.78.78s-.78-.35-.78-.78v-29.74h0Z"/><path class="cls-2" d="M999.27,789.24c0-.43.35-.78.78-.78s.78.35.78.78v7.83c0,.43-.35.78-.78.78s-.78-.35-.78-.78v-7.83h0Z"/><path class="cls-2" d="M994.58,789.24c0-.43.35-.78.78-.78s.78.35.78.78v29.74c0,.43-.35.78-.78.78s-.78-.35-.78-.78v-29.74h0Z"/><path class="cls-2" d="M1019.62,818.98c0,.43-.35.78-.79.78s-.78-.35-.78-.78v-29.74c0-.43.35-.78.78-.78s.79.35.79.78v29.74h0Z"/><path class="cls-2" d="M1018.83,788.46c.43,0,.79.35.79.78s-.35.78-.79.78h-27.38v28.17h27.38c.43,0,.79.35.79.78s-.35.78-.79.78h-28.16c-.43,0-.78-.35-.78-.78v-29.74c0-.43.35-.78.78-.78h28.16Z"/><text class="cls-1" transform="translate(991.1 875.36)"><tspan x="0" y="0">Bail</tspan></text><path class="cls-2" d="M601.19,577.58c-1.91-.08-4.76-3.06-6.08-4.4-.64-.68-.87-1.51-.57-2.4.22-.66.73-1.25,1.35-1.55.68-.34,1.48-.34,2.17.2,1.1.85,2.19,1.71,3.3,2.56.27.21,1.04-.14,1.69-.61.31-.21.78-.63.9-.98.02-.04.02-.07,0-.08-3.09-2.06-4.18-4.12-4.13-5.78.07-2.48,2.61-3.98,4.92-3.41,1.54.38,3,1.69,3.51,4.25.18.93.54,1.54,1.59,1.3,1-.23,2-.46,3-.68.88-.21,1.83-.13,2.68.18l3.29,1.2c1.95.71,2.16.67,3.23,2.5.83,1.39,1.61,2.73,2.11,4.15,1.09,3.13-2.61,3.65-3.91,1.58-.57-.93-1.28-1.95-2.06-2.72-.6-.59-1.48-.77-2.31-.87.57,1.02,1.25,2.01,1.92,3,1.26,1.87,2.05,3.38,3,5.44.92,2,1.86,4.04,2.73,4.93,1.35,1.39,2.71,2.79,4.06,4.19.6.61.76,1.32.63,1.97-.16.8-.76,1.46-1.49,1.79-.75.34-1.67.37-2.55-.14-2.23-1.3-4.14-2.93-5.97-4.73-1.1-1.08-1.54-2.39-2-3.71-.08-.22-.15-.44-.24-.66-.15.5-.27,1.05-.34,1.59-.13,1.03-.12,1.46.37,2.26.46.76.92,1.43,1.43,2.04.59.71,1.23,1.36,1.98,2,.7.6.83,1.35.63,2.06-.21.69-.75,1.29-1.37,1.65-.83.49-1.89.6-2.76,0-1.68-1.17-2.89-2.4-4.26-3.8-.3-.3-.6-.61-1.06-1.07-1.25-1.24-2.13-2.9-1.99-4.7.18-2.26.35-4.95-.23-7.16-.26-1-.92-1.89-1.65-2.61-.62.14-1.17.33-1.72.52-1.11.4-2.19.77-3.8.71h0ZM601.24,576.44c1.38.06,2.37-.28,3.38-.64.66-.23,1.33-.46,2.14-.62.18-.04.38,0,.53.14.98.91,1.84,2.04,2.19,3.36.61,2.34.45,5.14.26,7.54-.12,1.47.65,2.8,1.66,3.8.28.28.68.69,1.07,1.08,1.33,1.36,2.5,2.56,4.09,3.67.46.32,1.05.24,1.54-.05.36-.21.72-.57.84-.98.09-.3.03-.62-.27-.88-.8-.69-1.49-1.38-2.12-2.14-.53-.66-1.03-1.35-1.51-2.13-.62-1.03-.71-1.72-.54-3.03.15-1.22.57-2.52.96-3.24.05-.11.15-.19.25-.24.28-.14.63-.02.76.26.34.68.58,1.37.81,2.06.41,1.2.81,2.38,1.72,3.26,1.77,1.73,3.6,3.31,5.74,4.57.52.3,1.07.28,1.51.08.4-.18.76-.54.84-.97.06-.3-.02-.65-.33-.96-1.35-1.39-2.71-2.78-4.06-4.18-1-1.04-1.99-3.17-2.94-5.26-.93-2.01-1.68-3.46-2.91-5.27-.88-1.3-1.77-2.6-2.46-4.02-.06-.13-.1-.23-.08-.38.05-.31.33-.53.64-.5.17.02.35.04.55.06,1.12.11,2.5.25,3.5,1.25.84.84,1.6,1.92,2.22,2.93.53.85,2.5,1.24,1.86-.61-.46-1.31-1.22-2.6-2.02-3.96-.89-1.52-1.02-1.41-2.64-2l-3.29-1.21c-.64-.23-1.38-.29-2.04-.14-.99.23-1.99.46-3,.69-1.7.39-2.65-.61-2.97-2.19-.41-2.05-1.51-3.08-2.67-3.37-1.58-.4-3.45.59-3.49,2.33-.04,1.3.92,3,3.63,4.8.53.35.63.85.44,1.4-.21.6-.8,1.17-1.31,1.54-1,.72-2.34,1.14-3.07.58-1.1-.85-2.19-1.71-3.29-2.56-.3-.23-.65-.22-.96-.07-.36.17-.65.51-.77.88-.14.4-.08.85.31,1.24,1.06,1.08,3.83,3.99,5.31,4.05h0Z"/><path class="cls-2" d="M622.73,355.92h-20.59c-.22,0-.4-.18-.4-.4v-23.1c0-.22.18-.4.4-.4h20.59c.22,0,.4.18.4.4v23.1c0,.22-.18.4-.4.4ZM602.55,355.12h19.78v-22.3h-19.78v22.3Z"/><path class="cls-2" d="M622.55,335.66h-20.3c-.22,0-.4-.18-.4-.4s.18-.4.4-.4h20.3c.22,0,.4.18.4.4s-.18.4-.4.4Z"/><path class="cls-12" d="M620.48,353.69h-16.19c-.22,0-.4-.18-.4-.4v-3.19c0-.64.34-1.24.89-1.56l.5-.3c.47-.28.82-.51,1.14-.75.7-.52,1.64-.53,2.35-.02l.26.19c.34.24.78.29,1.16.13l1.44-.63c.33-.15.63-.37.87-.65.41-.49,1.04-.76,1.67-.71h.1c1.64.13,3.32-.11,4.86-.69l.49-.19c.29-.11.61-.07.86.11.25.17.4.46.4.77v7.5c0,.22-.18.4-.4.4ZM604.69,352.89h15.39v-7.1c0-.06-.04-.1-.06-.11-.02-.01-.07-.04-.12-.02l-.49.19c-1.65.62-3.44.88-5.2.75h-.1c-.38-.04-.75.12-1,.42-.31.38-.71.68-1.16.87l-1.44.63c-.64.28-1.39.2-1.95-.21l-.26-.19c-.42-.3-.98-.3-1.4.01-.34.25-.71.5-1.21.79l-.5.3c-.31.18-.5.52-.5.87v2.79Z"/><path class="cls-2" d="M999.63,577.9h11.25c.84,0,1.63.32,2.23.89l.05.06c.6.6.94,1.41.94,2.27v10.14c0,.41.33.74.74.74s.74-.33.74-.74v-10.14c0-1.25-.49-2.43-1.38-3.32l-.05-.04c-.89-.87-2.05-1.34-3.28-1.34h-11.25c-1.25,0-2.43.49-3.32,1.38-.89.89-1.38,2.07-1.38,3.32v10.14c0,.41.33.74.74.74s.74-.33.74-.74v-10.14c0-.86.33-1.67.94-2.27.61-.61,1.42-.94,2.28-.94ZM1010.88,582.36c-.41,0-.74.33-.74.74v8.16c0,.41.33.74.74.74s.74-.33.74-.74v-8.16c0-.41-.33-.74-.74-.74ZM999.63,582.36c-.41,0-.74.33-.74.74v8.16c0,.41.33.74.74.74s.74-.33.74-.74v-8.16c0-.41-.33-.74-.74-.74ZM1005.14,563.01c-1.41,0-2.6.44-3.44,1.28-.84.84-1.26,1.99-1.26,3.41,0,1.53.51,3.22,1.36,4.51.94,1.41,2.11,2.16,3.34,2.16s2.4-.75,3.31-2.12c.87-1.3,1.39-3.01,1.39-4.56,0-1.39-.41-2.52-1.21-3.36l-.06-.06c-.83-.83-2.02-1.27-3.43-1.27ZM1005.14,572.9c-.72,0-1.46-.52-2.08-1.46-.72-1.1-1.14-2.48-1.14-3.74,0-1.01.29-1.83.83-2.37.55-.55,1.38-.84,2.39-.84s1.84.29,2.39.85l.04.04c.52.55.78,1.33.78,2.33,0,1.28-.42,2.68-1.13,3.74-.63.94-1.37,1.46-2.09,1.46Z"/><path class="cls-12" d="M1026.42,570.27c0,.1,0,.21.03.32l.95,3.81c.04.15.04.31.01.45-.03.15-.1.28-.19.41-.1.13-.22.22-.35.29-.14.07-.29.1-.44.1h-2.58c-.25,0-.49-.09-.67-.25-.18-.16-.3-.38-.33-.63l-.23-1.81h-1.68c-.39,0-.75-.13-1.04-.35-.29-.22-.5-.54-.59-.92l-.35-1.42h.69l.31,1.26c.06.23.18.42.35.55.17.13.39.21.63.21h1.6l-.14-1.13c-.03-.26-.15-.48-.33-.63-.07-.06-.15-.11-.23-.15l-.27,1c-.05.18-.23.29-.41.24-.18-.05-.29-.23-.24-.41l.25-.92M1021.15,570.27h-4.63c-.12,0-.24-.07-.3-.19l-.58-1.16h-1.14c-.19,0-.34-.15-.34-.34v-2.69c0-.19.15-.34.34-.34h1.01v-.34c0-.19.15-.34.34-.34s.34.15.34.34v.34h9.76c.12,0,.24.07.3.19l.46.93.34-.34c.13-.13.34-.13.48,0,.13.13.13.34,0,.48l-.5.5.55,1.1h0s0,.01,0,.01h0s0,0,0,0h0s0,0,0,0h0s0,0,0,0h0s0,0,0,0h0s0,0,0,0h0s0,0,0,0h0s0,0,0,0h0s0,0,0,0h0s0,.02,0,.02h0s0,0,0,0h0s0,0,0,0h0s0,0,0,0h0s0,0,0,0h0s0,0,0,0h0s0,0,0,0h0s0,.01,0,.01h0s0,0,0,0h0v.02h0s0,0,0,0h0s0,0,0,0h0s0,.01,0,.01h0s0,.01,0,.01h0s0,0,0,0h0s0,.01,0,.01h0s0,0,0,0h0s0,0,0,0h0s0,0,0,0h0s0,.01,0,.01h0s0,0,0,0h0s0,0,0,0h0s0,0,0,0h0s0,0,0,0h0s0,0,0,0h0s0,0,0,0h0s0,0,0,0h0s0,0,0,0h0s0,0,0,0h0s0,0,0,0h0s0,.01,0,.01h0s0,.01,0,.01h0s0,0,0,0h0s0,0,0,0h0s0,0,0,0h0s0,0,0,0h0s0,0,0,0h0s0,.02,0,.02l-.81.81c-.13.13-.22.28-.26.44-.02.06-.02.13-.03.19"/><path class="cls-12" d="M601.19,577.58l.05-1.14h0c1.38.06,2.37-.28,3.38-.64.66-.23,1.33-.46,2.14-.62.18-.04.38,0,.53.14.98.91,1.84,2.04,2.19,3.36.61,2.34.45,5.14.26,7.54-.12,1.47.65,2.8,1.66,3.8.28.28.68.69,1.07,1.08l-.82.8c-.3-.3-.6-.61-1.06-1.07-1.25-1.24-2.13-2.9-1.99-4.7.18-2.26.35-4.95-.23-7.16-.26-1-.92-1.89-1.65-2.61-.62.14-1.17.33-1.72.52-1.11.4-2.19.77-3.8.71h0"/></g></svg>