<?xml version="1.0" encoding="UTF-8"?><svg id="Layer_2" xmlns="http://www.w3.org/2000/svg" viewBox="0 0 1200 673.25"><defs><style>.cls-1{fill:#fff;}</style></defs><g id="Layer_1-2"><rect class="cls-1" x="263.38" y="-263.38" width="673.25" height="1200" transform="translate(936.62 -263.38) rotate(90)"/><path d="M614.45,309.11l-36.61,73.97h-21.22l12.22-24.73,2.67-5.4h-28.34l-1.03,2.08-13.86,28.04h-21.21l36.61-73.97h21.21l-10.33,20.84-2.68,5.4h28.34l1.03-2.08,11.97-24.16h21.21ZM620.47,305.37h-29.56l-13,26.24h-19.99l13-26.24h-29.57l-40.31,81.45h29.56l14.89-30.12h20l-14.89,30.12h29.56l40.31-81.45h0Z"/><path d="M655.59,309.11l-36.61,73.97h-21.22l36.61-73.97h21.22ZM661.61,305.37h-29.56l-40.31,81.45h29.57l40.31-81.45h0Z"/><path d="M697.58,309.11l-36.61,73.97h-21.22l36.61-73.97h21.22ZM703.61,305.37h-29.56l-40.31,81.45h29.56l40.31-81.45h0Z"/><path d="M780.5,309.11l-8.2,16.64h-22.89l-1.03,2.08-27.38,55.25h-21.21l25.74-51.93,2.68-5.4h-22.89l8.2-16.64h67ZM786.52,305.37h-75.33l-11.89,24.12h22.88l-28.41,57.33h29.57l28.41-57.33h22.89l11.89-24.12h0Z"/><path d="M457.97,366.05c-.11,1.12-.35,2.33-.73,3.58-2.46,8.14-10.61,18.18-23.98,18.18h-19.77c.74-3.98,2.31-7.66,4.53-10.86.01-.02.03-.04.05-.06.11-.16.22-.33.34-.48.13-.18.26-.35.39-.52.13-.17.26-.34.4-.5,4.16-5.15,10.61-9.32,19.23-9.32h19.55Z"/><path d="M479.56,357.48c15.33,0,23.56-13.46,24.68-22.07h-50.87c-11.22,0-18.7,7.48-22.44,14.59l-3.37,7.48-7.85,14.97c4.86-8.61,13.84-14.97,24.31-14.97h35.53Z"/><path d="M443.38,327.19c.81-8.41,9.3-21.78,24.74-21.78h64.17c-.81,8.41-9.3,21.78-24.74,21.78h-64.17Z"/></g></svg>