<?xml version="1.0" encoding="UTF-8"?><svg id="Layer_2" xmlns="http://www.w3.org/2000/svg" viewBox="0 0 1200 673.25"><defs><style>.cls-1{fill:#fdeb00;}</style></defs><g id="Layer_1-2"><rect x="263.38" y="-263.38" width="673.25" height="1200" transform="translate(936.62 -263.38) rotate(90)"/><path class="cls-1" d="M572.93,371.92c-.19,2.03-.63,4.22-1.33,6.49-4.47,14.78-19.26,33-43.52,33h-35.89c1.34-7.22,4.19-13.9,8.22-19.72.03-.03.05-.08.08-.11.19-.3.41-.59.63-.88.24-.32.47-.63.71-.95.24-.3.47-.61.72-.91,7.55-9.35,19.27-16.91,34.9-16.91h35.49Z"/><path class="cls-1" d="M656.64,316.45c-1.5,15.34-16.83,39.65-44.88,39.65h-63.96c-19.08.37-35.53,11.6-44.13,27.3l13.84-27.3,6.73-13.46c6.36-13.09,20.2-26.18,40.77-26.18h91.64Z"/><path class="cls-1" d="M546.43,301.38c1.47-15.26,16.88-39.53,44.9-39.53h116.48c-1.47,15.26-16.88,39.53-44.9,39.53h-116.48Z"/></g></svg>