<?xml version="1.0" encoding="UTF-8"?><svg id="Layer_2" xmlns="http://www.w3.org/2000/svg" viewBox="0 0 1200 673.25"><defs><style>.cls-1{fill:#fff;opacity:.69;}.cls-2{fill:#4d7edf;}</style></defs><g id="Layer_1-2"><rect class="cls-2" x="263.38" y="-263.38" width="673.25" height="1200" transform="translate(936.62 -263.38) rotate(90)"/><path class="cls-1" d="M618.1,411.06l-54.35-165.14c-1.4-4.25,3.46-7.81,7.09-5.18l108.17,78.28c2.07,1.49,2.53,4.38,1.03,6.45l-61.94,85.59Z"/><path class="cls-1" d="M564.48,388.56h68.55c2.56,0,3.63-3.28,1.55-4.78l-61.97-44.84c-1.18-.86-2.84-.59-3.69.59l-17.28,23.88c-7.59,10.49-.1,25.15,12.85,25.15Z"/><path class="cls-1" d="M598.07,431.58l-29.52-89.68c-.8-2.44,1.99-4.47,4.06-2.97l61.97,44.84c1.18.86,1.45,2.51.59,3.69l-32.45,44.84c-1.27,1.75-3.98,1.33-4.65-.72Z"/><path class="cls-1" d="M680.89,322.21c-.13-1.05-.62-2.05-1.43-2.81-.14-.13-.3-.26-.46-.38l-108.16-78.28s-.07-.06-.11-.07c-3.62-2.48-8.36,1.04-6.98,5.25l5.38,16.33c-.09.32-.17.55-.27.69l-64.69,28.86c-7.31,3.39-9.79,12.56-5.18,19.18l7.54,10.83c2.43,3.48,6.4,5.56,10.65,5.56h159.14c1.6,0,2.87-.73,3.66-1.79l.09-.12c.09-.13.17-.26.23-.39.1-.16.19-.32.26-.49.04-.09.09-.17.1-.26.04-.1.07-.2.1-.32.06-.13.09-.27.1-.42.01-.09.03-.16.04-.24.03-.17.04-.36.04-.53,0-.2-.01-.4-.03-.61Z"/></g></svg>