<?xml version="1.0" encoding="UTF-8"?><svg id="Layer_2" xmlns="http://www.w3.org/2000/svg" viewBox="0 0 1200 673.25"><defs><style>.cls-1{opacity:.69;}.cls-1,.cls-2{fill:#fff;}.cls-3{fill:#272223;}</style></defs><g id="Layer_1-2"><rect class="cls-3" x="263.38" y="-263.38" width="673.25" height="1200" transform="translate(936.62 -263.38) rotate(90)"/><path class="cls-2" d="M574.72,394.64h-6.56l-13.93-33.66h7.09l10.1,26.1,10.15-26.1h7.09l-13.93,33.66Z"/><path class="cls-2" d="M592.59,384.78c.38,2.92,2.92,5.03,7.04,5.03,2.15,0,4.98-.81,6.32-2.2l3.73,3.69c-2.49,2.59-6.56,3.83-10.15,3.83-8.14,0-12.98-5.03-12.98-12.59s4.88-12.35,12.55-12.35,12.83,4.88,11.92,14.61h-18.44ZM605.42,379.94c-.38-3.06-2.78-4.6-6.13-4.6-3.16,0-5.75,1.53-6.61,4.6h12.74Z"/><path class="cls-2" d="M622.76,364.24v6.7h6.51v5.03h-6.56v10.2c0,2.25,1.25,3.35,3.06,3.35.91,0,1.96-.29,2.83-.72l1.63,4.98c-1.68.67-3.06.96-4.84,1.01-5.12.19-8.48-2.73-8.48-8.62v-10.2h-4.41v-5.03h4.41v-6.08l5.84-.62Z"/><path class="cls-2" d="M675.63,389.85c-3.35,3.35-7.81,5.03-12.21,5.03-11.3,0-17.19-7.9-17.24-16.95-.1-8.95,5.75-17.33,17.24-17.33,4.41,0,8.86,1.68,12.21,5.03l-1.77,1.53c-2.87-2.87-6.66-4.26-10.44-4.26-9.77,0-14.8,6.9-14.75,14.94.1,7.85,5.08,14.65,14.75,14.65,3.78,0,7.61-1.44,10.49-4.26l1.72,1.63Z"/><path class="cls-2" d="M683.11,360.98v33.52h-2.35v-33.52h2.35Z"/><path class="cls-2" d="M692.78,363.13c0,2.49-3.78,2.49-3.78,0s3.78-2.49,3.78,0ZM689.67,370.75v23.75h2.35v-23.75h-2.35Z"/><path class="cls-2" d="M701.02,370.84v4.21c1.82-3.26,5.12-4.6,8.43-4.64,6.32,0,10.68,3.88,10.68,10.44v13.65h-2.35v-13.6c0-5.36-3.3-8.24-8.43-8.19-4.88.05-8.28,3.74-8.28,8.62v13.17h-2.35v-23.66h2.3Z"/><path class="cls-2" d="M729.37,363.13c0,2.49-3.78,2.49-3.78,0s3.78-2.49,3.78,0ZM726.26,370.75v23.75h2.35v-23.75h-2.35Z"/><path class="cls-2" d="M754.7,391.2c-2.39,2.39-5.51,3.54-8.62,3.54-6.66,0-12.16-4.6-12.16-12.07s5.32-12.07,12.16-12.07c3.11,0,6.23,1.2,8.62,3.54l-1.53,1.48c-1.92-1.92-4.55-2.83-7.09-2.83-5.36,0-9.86,3.5-9.86,9.86s4.5,9.86,9.86,9.86c2.54,0,5.12-1.01,7.04-2.92l1.58,1.58Z"/><path class="cls-2" d="M595.65,330.46h-26.64l-4.37,9.61h-10.41l22.86-50.95h10.48l22.86,50.95h-10.48l-4.29-9.61ZM582.33,299.82l-9.46,21.69h18.93l-9.46-21.69Z"/><path class="cls-2" d="M622.15,289.19v50.88h-8.81v-50.88h8.81Z"/><path class="cls-2" d="M629.94,355.06v-50.88h8.3l.58,4.95c2.77-4,7.57-5.75,11.65-5.75,11.06,0,18.42,8.23,18.42,18.78s-6.62,18.78-18.12,18.78c-3.79,0-9.39-1.16-11.94-5.1v19.22h-8.88ZM660.01,322.16c0-5.6-3.79-10.19-10.19-10.19s-10.19,4.59-10.19,10.19,4.15,10.19,10.19,10.19,10.19-4.59,10.19-10.19Z"/><path class="cls-2" d="M684.32,289.12v19.94c3.2-4.15,7.13-5.39,11.21-5.39,10.19,0,14.7,6.92,14.7,17.47v18.93h-8.88v-18.85c0-6.55-3.42-9.32-8.15-9.32-5.24,0-8.88,4.44-8.88,9.83v18.34h-8.88v-50.95h8.88Z"/><path class="cls-2" d="M746.2,304.18h8.52v35.89h-8.37l-.44-5.24c-2.04,4.22-7.64,6.26-11.65,6.33-10.63.07-18.49-6.48-18.49-19.07s8.23-18.85,18.71-18.78c4.8,0,9.39,2.26,11.43,5.82l.29-4.95ZM724.65,322.09c0,6.84,4.73,10.92,10.63,10.92,13.98,0,13.98-21.76,0-21.76-5.9,0-10.63,4-10.63,10.85Z"/><path class="cls-1" d="M479.48,394.56l-35.39-107.51c-.91-2.77,2.26-5.08,4.62-3.37l70.42,50.96c1.34.97,1.65,2.85.67,4.2l-40.33,55.73Z"/><path class="cls-1" d="M444.57,379.9h44.63c1.67,0,2.36-2.14,1.01-3.11l-40.34-29.2c-.77-.56-1.85-.38-2.4.39l-11.25,15.55c-4.94,6.83-.06,16.38,8.36,16.38Z"/><path class="cls-1" d="M466.44,407.92l-19.22-58.39c-.52-1.59,1.29-2.91,2.64-1.93l40.34,29.2c.77.56.94,1.63.39,2.4l-21.13,29.19c-.82,1.14-2.59.86-3.03-.47Z"/><path class="cls-1" d="M520.36,336.71c-.08-.68-.4-1.33-.93-1.83-.09-.09-.2-.17-.3-.24l-70.42-50.96s-.05-.04-.07-.05c-2.36-1.61-5.44.68-4.54,3.42l3.5,10.63c-.06.21-.11.36-.18.45l-42.12,18.79c-4.76,2.21-6.37,8.18-3.38,12.49l4.91,7.05c1.58,2.27,4.17,3.62,6.93,3.62h103.61c1.04,0,1.87-.48,2.38-1.16l.06-.08c.06-.09.11-.17.15-.25.07-.1.12-.21.17-.32.03-.06.06-.11.07-.17.03-.07.05-.13.07-.21.04-.08.06-.18.07-.27,0-.06.02-.1.03-.16.02-.11.03-.23.03-.35,0-.13,0-.26-.02-.39Z"/></g></svg>