<?xml version="1.0" encoding="UTF-8"?><svg id="Layer_2" xmlns="http://www.w3.org/2000/svg" xmlns:xlink="http://www.w3.org/1999/xlink" viewBox="0 0 1440 807.9"><defs><style>.cls-1{fill:url(#linear-gradient);}.cls-2{fill:#272223;}</style><linearGradient id="linear-gradient" x1="585.44" y1="403.95" x2="854.56" y2="403.95" gradientUnits="userSpaceOnUse"><stop offset="0" stop-color="#c1976b"/><stop offset="1" stop-color="#5d393b"/></linearGradient></defs><g id="Layer_1-2"><rect class="cls-2" x="316.05" y="-316.05" width="807.9" height="1440" transform="translate(1123.95 -316.05) rotate(90)"/><path class="cls-1" d="M696.29,526.78c-.83-1.34-2.17-1.53-3.46-1.55-1.34,0-3.46.49-3.46,2.32,0,1.45,1.57,1.79,3.49,2.15,2.2.42,4.48.81,4.48,3.28-.02,2.58-2.61,3.2-4.52,3.2-1.78,0-3.8-.73-4.68-2.48l.78-.39c.7,1.39,2.49,2.07,3.9,2.07s3.64-.39,3.64-2.41c.02-1.71-1.87-2.09-3.75-2.45-2.09-.41-4.22-.83-4.22-2.93-.05-2.41,2.46-3.16,4.34-3.16,1.63,0,3.05.26,4.17,1.94l-.72.42ZM717.61,535.99h-1.11l-6.02-5.63v5.61h-.88v-11.4h.88v5.2l5.54-5.2h1.06v.08l-5.74,5.38,6.26,5.89v.07ZM729.16,535.99v-11.41h.86v11.41h-.86ZM743.3,524.58l7.68,9.44v-9.44h.86v11.41h-.34l-7.7-9.42v9.42h-.88v-11.41h.38ZM795.04,342.13c-.35-.36-.85-.54-1.36-.48-18.85,2.24-36.08,10.67-49.81,24.39l-.29.29c-.11.11-.22.23-.31.34-6.25,6.35-11.43,13.51-15.48,21.27-1.54-3.44-3.43-6.75-5.67-9.89,11.31-14.76,17.31-32.55,17.35-51.58,0-19.53-6.28-38.24-18.15-54.1-.3-.4-.78-.65-1.28-.65-.54-.02-.98.22-1.3.61-11.82,14.85-18.13,32.96-18.23,52.4v.39c0,.16,0,.33.02.48.07,18.92,6.04,37.03,17.27,52.49-2.27,3.02-4.18,6.25-5.73,9.63-4.03-7.66-9.16-14.73-15.35-21.02-.11-.15-.22-.25-.27-.3-.06-.07-.13-.14-.2-.21,0,0-.14-.14-.14-.14-13.74-13.73-30.96-22.16-49.82-24.4-.51-.06-1,.12-1.36.48-.35.36-.52.86-.45,1.36,2.72,19.62,11.42,37.33,25.16,51.23,10.82,10.88,23.83,18.45,38.12,22.31,1.21,9.62,4.91,18.74,10.87,26.68.3.4.78.64,1.28.65,0,0,.02,0,.02,0,.5,0,.97-.23,1.27-.62,6.16-7.75,9.92-16.9,11.05-26.75,14.25-3.86,27.23-11.43,38.03-22.28,13.74-13.89,22.44-31.6,25.17-51.22.07-.5-.1-1-.45-1.36ZM703.78,325.26v-.51c.09-17.96,5.69-34.74,16.21-48.69,10.63,14.92,16.23,32.31,16.24,50.42-.03,18.07-5.65,34.99-16.25,49.07-10.54-14.79-16.13-32.05-16.17-50.05,0-.1,0-.14-.02-.24ZM719.97,380.64c2.44,3.53,4.41,7.29,5.92,11.2-2.52,5.46-4.49,11.19-5.89,17.13-1.42-6.03-3.43-11.84-6-17.38,1.51-3.88,3.5-7.55,5.98-10.95ZM729.41,410.73c0,1.24-.05,2.47-.14,3.69-2.41.58-4.85,1.07-7.33,1.43,1.1-6.75,2.94-13.25,5.49-19.42,1.31,4.62,1.98,9.42,1.99,14.3ZM710.61,410.12c0-.07,0-.15-.02-.22v-.23c.03-4.66.66-9.19,1.87-13.51,2.61,6.25,4.49,12.84,5.6,19.69-2.45-.36-4.87-.84-7.26-1.41-.12-1.43-.19-2.87-.19-4.31ZM671.99,392.43c-12.74-12.88-20.99-29.19-23.93-47.26,17.29,2.51,33.07,10.5,45.71,23.12.06.07.13.14.2.21l.2.21c.05.07.1.14.17.2,6.66,6.76,12.06,14.45,16.13,22.83-2.02,5.64-3.09,11.67-3.12,17.9v.26c0,.09,0,.2.01.34,0,1.11.05,2.22.12,3.32-13.28-3.8-25.38-10.97-35.49-21.13ZM720,439.99c-4.63-6.71-7.61-14.23-8.8-22.13,2.82.64,5.69,1.15,8.6,1.49.06,0,.13.01.19.01,0,0,0,0,0,0s0,0,0,0c.06,0,.13,0,.19-.01,2.95-.35,5.85-.87,8.71-1.52-1.12,8.06-4.14,15.59-8.9,22.15ZM768.01,392.42c-10.1,10.15-22.17,17.31-35.43,21.12.05-.93.08-1.87.08-2.81,0-6.46-1.11-12.77-3.25-18.75,4.08-8.48,9.52-16.26,16.24-23.08.05-.05.1-.1.14-.16.03-.03.06-.07.09-.1l.29-.29c12.7-12.69,28.48-20.68,45.77-23.19-2.95,18.08-11.2,34.38-23.94,47.25ZM629.65,468.29l-8.96,25.44c-.34.96-1.22,1.58-2.23,1.58h-.02c-1.03,0-1.9-.64-2.23-1.62l-8.12-24.22s-.04-.13-.19-.14c-.15.03-.18.1-.19.13l-8.73,24.38c-.34.95-1.22,1.57-2.23,1.57h0c-1.02,0-1.89-.62-2.23-1.58l-9.01-25.55c-.2-.57.1-1.19.66-1.39.56-.2,1.18.1,1.38.66l9.01,25.55s.05.13.19.13h0c.14,0,.17-.1.19-.13l8.73-24.39c.34-.96,1.22-1.57,2.23-1.57h.03c1.02.01,1.9.65,2.22,1.62l8.12,24.22s.05.14.19.14h0c.14,0,.17-.1.19-.13l8.96-25.44c.2-.57.82-.86,1.38-.66.57.2.86.82.66,1.39ZM676.67,493.75c.26.54.03,1.19-.51,1.45-.54.26-1.19.03-1.45-.51l-3.48-7.23h-18.02l-3.48,7.23c-.19.39-.58.61-.98.61-.16,0-.32-.03-.47-.11-.54-.26-.77-.91-.51-1.45l12.31-25.56c.4-.83,1.22-1.34,2.14-1.34h0c.92,0,1.74.52,2.14,1.35l12.31,25.56ZM670.18,485.29l-7.78-16.16s-.05-.12-.18-.12-.17.09-.18.11l-7.78,16.16h15.93ZM719.38,493.13h-18.07c-.46,0-.84-.38-.84-.84v-24.37c0-.6-.49-1.09-1.09-1.09s-1.09.49-1.09,1.09v24.37c0,1.66,1.35,3.01,3.01,3.01h18.07c.6,0,1.09-.49,1.09-1.09s-.49-1.09-1.09-1.09ZM854.55,467.93c0-.6-.49-1.09-1.09-1.09s-1.09.49-1.09,1.09v25.01s0,.14-.13.19c-.14.05-.2-.03-.22-.07l-20.17-25.22c-.64-.8-1.67-1.1-2.64-.77-.97.34-1.59,1.22-1.59,2.24v24.92c0,.6.48,1.09,1.08,1.09s1.09-.49,1.09-1.09v-24.92s0-.14.13-.19c.13-.05.2.03.22.07l20.17,25.22c.46.59,1.14.9,1.84.9.26,0,.53-.04.79-.14.97-.34,1.59-1.22,1.59-2.24v-25.01ZM764.72,493.75c.26.54.03,1.19-.51,1.45-.15.07-.31.11-.47.11-.4,0-.79-.23-.98-.61l-3.48-7.23h-18.02l-3.48,7.23c-.26.54-.91.77-1.45.51-.54-.26-.77-.91-.51-1.45l12.32-25.56c.4-.83,1.22-1.34,2.14-1.34s1.74.52,2.14,1.35l12.31,25.56ZM758.23,485.29l-7.78-16.16s-.06-.12-.18-.12-.17.09-.18.11l-7.78,16.16h15.93ZM811.09,493.75c.26.54.03,1.19-.51,1.45-.15.07-.31.11-.47.11-.4,0-.79-.23-.98-.61l-3.48-7.23h-18.02l-3.48,7.23c-.26.54-.91.77-1.45.51-.54-.26-.77-.91-.51-1.45l12.31-25.56c.4-.83,1.22-1.34,2.14-1.34s1.74.52,2.14,1.35l12.31,25.56ZM804.6,485.29l-7.78-16.16s-.06-.12-.18-.12-.17.09-.18.11l-7.78,16.16h15.93Z"/></g></svg>