<?xml version="1.0" encoding="UTF-8"?><svg id="Layer_2" xmlns="http://www.w3.org/2000/svg" xmlns:xlink="http://www.w3.org/1999/xlink" viewBox="0 0 1440 807.9"><defs><style>.cls-1{fill:url(#linear-gradient);}</style><linearGradient id="linear-gradient" x1="605.42" y1="403.95" x2="834.58" y2="403.95" gradientUnits="userSpaceOnUse"><stop offset="0" stop-color="#c1976b"/><stop offset="1" stop-color="#5d393b"/></linearGradient></defs><g id="Layer_1-2"><rect x="316.05" y="-316.05" width="807.9" height="1440" transform="translate(1123.95 -316.05) rotate(90)"/><path class="cls-1" d="M833.87,379.8c-.54-.55-1.29-.82-2.06-.72-28.61,3.39-54.75,16.2-75.59,37.02l-.44.44c-.17.17-.33.35-.47.52-9.48,9.64-17.34,20.5-23.49,32.27-2.33-5.22-5.2-10.24-8.6-15,17.16-22.39,26.27-49.39,26.33-78.27,0-29.63-9.53-58.02-27.55-82.1-.46-.61-1.18-.98-1.94-.99-.83-.02-1.49.33-1.97.93-17.94,22.53-27.51,50.02-27.66,79.52v.59c0,.25,0,.49.03.72.1,28.72,9.17,56.2,26.21,79.65-3.44,4.59-6.35,9.48-8.69,14.62-6.11-11.62-13.91-22.35-23.29-31.9-.17-.22-.34-.39-.41-.46-.1-.11-.2-.22-.31-.32,0,0-.21-.21-.21-.21-20.85-20.83-46.99-33.63-75.59-37.03-.77-.09-1.52.18-2.06.72-.54.55-.79,1.31-.68,2.07,4.13,29.77,17.33,56.65,38.18,77.73,16.42,16.51,36.16,28,57.84,33.85,1.84,14.6,7.45,28.43,16.49,40.49.46.61,1.18.98,1.94.99.01,0,.02,0,.04,0,.75,0,1.47-.34,1.93-.93,9.35-11.76,15.06-25.65,16.77-40.59,21.62-5.86,41.32-17.34,57.7-33.81,20.85-21.07,34.05-47.95,38.2-77.73.11-.76-.15-1.52-.68-2.07ZM695.38,354.19v-.77c.14-27.25,8.63-52.72,24.59-73.88,16.13,22.64,24.64,49.02,24.64,76.51-.05,27.43-8.57,53.1-24.66,74.46-16-22.44-24.48-48.63-24.54-75.96,0-.16,0-.21-.03-.36ZM719.96,438.23c3.7,5.36,6.69,11.06,8.98,16.99-3.82,8.28-6.82,16.98-8.94,26-2.15-9.15-5.2-17.97-9.11-26.37,2.29-5.88,5.32-11.46,9.07-16.62ZM734.27,483.9c0,1.88-.08,3.75-.21,5.6-3.66.88-7.37,1.62-11.13,2.17,1.66-10.24,4.46-20.11,8.33-29.47,1.98,7.01,3.01,14.29,3.01,21.71ZM705.75,482.98c0-.11,0-.23-.02-.34v-.35c.04-7.07,1-13.94,2.83-20.5,3.95,9.49,6.81,19.49,8.5,29.88-3.72-.54-7.39-1.27-11.02-2.14-.18-2.17-.28-4.35-.29-6.55ZM647.14,456.12c-19.34-19.55-31.85-44.29-36.31-71.71,26.23,3.81,50.19,15.93,69.36,35.08.1.11.2.22.31.32l.3.31c.08.11.16.21.25.3,10.1,10.26,18.31,21.93,24.47,34.65-3.07,8.56-4.68,17.7-4.73,27.17v.4c0,.13,0,.31.02.52,0,1.69.08,3.37.19,5.04-20.15-5.77-38.51-16.64-53.85-32.07ZM720,528.31c-7.03-10.18-11.55-21.59-13.35-33.57,4.29.97,8.63,1.74,13.05,2.27.1.01.2.02.29.02,0,0,0,0,0,0s0,0,0,0c.1,0,.19,0,.29-.02,4.47-.53,8.87-1.32,13.21-2.3-1.71,12.23-6.28,23.66-13.5,33.61ZM792.85,456.12c-15.32,15.41-33.65,26.27-53.76,32.05.07-1.41.12-2.83.13-4.26,0-9.8-1.69-19.37-4.93-28.45,6.19-12.87,14.45-24.68,24.65-35.03.08-.08.15-.16.21-.24.04-.05.09-.11.13-.15l.44-.43c19.27-19.25,43.22-31.37,69.45-35.19-4.47,27.43-16.99,52.16-36.32,71.71Z"/></g></svg>