<?xml version="1.0" encoding="UTF-8"?><svg id="Layer_2" xmlns="http://www.w3.org/2000/svg" viewBox="0 0 1200 673.25"><defs><style>.cls-1{fill:#555cff;}</style></defs><g id="Layer_1-2"><rect x="263.38" y="-263.38" width="673.25" height="1200" transform="translate(936.62 -263.38) rotate(90)"/><path class="cls-1" d="M613.13,426.14c.36,2.86.5,5.77.42,8.64h0c17.59-.19,31.77-5.53,42.16-15.86,10.59-10.53,15.97-24.92,15.97-42.77,0-9.23-3.1-17.82-9.22-25.54-6.21-7.82-18.93-17.28-38.9-28.92-16.64-9.68-27.61-17.53-32.59-23.31-4.99-5.78-7.52-11.94-7.52-18.31,0-10.19,2.93-18.06,8.96-24.05,6.03-6,13.94-8.92,24.16-8.92s19.07,3,25.09,8.92c6.02,5.93,10.57,15.72,13.52,29.11.28,1.51,1.69,2.24,4.2,2.24,1.4,0,2.45-.29,2.96-.8.45-.46.53-1.17.52-1.68-1.77-11.69,4.42-31.08,1.24-46.43,0,0-1.74,4.04-5.54,4.86-3.8.83-12.25-.77-19.87-2.29-8.2-1.71-15.53-2.57-21.8-2.57-16.61,0-30.52,5.11-41.34,15.2-10.82,10.09-16.3,22.62-16.3,37.23,0,9.5,3.05,18.28,9.05,26.08,6.1,7.92,18.65,17.28,38.36,28.64,16.96,9.86,28.19,18.03,33.39,24.26,5.27,6.32,7.84,12.97,7.84,20.34,0,11.3-3.02,20.21-8.97,26.48-5.96,6.27-14.63,9.45-25.76,9.45h-.04Z"/><path class="cls-1" d="M517.99,253.69l34.09,21.85c1.74-6.5,4.69-12.61,8.78-18.21-13.15-7.35-28.78-8.66-42.86-3.64Z"/><path class="cls-1" d="M467.75,256.26l87.25,55.92c-3.25-6.66-4.89-13.79-4.89-21.29,0-1.78.09-3.62.27-5.59l-36.94-23.78c-13.69-8.81-30.51-10.69-45.68-5.26Z"/></g></svg>