<?xml version="1.0" encoding="UTF-8"?><svg id="Layer_2" xmlns="http://www.w3.org/2000/svg" viewBox="0 0 1200 673.25"><defs><style>.cls-1{fill:#555cff;}.cls-2{fill:#fff;}.cls-3{fill:#272223;}</style></defs><g id="Layer_1-2"><rect class="cls-2" x="263.38" y="-263.38" width="673.25" height="1200" transform="translate(936.62 -263.38) rotate(90)"/><path class="cls-3" d="M582.02,302.44h-5.71v-1.08h12.64v1.08h-5.71v14.69h-1.22v-14.69Z"/><path class="cls-3" d="M610.07,317.13v-7.18h-10.07v7.18h-1.22v-15.8h1.22v7.52h10.07v-7.52h1.22v15.8h-1.22Z"/><path class="cls-3" d="M623.47,308.62h9.25v1.11h-9.25v6.23h9.98v1.17h-11.17v-15.8h10.9v1.15h-9.71v6.14Z"/><path class="cls-3" d="M586.94,332.23c-.54-.9-2.03-1.76-3.75-1.76-2.21,0-3.27.93-3.27,2.1,0,1.38,1.63,1.76,3.52,1.99,3.3.41,6.37,1.26,6.37,5.03,0,3.52-3.12,5.03-6.64,5.03-3.23,0-5.71-.99-6.88-3.88l2.48-1.29c.7,1.74,2.53,2.51,4.45,2.51s3.63-.65,3.63-2.37c0-1.49-1.56-2.1-3.66-2.32-3.23-.38-6.21-1.24-6.21-4.78,0-3.25,3.21-4.58,6.12-4.6,2.46,0,5.01.7,6.21,3.14l-2.37,1.22Z"/><path class="cls-3" d="M615.15,336.4c-.05,4.09-2.55,8.17-8.1,8.17s-8.13-4-8.13-8.15,2.66-8.33,8.13-8.33,8.15,4.18,8.1,8.31ZM601.85,336.47c.07,2.6,1.47,5.37,5.19,5.37s5.12-2.8,5.17-5.39c.05-2.66-1.44-5.64-5.17-5.64s-5.26,3-5.19,5.67Z"/><path class="cls-3" d="M624.85,344.21v-15.78h11.35v2.87h-8.37v4.31h7.92v2.75h-7.92v5.85h-2.98Z"/><path class="cls-3" d="M650.56,331.12h-5.01v-2.71h13v2.71h-5.01v13.09h-2.98v-13.09Z"/><path class="cls-3" d="M685.65,344.21h-2.53l-1.96-4.97-1.67-4.99-1.65,5.03-1.92,4.92h-2.53l-5.8-15.8h3.34l3.72,11.4,3.84-11.4h1.94l3.95,11.4,3.61-11.4h3.34l-5.69,15.8Z"/><path class="cls-3" d="M711.9,341.24h-8.26l-1.35,2.98h-3.23l7.09-15.8h3.25l7.09,15.8h-3.25l-1.33-2.98ZM707.77,331.73l-2.93,6.73h5.87l-2.93-6.73Z"/><path class="cls-3" d="M739.34,344.21h-3.54l-4.6-5.28h-2.87v5.28h-2.98v-15.82c2.51,0,5.01.02,7.52.02,3.72.02,5.69,2.51,5.69,5.24,0,2.17-.99,4.36-4,4.97l4.78,5.39v.2ZM728.33,331.19v5.06h4.54c1.9,0,2.71-1.26,2.71-2.53s-.84-2.53-2.71-2.53h-4.54Z"/><path class="cls-3" d="M759.86,344.21h-11.83v-15.8h11.83v2.89h-8.87v3.63h8.55v2.78h-8.55v3.57h8.87v2.93Z"/><path class="cls-3" d="M578.74,363.01h9.1v1.15h-9.1v7.15h-1.22v-15.82h10.63v1.22h-9.41v6.3Z"/><path class="cls-3" d="M598.6,371.3v-15.8h1.2v15.8h-1.2Z"/><path class="cls-3" d="M623.41,371.3h-1.6l-5.46-5.98h-4.31v5.98h-1.22v-15.8h6.95c3.43,0,5.17,2.46,5.19,4.92.02,2.57-1.67,4.83-5.12,4.83l5.58,6.05ZM612.03,364.16h5.6c2.75,0,3.97-1.56,3.99-3.77.02-1.85-1.24-3.77-3.86-3.77h-5.73v7.54Z"/><path class="cls-3" d="M646.75,357.26l-6.05,9.25h-.41l-6.09-9.25v14.04h-1.22v-15.8h1.44l6.05,9.21,5.98-9.21h1.49v15.8h-1.2v-14.04Z"/><path class="cls-1" d="M508.87,378.94c.17,1.35.24,2.73.2,4.08h0c8.31-.09,15.02-2.61,19.93-7.5,5.01-4.98,7.55-11.78,7.55-20.22,0-4.36-1.47-8.43-4.36-12.07-2.93-3.7-8.95-8.17-18.39-13.67-7.87-4.58-13.05-8.29-15.41-11.02-2.36-2.73-3.56-5.64-3.56-8.66,0-4.82,1.39-8.54,4.24-11.37,2.85-2.84,6.59-4.22,11.42-4.22s9.01,1.42,11.86,4.22c2.85,2.8,5,7.43,6.39,13.76.13.72.8,1.06,1.99,1.06.66,0,1.16-.14,1.4-.38.21-.22.25-.55.25-.8-.83-5.53,2.09-14.69.58-21.95,0,0-.82,1.91-2.62,2.3-1.79.39-5.79-.36-9.39-1.08-3.88-.81-7.34-1.22-10.3-1.22-7.85,0-14.43,2.42-19.54,7.19-5.11,4.77-7.71,10.69-7.71,17.6,0,4.49,1.44,8.64,4.28,12.33,2.88,3.74,8.82,8.17,18.13,13.54,8.02,4.66,13.32,8.52,15.78,11.47,2.49,2.99,3.7,6.13,3.7,9.61,0,5.34-1.43,9.55-4.24,12.52-2.82,2.96-6.91,4.47-12.18,4.47h-.02Z"/><path class="cls-1" d="M463.89,297.42l16.11,10.33c.82-3.08,2.22-5.96,4.15-8.61-6.22-3.48-13.61-4.09-20.26-1.72Z"/><path class="cls-1" d="M440.14,298.63l41.24,26.44c-1.54-3.15-2.31-6.52-2.31-10.07,0-.84.04-1.71.13-2.64l-17.46-11.24c-6.47-4.17-14.42-5.05-21.6-2.49Z"/></g></svg>