<?xml version="1.0" encoding="UTF-8"?><svg id="Layer_2" xmlns="http://www.w3.org/2000/svg" xmlns:xlink="http://www.w3.org/1999/xlink" viewBox="0 0 3000 1690"><defs><style>.cls-1{fill:url(#linear-gradient);}</style><linearGradient id="linear-gradient" x1="1500" y1="-15.64" x2="1500" y2="1743.89" gradientUnits="userSpaceOnUse"><stop offset="0" stop-color="#fff"/><stop offset=".17" stop-color="#ecedef"/><stop offset=".4" stop-color="#cdd0d6"/><stop offset=".68" stop-color="#a8adb8"/><stop offset=".79" stop-color="#828a99"/><stop offset="1" stop-color="#b4b9c2"/></linearGradient></defs><g id="Layer_1-2"><path class="cls-1" d="M.47,878.55h72.17c-1.19,21.21-3.5,40.41-8.09,61.15H0v1.25h64.27c-4.81,21.25-12.44,42.09-23.41,60.9H0v1.5h39.98c-9.94,16.67-22.66,31.79-39.98,45.76v1.95c18.14-14.46,31.19-30.04,41.52-47.71h73.16c-13.85,24.07-32.8,44.63-57.21,60.65H0v1.75h54.73c-16.46,10.41-34.95,19.05-54.73,26.27v1.68c20.8-7.54,40.36-16.71,57.63-27.95h74.76c-36.33,24.65-83.23,39.48-132.39,48.29v1.88c48.74-9.21,97.99-24.12,135.26-50.17h75.33c-56.14,40.38-141.28,53.49-210.59,60.39v2.43h71.8c-3.27.41-31.09,3.92-71.8,9.05v2.1c51.41-6.48,87.14-10.98,88.44-11.14h75.5c-8.04,1.08-79.97,10.77-163.94,22.08v2.1l179.53-24.18h76.55c-.9.13-139.11,20.13-256.07,37.05v2.1c119.45-17.28,268.75-38.88,270.6-39.15h77.61c-2.08.33-251.6,39.31-348.21,54.41v2.11c83.94-13.12,359.11-56.11,361.68-56.51h78.66c-27.94,4.74-352.23,59.82-354.88,60.27h-.16v-.02s-85.3,0-85.3,0v2.19h72.25c-.97.16-30.55,5.19-72.25,12.27v2.23c48.5-8.24,84.28-14.32,85.39-14.5h111c-11.34,2.11-110.62,20.58-196.39,36.53v2.24c88.25-16.42,196.55-36.56,208.43-38.77h112.1c-19.59,4.03-272.92,56.12-292.51,60.14H0v2.32h16.44c-1.68.35-7.53,1.55-16.44,3.38v2.37c17.03-3.5,27.67-5.69,27.96-5.75h144.62c-27.81,6.39-108.18,24.86-172.58,39.66v2.38c77.65-17.84,178.85-41.1,182.94-42.04h145.79l-230.48,60.03H0v2.44h88.65c-5.28,1.38-44.24,11.52-88.65,23.09v2.52c50.94-13.27,97.2-25.31,98.32-25.61h178.47l-199.35,59.91H0v2.56h68.72L0,1399.06v2.67c36.82-11.06,69.59-20.91,77.61-23.32h211.26c-5.18,1.84-161.47,57.34-168.35,59.79H0v2.68h112.8c-9.27,3.29-67.47,23.96-112.8,40.06v2.84c49.03-17.41,118.24-41.99,120.8-42.9h244.14c-.68.3-133.24,57.83-137.46,59.67H0v2.8h220.88c-22.74,9.87-137.15,59.53-137.19,59.55H0v2.91h76.83c-10.04,4.36-44.59,19.36-76.83,33.35v3.18c34.15-14.83,73.35-31.84,84.15-36.53h308.81c-17.46,9.75-89.05,49.7-106.51,59.45H0v3h280.98l-106.43,59.4H0v2.35h3000v-2.35h-174.55c-17.46-9.75-88.96-49.65-106.43-59.4h280.98v-3h-286.44c-4.2-2.34-100.7-56.2-106.51-59.45h308.8l84.15,36.53v-3.18l-76.83-33.35h76.83v-2.9c-43,0-76.89-.02-83.54-.02h0s-.15,0-.15,0c-18.29-8.09-129.33-56.14-137.19-59.55h220.88v-2.74c-75.06-.02-212.23-.05-227.32-.05h0s-.15,0-.15,0c-4.23-1.83-134.71-58.47-137.46-59.67h244.14c2.39.85,71.9,25.53,120.8,42.9v-2.84c-47.55-16.89-109.06-38.73-112.8-40.06h112.8v-2.65l-120.51-.03c-7.96-2.83-167.51-59.49-168.36-59.79h211.26c8.01,2.41,40.79,12.26,77.61,23.32v-2.67c-33.09-9.94-61.36-18.44-68.72-20.65h68.72v-2.54h-77.43s-199.36-59.92-199.36-59.92h178.47c1.43.37,47.67,12.42,98.32,25.61v-2.52c-42.9-11.17-80.86-21.06-88.65-23.09h88.65v-2.42l-98.24-.02c-19.35-5.04-211.13-54.99-230.48-60.03h145.78c4.1.94,105.3,24.2,182.94,42.04v-2.38c-64.4-14.8-144.77-33.27-172.58-39.66h144.62l27.96,5.75v-2.37c-8.31-1.71-14.07-2.89-16.43-3.38h16.43v-2.32h-28s-292.53-60.15-292.53-60.15h112.1l208.42,38.77v-2.24c-85.79-15.96-185.06-34.43-196.4-36.54h110.92c.64.09,36.62,6.21,85.48,14.5v-2.23c-38.67-6.57-67.08-11.39-72.26-12.27h72.26v-2.2h-85.56c-7.16-1.21-327.64-55.65-354.79-60.26h78.58c1.69.25,276.68,43.22,361.77,56.52v-2.1c-93.83-14.66-332.19-51.91-348.22-54.41h77.54c1.3.18,150.98,21.83,270.68,39.15v-2.1c-108.55-15.7-235.72-34.1-256.09-37.05h76.49c1.2.15,84.88,11.43,179.6,24.18v-2.1c-80.31-10.82-149.91-20.19-163.95-22.08h75.44c.38.04,36.35,4.57,88.52,11.15v-2.1c-31.36-3.95-56.7-7.14-71.82-9.05h71.82v-2.42c-69.15-6.88-154.59-20.02-210.67-60.39h75.49c37.27,26.04,86.32,40.94,135.18,50.17v-1.89c-49.28-8.81-96.3-23.64-132.58-48.28h74.96c17.22,11.26,36.79,20.43,57.62,27.97v-1.72c-19.74-7.21-38.22-15.85-54.74-26.26h54.74v-1.75h-57.46c-25.22-16.48-43.77-37.08-57.17-60.65h73.18c10.58,18,23.58,33.45,41.45,47.71v-1.95c-16.01-12.93-29.36-27.83-40.01-45.76h40.01v-1.5h-40.91c-10.91-18.77-18.36-39.49-23.35-60.9h64.26v-1.25h-64.54c-4.59-20.14-7.03-40.87-8.1-61.15h72.17c.14,2.47.3,4.86.47,7.21V0H0v886.16c.18-2.54.34-5.08.47-7.61ZM42.39,1001.85c10.76-18.82,18.14-39.5,23.06-60.9h72.51c-4.61,22.02-12.03,42.47-22.41,60.9H42.39ZM2808.02,1001.85h-73.17c-9-17.97-15.57-38.19-20.03-60.9h72.44c4.46,23.12,11.46,43.28,20.76,60.9ZM2788.4,940.95h72.46c4.52,21.99,11.84,42.43,22.09,60.9h-73.23c-9.48-17.81-16.53-38-21.32-60.9ZM2657.94,1188.84l-112.43-.02c-1.46-.33-261.15-60.01-262.24-60.26h81.79l293.08,60.26h-.3l.1.02ZM2536.04,1188.84l-113.51-.02c-9.21-2.4-190.99-49.74-231.39-60.26h82.83c1.38.32,261.22,60.03,262.23,60.26h-.28l.11.03ZM2653.3,1251.2l-146.08-.03-200.14-60.14h115.4c1.38.36,198.76,51.77,230.93,60.14h-.24l.13.03ZM2706.78,1313.55l-178.75-.05c-3.63-1.29-152.24-54.07-169.02-60.03h148.06c19.15,5.76,180.59,54.27,199.75,60.03h-.2l.16.05ZM2696.46,1375.91c-20,0-191.34-.05-211.34-.06h0s-.15,0-.15,0c-18.34-7.97-119.66-51.94-138.01-59.91h180.83l168.68,59.91h-.18l.17.06ZM340.74,1003.35h73.62c-11.17,25.08-26.73,44.89-45.54,60.65h-75.29c20.59-16.79,35.98-36.95,47.21-60.65ZM290.93,1063.99h-75.28c21.63-16.55,38.12-36.59,50.25-60.65h73.42c-11.84,24.47-27.93,44.44-48.39,60.65ZM415.58,1003.35h73.53c-10.15,24.34-24.28,44.36-42.29,60.65h-75.53c19.06-16.54,33.61-36.55,44.29-60.65ZM490.44,1003.35h73.51c-9.23,23.77-22.19,43.98-39.2,60.65h-75.52c18.43-17.24,31.7-37.62,41.21-60.65ZM565.27,1003.35h73.51c-8.3,23.25-20.05,43.62-36.04,60.65h-75.64c17.2-17.42,29.44-37.92,38.16-60.65ZM2317.14,1063.99h-75.95c-13.8-17.48-23.17-39.31-29.55-60.65h73.3c7.24,22.57,17.63,43.14,32.2,60.65ZM2286.51,1003.35h73.35c7.86,22.72,17.94,41.97,35.22,60.65h-75.99c-14.9-17.15-25.47-39.07-32.58-60.65ZM2414.15,1188.85l-114.6-.03c-19.15-5.76-196.84-59.15-200.53-60.26h83.86c6.5,1.69,190.24,49.54,231.38,60.26h-.24l.13.03ZM2499.52,1251.21l-147.21-.04c-18.85-6.69-150.5-53.45-169.35-60.14h116.47l200.13,60.14h-.2l.15.05ZM2521.09,1313.56c-20,0-159.9-.05-179.9-.06-18.35-7.96-119.94-52.06-138.29-60.03h149.18c2.59.92,167.01,59.31,169.02,60.03h-.18l.17.06ZM837.39,1065.74h76.03c-22.4,35.22-54.16,51.6-95.38,60.4h-80.95c40.55-8.94,76.59-25.96,100.29-60.4ZM727.15,1126.14h-79.89c44.67-8.86,84.16-25.06,112.27-60.4h75.73c-26.36,36.58-63.27,51.89-108.11,60.4ZM2292.26,1188.86l-115.67-.04c-6.62-2.35-164.97-58.59-169.68-60.26h84.88c3.62,1.09,181.37,54.5,200.53,60.26h-.21l.15.04ZM2345.71,1251.22c-20,0-128.31-.05-148.31-.06l-138.56-60.14h117.53c18.85,6.69,150.5,53.45,169.34,60.14h-.18l.17.06ZM2335.34,1313.56c-20,0-160.86-.05-180.86-.06h0s-.12,0-.12,0c-17.46-9.75-90.09-50.28-107.56-60.03h150.27c18.35,7.96,119.94,52.06,138.29,60.03h-.15l.14.06ZM2170.35,1188.88c-20,0-96.71-.05-116.71-.06-18.35-7.96-120.48-52.3-138.83-60.26h85.88c3.84,1.36,158.56,56.31,169.67,60.26h-.18s.16.06.16.06ZM2191.87,1251.22c-20,0-129.22-.05-149.22-.06h0s-.12,0-.12,0c-2.28-1.27-95.44-53.26-107.76-60.14h118.56l138.55,60.14h-.15l.14.06ZM1963.81,1313.51h-182.93c-11.52-15.01-34.57-45.02-46.09-60.03h152.2c15.76,12.31,75.79,59.22,76.82,60.03ZM1810.72,1191.02h119.53c2.24,1.25,95.95,53.55,107.76,60.14h-150.32l-76.97-60.14ZM1825.75,1375.85h-215.4c-3.83-14.98-11.5-44.93-15.33-59.91h184.73c4.38,5.7,38.1,49.62,46,59.91ZM1777.95,1313.51h-183.62c-3.84-15.01-11.52-45.02-15.37-60.03h152.89c11.52,15.01,34.57,45.02,46.09,60.03ZM1607.84,1375.85h-215.67c3.83-14.98,11.5-44.93,15.33-59.91h185c3.83,14.98,11.5,44.93,15.33,59.91ZM1389.65,1375.85h-215.4c11.5-14.98,34.5-44.93,46-59.91h184.73c-3.83,14.98-11.5,44.93-15.33,59.91ZM1405.67,1313.51h-183.62c11.52-15.01,34.57-45.02,46.09-60.03h152.89c-3.84,15.01-11.52,45.02-15.36,60.03ZM1219.12,1313.51h-182.93c15.76-12.31,61.06-47.71,76.82-60.03h152.2c-11.52,15.01-34.57,45.02-46.09,60.03ZM1112.31,1251.16h-150.32c17.46-9.75,90.3-50.4,107.76-60.14h119.53c-15.76,12.31-61.21,47.83-76.97,60.14ZM957.47,1251.16h-149.35l138.55-60.14h118.56c-17.46,9.75-90.3,50.4-107.76,60.14ZM957.95,1253.48h151.29c-15.76,12.31-61.06,47.71-76.82,60.03h-182.02c17.46-9.75,90.09-50.28,107.55-60.03ZM1033.17,1315.94h184.01c-11.5,14.98-34.5,44.93-46,59.91h-214.68c15.76-12.31,60.91-47.59,76.67-59.91ZM1172.36,1378.41h216.57l-15.3,59.79h-247.18c8.02-10.45,41.5-54.05,45.91-59.79ZM1391.57,1378.41h216.86c3.83,14.95,11.48,44.84,15.3,59.79h-247.47l15.3-59.79ZM1611.07,1378.41h216.57c3.84,5,44.83,58.38,45.91,59.79h-247.18c-3.83-14.95-11.48-44.84-15.3-59.79ZM1782.82,1315.94h184.01c.43.34,65.09,50.86,76.67,59.91h-214.68c-4.55-5.93-38.2-49.75-46-59.91ZM1890.75,1253.48h151.29c17.46,9.75,90.09,50.28,107.56,60.03h-182.02c-2.6-2.03-67.34-52.61-76.82-60.03ZM2048.41,1188.82h-.15s.14.06.14.06c-20,0-97.57-.04-117.57-.06h0s-.12,0-.12,0c-17.46-9.75-90.51-50.51-107.97-60.26h86.85c18.35,7.96,120.48,52.29,138.82,60.26ZM1926.43,1188.82h-118.63c-15.76-12.31-61.36-47.94-77.12-60.26h87.77c17.46,9.75,90.51,50.51,107.97,60.26ZM1884.11,1251.16h-151.19c-10.5-13.68-45.2-58.87-46.18-60.14h120.4l76.97,60.14ZM1730.15,1251.16h-151.84c-1.87-7.32-13.13-51.32-15.39-60.14h121.05c.34.44,44.14,57.49,46.18,60.14ZM1591.94,1313.51h-183.88c3.84-15.01,11.52-45.02,15.36-60.03h153.15c3.84,15.01,11.52,45.02,15.37,60.03ZM1421.69,1251.16h-151.84c11.55-15.04,34.64-45.11,46.18-60.14h121.05c-3.85,15.04-11.55,45.11-15.39,60.14ZM1267.07,1251.16h-151.19c15.76-12.31,61.21-47.83,76.97-60.14h120.4c-11.55,15.04-34.64,45.11-46.18,60.14ZM1192.19,1188.82h-118.62c17.46-9.75,90.51-50.51,107.97-60.26h87.77c-15.76,12.31-61.36,47.94-77.12,60.26ZM1069.3,1188.82h-117.7c18.35-7.96,120.48-52.29,138.82-60.26h86.85c-17.46,9.75-90.51,50.51-107.97,60.26ZM946.37,1188.82h-116.73c12.3-4.37,166.23-59.04,169.67-60.26h85.88l-138.82,60.26ZM823.41,1188.82h-115.73c19.15-5.76,181.37-54.5,200.52-60.26h84.88c-6.59,2.34-163.51,58.07-169.67,60.26ZM823.62,1191.02h117.53l-138.55,60.14h-148.32c18.85-6.69,165.75-58.87,169.35-60.14ZM802.93,1253.48h150.26c-17.46,9.75-90.09,50.28-107.55,60.03h-181c18.35-7.96,119.94-52.06,138.29-60.03ZM846.15,1315.94h183.05c-15.76,12.31-60.91,47.59-76.67,59.91h-213.72c17.46-9.75,89.88-50.16,107.34-59.91ZM953.32,1378.41h215.82c-7.4,9.63-45.62,59.41-45.91,59.79h-246.43c15.76-12.31,60.76-47.48,76.52-59.79ZM1124.47,1440.88h248.41c-3.82,14.92-11.45,44.75-15.27,59.67h-278.96c11.46-14.92,34.37-44.75,45.82-59.67ZM1375.64,1440.88h248.71c.83,3.25,13.88,54.21,15.27,59.67h-279.26c3.82-14.92,11.45-44.75,15.27-59.67ZM1627.12,1440.88h248.41l45.82,59.67h-278.96c-1.99-7.78-12.88-50.31-15.27-59.67ZM1830.86,1378.41h215.82c15.76,12.31,60.76,47.47,76.52,59.79h-246.43c-1.61-2.1-40.78-53.11-45.91-59.79ZM1970.79,1315.94h183.05c.63.35,90.8,50.68,107.34,59.91h-213.72c-2.81-2.2-69.7-54.46-76.67-59.91ZM2091.06,1126.14c-41.15-10.23-65.53-29.49-82.59-60.4h75.99c20.95,33.45,50.41,50.8,88.69,60.4h-82.09ZM2083.42,1126.14h-83.25c-32.33-9.63-54.15-27.03-69.88-60.4h76.22c17.32,32.12,41.44,50.1,76.9,60.4ZM1993.64,1126.14h-84.34c-29.01-10.67-45.81-30.64-57.14-60.4h76.23c15.04,32.83,36.32,50.48,65.26,60.4ZM1903.85,1126.14h-85.43c-24.73-11.38-36.46-34.52-44.2-60.4h76.08c12.69,34.09,31.26,51.07,53.55,60.4ZM1813.92,1126.14h-86.32c-17.39-11.55-26.45-35.39-31.69-60.4h76.39c7.51,25.4,18.84,48.17,41.63,60.4ZM1804.42,1188.82h-119.44c-1.2-1.56-40.95-53.32-46.27-60.26h88.6c15.76,12.31,61.36,47.94,77.12,60.26ZM1682.36,1188.82h-120.06l-15.42-60.26h89.21c1.14,1.48,43.5,56.64,46.27,60.26ZM1576.04,1251.16h-152.08c3.85-15.04,11.55-45.11,15.39-60.14h121.3c1.82,7.12,13.1,51.16,15.39,60.14ZM1437.7,1188.82h-120.06c11.57-15.06,34.7-45.19,46.27-60.26h89.21c-3.86,15.06-11.57,45.19-15.42,60.26ZM1315.02,1188.82h-119.45c15.76-12.31,61.36-47.94,77.12-60.26h88.6c-11.57,15.06-34.7,45.19-46.27,60.26ZM1272.4,1126.14h-86.32c23-12.34,34.05-34.89,41.5-60.4h76.31c-4.67,22.59-12.51,47.77-31.49,60.4ZM1181.57,1126.14h-85.43c22.3-9.34,40.86-26.31,53.55-60.4h76.29c-7.74,26.05-20.31,49.31-44.41,60.4ZM1090.71,1126.14h-84.34c28.61-9.81,49.68-26.68,65.23-60.4h76.23c-13.81,35.64-33.09,51.56-57.11,60.4ZM999.83,1126.14h-83.25c35.54-10.32,59.62-28.34,76.9-60.4h76.27c-15.71,33.29-37.9,50.86-69.93,60.4ZM908.94,1126.14h-82.09c37.62-9.44,69.02-27.49,88.66-60.4h76.07c-18.65,33.7-45.25,51.11-82.63,60.4ZM900.98,1128.56l-200.53,60.26h-114.71c19.35-5.04,212.02-55.22,231.37-60.26h83.86ZM700.57,1191.02h116.47c-15.25,5.41-150.5,53.45-169.34,60.14h-147.27l200.14-60.14ZM647.92,1253.48h149.18l-138.29,60.03h-179.92c18.49-6.57,167.23-59.39,169.02-60.03ZM659.17,1315.94h181.97c-17.46,9.75-89.88,50.16-107.34,59.91h-212.64l138.01-59.91ZM734.35,1378.41h214.81c-15.76,12.31-60.76,47.48-76.52,59.79h-245.42c14.45-8.07,105.67-58.97,107.13-59.79ZM873.47,1440.88h247.63c-11.46,14.92-34.37,44.75-45.82,59.67h-278.17c14.2-11.1,70.75-55.28,76.37-59.67ZM1073.05,1503.34c-7.6,9.9-45.41,59.13-45.73,59.55h-309.92c14.4-11.25,70.52-55.1,76.21-59.55h279.43ZM1076.58,1503.34h280.25c-3.81,14.89-11.43,44.66-15.24,59.55h-310.74c2.43-3.17,42.86-55.81,45.73-59.55ZM1359.72,1503.34h280.57c3.81,14.89,11.43,44.66,15.24,59.55h-311.05c3.81-14.89,11.43-44.66,15.24-59.55ZM1643.17,1503.34h280.25c4.5,5.87,37.47,48.8,45.73,59.55h-310.74c-3.81-14.89-11.43-44.66-15.24-59.55ZM1926.95,1503.34h279.43c3.77,2.94,72.65,56.76,76.22,59.55h-309.92c-.17-.23-37.87-49.32-45.73-59.55ZM1924.73,1500.54l-45.82-59.67h247.63c.98.76,73.61,57.51,76.37,59.67h-278.17ZM2050.84,1378.41h214.81c6.13,3.42,87.06,48.59,107.13,59.79h-245.42c-15.76-12.31-60.76-47.48-76.52-59.79ZM2158.85,1315.94h181.97c18.35,7.96,119.66,51.94,138.01,59.91h-212.64c-.88-.49-90.87-50.72-107.34-59.91ZM2181.95,1126.14c-39.37-8.4-74.37-25.75-95.51-60.4h76c24.47,34.32,58.8,51.21,100.46,60.4h-80.95ZM2164.81,1065.74h75.81c28.13,35.58,67.11,51.47,112.13,60.4h-79.89c-45.12-8.57-81.66-23.74-108.05-60.4ZM2239.26,1063.99h-75.71c-12.47-17.88-20.97-38.58-26.85-60.65h73.43c6.52,23.56,16.18,43.74,29.13,60.65ZM2161.19,1063.99h-75.78c-11.01-18.55-18.45-39.13-23.55-60.65h73.48c5.36,20.83,13.64,42.94,25.85,60.65ZM2083.4,1063.99h-75.88c-9.97-18.63-16.25-39.7-20.41-60.65h73.37c4.78,21.14,11.68,42.12,22.93,60.65ZM2005.6,1063.99h-76.11c-8.85-19.4-13.54-39.63-17.13-60.65h73.26c4.06,20.93,10.21,41.96,19.98,60.65ZM1927.59,1063.99h-76.1c-6.97-18.92-11.18-40.78-13.95-60.65h73.29c3.36,20.53,8.33,41.63,16.76,60.65ZM1849.66,1063.99h-75.92c-5.3-18.26-8.83-39.14-11.22-60.65h73.52c2.7,19.96,6.77,41.63,13.62,60.65ZM1771.79,1063.99h-76.25c-3.58-17.72-6.38-43.98-7.67-60.65h73.23c2.05,20.55,5.24,41.6,10.69,60.65ZM1724.15,1126.14h-87.31c-11.99-13.62-16.72-42.24-18.83-60.4h76.09c4.98,24.48,13.58,47.95,30.05,60.4ZM1634.25,1126.14h-88c-4.85-19.57-5.17-40.27-6.32-60.4h76.13c2.92,24.13,8.1,47.68,18.19,60.4ZM1560.15,1188.82h-120.29c3.86-15.06,11.57-45.19,15.42-60.26h89.45c3.86,15.06,11.57,45.19,15.42,60.26ZM1453.75,1126.14h-88.01c11.45-14.14,16.01-42.32,18.04-60.4h76.29c-1.15,20.13-1.47,40.83-6.32,60.4ZM1363.16,1126.14h-87.31c16.46-12.45,25.06-35.92,30.05-60.4h76.25c-3.08,24.49-8.49,48.28-18.99,60.4ZM1304.26,1063.99h-76.19c5.19-18.32,8.62-39.18,10.91-60.65h73.23c-1.56,20.37-3.92,40.65-7.96,60.65ZM1226.48,1063.99h-76.14c6.85-19.03,10.92-40.69,13.62-60.65h73.31c-2.01,18.71-5.6,42.56-10.79,60.65ZM1148.47,1063.99h-76.08c8.69-19.46,13.25-39.63,16.75-60.65h73.42c-2.77,20.61-6.99,41.72-14.09,60.65ZM1070.55,1063.99h-76.16c9.77-18.69,15.93-39.72,19.98-60.65h73.34c-3.45,20.96-8.63,41.95-17.17,60.65ZM992.52,1063.99h-75.99c10.82-18.63,18.11-39.19,23.09-60.65h73.26c-4.22,21.25-10.48,42.19-20.37,60.65ZM914.52,1063.99h-75.95c12.25-18.32,20.55-38.95,26.23-60.65h73.28c-5.03,21.71-12.39,42.51-23.56,60.65ZM836.51,1063.99h-75.59c13.4-17.43,22.74-39.55,28.93-60.65h73.42c-5.89,22.31-14.38,42.91-26.76,60.65ZM758.56,1063.99h-75.66c14.66-17.69,24.87-38.38,32.06-60.65h73.44c-6.64,22.55-16.12,43.07-29.84,60.65ZM680.64,1063.99h-75.65c15.96-17.58,27.19-38.17,35.13-60.65h73.41c-7.51,23.04-18.04,43.41-32.89,60.65ZM603.37,1065.74h75.7c-34.19,38.44-82.89,52.52-133.73,60.4h-77.76c49.78-8.18,101.3-23.59,135.79-60.4ZM681.41,1065.74h75.81c-30.29,37.61-73.19,52.26-120.98,60.4h-78.82c46.77-8.41,93.12-24.28,123.99-60.4ZM716.73,1128.56c-1.08.25-260.53,59.87-262.23,60.26h-112.65c3.22-.66,273.49-56.23,293.08-60.26h81.8ZM726.03,1128.56h82.83l-231.38,60.26h-113.69c1.01-.23,261.06-59.99,262.23-60.26ZM577.53,1191.02h115.39l-200.14,60.14h-146.19c19.35-5.04,211.58-55.1,230.93-60.14ZM492.92,1253.48h148.06c-15.95,5.66-165.15,58.65-169.02,60.03h-178.8c19.15-5.76,180.59-54.27,199.75-60.03ZM472.22,1315.94h180.84l-138.01,59.91h-211.51l168.68-59.91ZM515.42,1378.41h213.68c-9,5.02-103.9,57.98-107.13,59.79h-244.29c26.03-11.3,137.71-59.78,137.74-59.79ZM622.55,1440.88h246.57c-6.18,4.83-73.02,57.05-76.37,59.67h-277.12c17.46-9.75,89.45-49.92,106.92-59.67ZM789.08,1503.34c-2.11,1.65-71.44,55.82-76.21,59.55h-308.82c17.46-9.75,89.24-49.8,106.7-59.55h278.33ZM713.77,1565.8h311.24c-3.62,4.72-43.02,56.03-45.65,59.45h-341.67c15.76-12.31,60.32-47.13,76.08-59.45ZM1028.69,1565.8h312.09c-3.8,14.86-11.41,44.58-15.22,59.45h-342.53c4.19-5.46,43.36-56.46,45.65-59.45ZM1343.79,1565.8h312.42c3.8,14.86,11.41,44.58,15.22,59.45h-342.85c3.8-14.86,11.41-44.58,15.22-59.45ZM1659.22,1565.8h312.09c4.55,5.93,37.31,48.59,45.65,59.45h-342.53c-3.8-14.86-11.41-44.58-15.22-59.45ZM1974.99,1565.8h311.24c15.76,12.31,60.32,47.13,76.08,59.45h-341.67c-4.66-6.07-37.38-48.67-45.65-59.45ZM2210.92,1503.34h278.33l106.7,59.55h-308.82c-6.07-4.74-62.04-48.47-76.21-59.55ZM2207.25,1500.54c-5.98-4.67-62.39-48.75-76.37-59.67h246.57c.22.13,87.25,48.7,106.91,59.67h-277.12ZM2270.9,1378.41h213.68c6.43,2.79,111.59,48.44,137.74,59.79h-244.29c-2.72-1.52-100.26-55.95-107.13-59.79ZM2363.76,1126.14c-47.33-8.06-90.79-23.22-121.16-60.4h76.04c31.02,36.11,76.86,51.93,123.95,60.4h-78.83ZM2320.58,1065.74h76.18c35.26,36.97,85.02,52.08,135.66,60.4h-77.76c-49.97-7.75-99.99-22.49-134.08-60.4ZM2361.34,1003.35h73.39c9.01,23.73,19.81,42.39,38.2,60.65h-75.71c-16.32-17.49-27.78-38.1-35.88-60.65ZM2436.21,1003.35h73.34c9.73,23.8,21.95,42.97,41.19,60.65h-75.56c-17.57-17.34-30.07-37.85-38.97-60.65ZM2511.04,1003.35h73.09c10.93,24.96,26.19,44.77,44.65,60.65h-75.65c-18.84-17.15-32.39-37.54-42.09-60.65ZM2585.91,1003.35h73.09c11.64,24.78,27.93,44.68,47.66,60.65h-75.51c-19.49-16.44-34.34-36.45-45.24-60.65ZM2660.77,1003.35h73.07c12.46,25.05,29.91,44.87,50.7,60.65h-75.54c-21.06-16.7-36.78-36.86-48.23-60.65ZM2733.11,1001.85h-73.06c-8.56-18.18-14.66-38.45-18.8-60.9h72.47c3.95,20.69,10.27,42.1,19.39,60.9ZM2658.28,1001.85h-73.03c-7.9-17.94-13.69-38.15-17.61-60.9h72.52c4.58,25.46,11.3,46.03,18.12,60.9ZM2583.51,1001.85h-73.09c-7.65-18.64-12.84-39.03-16.32-60.9h72.46c3.37,20.01,8.97,42.24,16.95,60.9ZM2508.97,1001.85h-73.34c-7.22-18.92-12-39.39-15.16-60.9h72.47c3.23,20.86,8.21,41.37,16.03,60.9ZM2434.15,1001.85h-73.34c-6.73-19.17-11.07-39.71-13.92-60.9h72.42c2.96,20.78,7.54,41.26,14.84,60.9ZM2359.36,1001.85h-73.36c-6.33-19.66-10.19-40.17-12.68-60.9h72.41c2.72,20.69,6.94,41.13,13.63,60.9ZM2284.47,1001.85h-73.28c-5.78-19.77-9.26-40.25-11.48-60.9h72.46c2.47,20.31,6.18,41.37,12.3,60.9ZM2209.73,1001.85h-73.43c-5.1-19.58-8.17-40.21-10.16-60.9h72.43c2.23,20.55,5.58,40.98,11.16,60.9ZM2134.97,1001.85h-73.46c-4.59-19.82-7.26-40.4-8.95-60.9h72.41c1.97,20.33,5.01,41.09,10,60.9ZM2060.16,1001.85h-73.34c-3.06-15.79-5.88-35.95-7.81-60.9h72.37c1.73,20.09,4.44,41.21,8.79,60.9ZM1985.34,1001.85h-73.22c-3.38-20.15-5.43-40.49-6.75-60.9h72.41c1.85,25.1,4.6,45.19,7.57,60.9ZM1910.59,1001.85h-73.26c-2.76-20.2-4.46-40.53-5.55-60.9h72.39c1.64,26.29,3.91,45.24,6.42,60.9ZM1835.84,1001.85h-73.48c-2.21-20.37-3.42-41.23-4.16-60.9h72.34c1.01,20.36,2.62,40.69,5.3,60.9ZM1760.95,1001.85h-73.19c-1.54-20.27-2.52-40.58-3.15-60.9h72.37c.49,12.7,2.13,42.01,3.97,60.9ZM1693.75,1063.99h-75.94c-2.3-20.16-3.82-40.39-4.85-60.65h73.39c1.16,15.87,3.84,42.55,7.39,60.65ZM1615.86,1063.99h-75.99c-.79-20.21-1.31-40.43-1.68-60.65h73.31c.51,11.94,2.32,43.14,4.36,60.65ZM1544.19,1126.14h-88.38c4.82-19.74,4.93-40.22,6.03-60.4h76.31c1.11,20.18,1.22,40.66,6.04,60.4ZM1460.14,1063.99h-76.18c2.21-20.17,3.65-40.39,4.59-60.65h73.26c-.37,20.22-.89,40.44-1.68,60.65ZM1382.37,1063.99h-76.12c3.48-17.72,6.18-44.04,7.39-60.65h73.35c-.56,11.99-2.5,43.15-4.62,60.65ZM1312.33,1001.85h-73.19c2.12-20.38,3.25-41.24,3.92-60.9h72.32c-.44,14.07-1.63,41.97-3.04,60.9ZM1237.43,1001.85h-73.27c2.68-20.21,4.29-40.54,5.3-60.9h72.33c-.86,20.34-2.22,40.66-4.35,60.9ZM1162.76,1001.85h-73.39c3.29-20.15,5.27-40.5,6.51-60.9h72.29c-.87,16.26-3.08,43.03-5.42,60.9ZM1087.97,1001.85h-73.31c2.98-15.74,5.72-35.84,7.57-60.9h72.33c-1.23,18.52-3.64,42.58-6.59,60.9ZM1013.18,1001.85h-73.2c4.5-19.84,7.08-40.41,8.69-60.9h72.34c-1.53,19.53-4.09,41.67-7.82,60.9ZM938.42,1001.85h-73.24c5.06-19.76,8.02-40.36,9.88-60.9h72.34c-1.82,20.31-4.49,41.09-8.98,60.9ZM863.65,1001.85h-73.37c5.68-19.79,9.07-40.26,11.23-60.9h72.3c-2.08,20.61-5,40.94-10.16,60.9ZM788.85,1001.85h-73.41c6.13-19.43,9.98-40.04,12.47-60.9h72.32c-2.38,21.36-5.89,41.84-11.38,60.9ZM714.01,1001.85h-73.36c6.63-19.19,10.89-39.73,13.67-60.9h72.34c-2.7,21.89-6.71,42.25-12.65,60.9ZM639.31,1001.85h-73.47c7.11-18.94,11.8-39.4,14.89-60.9h72.29c-2.75,20.22-6.99,41.63-13.71,60.9ZM564.54,1001.85h-73.48c7.54-18.67,12.64-39.05,16.04-60.9h72.31c-3.01,20.39-7.56,41.62-14.87,60.9ZM489.72,1001.85h-73.49c7.8-17.98,13.49-38.19,17.33-60.9h72.27c-3.24,20.23-8.38,41.92-16.11,60.9ZM415.02,1001.85h-73.57c8.44-18.21,14.45-38.48,18.5-60.9h72.3c-3.43,19.96-9.15,42.32-17.22,60.9ZM340.03,1001.85h-73.36c8.87-18,15.34-38.23,19.72-60.9h72.35c-4.03,22.87-10.26,43.06-18.7,60.9ZM265.27,1001.85h-73.49c9.35-17.85,16.31-38.04,21.01-60.9h72.35c-4.32,23.06-10.98,43.23-19.87,60.9ZM190.48,1001.85h-73.51c10.26-18.7,17.39-39.19,22.15-60.9h72.44c-4.55,23.16-11.66,43.32-21.08,60.9ZM134.98,1063.99H60.23c24.63-16.61,42.79-37.19,55.92-60.65h73.54c-13.75,25.11-32.25,44.9-54.71,60.65ZM137.7,1063.99c22.61-16.31,40.25-36.26,53.31-60.65h73.48c-12.8,24.86-30.08,44.71-51.55,60.65h-75.24ZM18.57,1126.14c65.19-7.46,142.31-21.55,194.74-60.4h75.35c-52.23,40.05-131.76,53.36-197.85,60.4H18.57ZM108.36,1126.14c61.82-7.52,134.12-21.8,182.98-60.4h75.3c-49.47,40.1-121.03,53.08-184.93,60.4h-73.36ZM198.07,1126.14c59.16-7.7,125.26-21.8,171.18-60.4h75.59c-45.11,39.53-111.78,52.95-172.23,60.4h-74.55ZM287.92,1126.14c56.43-7.88,117.82-22.71,159.41-60.4h75.61c-41.42,39.32-102.47,52.79-159.4,60.4h-75.61ZM377.73,1126.14c53.43-8.08,109.51-22.99,147.61-60.4h75.72c-37.46,38.66-93.17,52.68-146.63,60.4h-76.7ZM97.9,1188.83c28.12-4.78,351.7-59.74,354.86-60.27h79.71l-323.93,60.26c-20,0-90.64.01-110.64.01ZM219.92,1188.82l323.93-60.26h80.75c-19.59,4.03-288.86,59.39-293.08,60.26h-111.6ZM38.94,1251.16c19.59-4.03,272.93-56.11,292.52-60.14h113.2c-2.85.65-251.82,57.87-261.72,60.14H38.94ZM192.77,1251.16c.79-.18,260.51-59.86,261.72-60.14h114.31c-19.35,5.04-211.57,55.1-230.93,60.14h-145.1ZM107.45,1313.51c19.35-5.04,211.13-54.98,230.48-60.03h146.93l-199.75,60.03H107.45ZM85.91,1375.85c19.15-5.76,180.2-54.15,199.36-59.91h179.66l-168.68,59.91H85.91ZM128.16,1438.2c4.95-1.76,166.28-59.05,168.35-59.79h212.49c-25.78,11.19-130.18,56.51-137.74,59.79h-243.1ZM371.66,1440.88h245.39c-17.46,9.75-89.45,49.92-106.92,59.67H234.2c1.2-.52,133.83-58.09,137.46-59.67ZM90.72,1562.89c26.95-11.7,130.52-56.65,137.19-59.55h277.1c-17.46,9.75-89.24,49.8-106.7,59.55H90.72ZM398.94,1565.8h310.09c-15.76,12.31-60.32,47.13-76.08,59.45h-340.52c17.46-9.75,89.05-49.7,106.51-59.45ZM180.71,1687.65c17.46-9.75,88.97-49.65,106.43-59.4h341.91c-.73.57-70.48,55.07-76.02,59.4H180.71ZM557.9,1687.65c14.64-11.44,70.19-54.85,76.02-59.4h343.09c-.13.17-44.62,58.1-45.61,59.4h-373.49ZM935.18,1687.65c8.36-10.89,41.02-53.42,45.61-59.4h343.96c-3.8,14.85-11.4,44.55-15.2,59.4h-374.37ZM1312.65,1687.65c3.8-14.85,11.4-44.55,15.2-59.4h344.3c1.49,5.81,14.54,56.82,15.2,59.4h-374.71ZM1690.45,1687.65c-2.02-7.9-12.72-49.67-15.21-59.4h343.96c2.27,2.96,41.34,53.84,45.61,59.4h-374.37ZM2068.61,1687.65c-4.59-5.98-37.25-48.51-45.61-59.4h343.08c.99.78,63.92,49.95,76.02,59.4h-373.49ZM2819.29,1687.65h-372.32c-2.87-2.24-74.62-58.3-76.02-59.4h341.91c17.46,9.75,88.96,49.65,106.43,59.4ZM2707.57,1625.25h-340.53c-15.76-12.31-60.32-47.13-76.08-59.45h310.09c5.25,2.93,103.39,57.7,106.51,59.45ZM2909.28,1562.89h-307.58l-106.7-59.55h277.1c18.35,7.96,131.86,57.24,137.19,59.55ZM2765.8,1500.54h-275.94c-.14-.08-87.2-48.66-106.91-59.67h245.39c3.63,1.58,134.72,58.48,137.46,59.67ZM2871.84,1438.2h-.19l.16.06c-20,0-222.92-.05-242.92-.06h0s-.15,0-.15,0c-7.56-3.28-111.96-48.6-137.74-59.79h212.48c5.96,2.12,165.61,58.81,168.35,59.79ZM2914.09,1375.85h-.2l.17.05-210.3-.05-168.69-59.91h179.66l199.35,59.91ZM2892.55,1313.51h-.24l.14.04-177.56-.04c-19.15-5.76-180.6-54.27-199.75-60.03h146.93c19.35,5.04,211.12,54.98,230.48,60.03ZM2807.07,1251.19l-144.94-.03c-2.26-.59-199.34-51.92-230.93-60.14h114.31c.77.18,221.86,50.98,261.72,60.14h-.28l.12.03ZM2961.06,1251.16h-.3l.11.02-143.8-.02c-9.77-2.25-258.55-59.41-261.73-60.14h113.2l292.52,60.14ZM2668.49,1188.82l-293.1-60.26,80.66-.02,324.12,60.29h-111.69ZM2902.02,1188.82h-110.34v.02h-.13l-324.04-60.28h79.63c1.93.31,327.49,55.61,354.87,60.26ZM2545.56,1126.14c-52.94-7.64-109.44-21.72-146.7-60.4h75.87c39.04,37.6,93.53,52.24,147.53,60.4h-76.7ZM2636.47,1126.14c-56.61-7.57-118.36-21.09-159.5-60.4h75.72c42.58,37.93,102.59,52.47,159.4,60.4h-75.61ZM2727.38,1126.14c-59.83-7.38-127.42-20.83-172.31-60.4h75.75c46.17,38.5,111.48,52.64,171.1,60.4h-74.55ZM2818.29,1126.14c-63.4-7.26-135.83-20.23-185.02-60.4h75.58c49.39,38.76,120.48,52.81,182.8,60.4h-73.36ZM2981.43,1126.14h-72.23c-65.74-7-145.81-20.35-197.98-60.4h75.62c52.93,38.95,128.62,52.85,194.59,60.4ZM2786.96,1063.99c-22.13-16.45-38.98-36.49-51.35-60.65h73.19c13.47,24.98,31.59,44.79,53.6,60.65h-75.44ZM2939.77,1063.99h-74.81c-23.13-16.22-41.15-36.15-54.47-60.65h73.28c13.57,23.95,32.14,44.48,56,60.65ZM2957.65,1001.85h-73.12c-10.4-18.67-17.63-39.16-22.47-60.9h72.47c4.68,21.23,12.27,42.04,23.11,60.9ZM2927.33.5h72.17v72.17h-72.17V.5ZM2927.33,73.67h72.17v72.17h-72.17v-72.17ZM2927.33,146.84h72.17v72.17h-72.17v-72.17ZM2927.33,220.01h72.17v72.17h-72.17v-72.17ZM2927.33,293.18h72.17v72.17h-72.17v-72.17ZM2927.33,366.35h72.17v72.17h-72.17v-72.17ZM2927.33,439.52h72.17v72.17h-72.17v-72.17ZM2927.33,512.7h72.17v72.17h-72.17v-72.17ZM2927.33,585.87h72.17v72.17h-72.17v-72.17ZM2927.33,659.04h72.17v72.17h-72.17v-72.17ZM2927.33,732.21h72.17v72.17h-72.17v-72.17ZM2927.33,805.38h72.17v72.17h-72.17v-72.17ZM2934.26,939.7h-72.47c-4.26-19.53-6.62-40.05-7.61-61.15h72.17c1.36,25.41,4.11,43.52,7.9,61.15ZM2854.16.5h72.17v72.17h-72.17V.5ZM2854.16,73.67h72.17v72.17h-72.17v-72.17ZM2854.16,146.84h72.17v72.17h-72.17v-72.17ZM2854.16,220.01h72.17v72.17h-72.17v-72.17ZM2854.16,293.18h72.17v72.17h-72.17v-72.17ZM2854.16,366.35h72.17v72.17h-72.17v-72.17ZM2854.16,439.52h72.17v72.17h-72.17v-72.17ZM2854.16,512.7h72.17v72.17h-72.17v-72.17ZM2854.16,585.87h72.17v72.17h-72.17v-72.17ZM2854.16,659.04h72.17v72.17h-72.17v-72.17ZM2854.16,732.21h72.17v72.17h-72.17v-72.17ZM2854.16,805.38h72.17v72.17h-72.17v-72.17ZM2860.62,939.7h-72.49c-3.8-18.57-6.16-38.88-7.11-61.15h72.17c1.33,25.47,3.79,42.96,7.43,61.15ZM2780.99.5h72.17v72.17h-72.17V.5ZM2780.99,73.67h72.17v72.17h-72.17v-72.17ZM2780.99,146.84h72.17v72.17h-72.17v-72.17ZM2780.99,220.01h72.17v72.17h-72.17v-72.17ZM2780.99,293.18h72.17v72.17h-72.17v-72.17ZM2780.99,366.35h72.17v72.17h-72.17v-72.17ZM2780.99,439.52h72.17v72.17h-72.17v-72.17ZM2780.99,512.7h72.17v72.17h-72.17v-72.17ZM2780.99,585.87h72.17v72.17h-72.17v-72.17ZM2780.99,659.04h72.17v72.17h-72.17v-72.17ZM2780.99,732.21h72.17v72.17h-72.17v-72.17ZM2780.99,805.38h72.17v72.17h-72.17v-72.17ZM2787.03,939.7h-72.45c-3.59-18.67-5.78-39.01-6.73-61.15h72.17c1.27,25.83,3.73,43.67,7.01,61.15ZM2707.82.5h72.17v72.17h-72.17V.5ZM2707.82,73.67h72.17v72.17h-72.17v-72.17ZM2707.82,146.84h72.17v72.17h-72.17v-72.17ZM2707.82,220.01h72.17v72.17h-72.17v-72.17ZM2707.82,293.18h72.17v72.17h-72.17v-72.17ZM2707.82,366.35h72.17v72.17h-72.17v-72.17ZM2707.82,439.52h72.17v72.17h-72.17v-72.17ZM2707.82,512.7h72.17v72.17h-72.17v-72.17ZM2707.82,585.87h72.17v72.17h-72.17v-72.17ZM2707.82,659.04h72.17v72.17h-72.17v-72.17ZM2707.82,732.21h72.17v72.17h-72.17v-72.17ZM2707.82,805.38h72.17v72.17h-72.17v-72.17ZM2713.47,939.7h-72.45c-3.4-18.85-5.43-39.21-6.35-61.15h72.17c1.01,20.43,2.86,40.99,6.63,61.15ZM2634.65.5h72.17v72.17h-72.17V.5ZM2634.65,73.67h72.17v72.17h-72.17v-72.17ZM2634.65,146.84h72.17v72.17h-72.17v-72.17ZM2634.65,220.01h72.17v72.17h-72.17v-72.17ZM2634.65,293.18h72.17v72.17h-72.17v-72.17ZM2634.65,366.35h72.17v72.17h-72.17v-72.17ZM2634.65,439.52h72.17v72.17h-72.17v-72.17ZM2634.65,512.7h72.17v72.17h-72.17v-72.17ZM2634.65,585.87h72.17v72.17h-72.17v-72.17ZM2634.65,659.04h72.17v72.17h-72.17v-72.17ZM2634.65,732.21h72.17v72.17h-72.17v-72.17ZM2634.65,805.38h72.17v72.17h-72.17v-72.17ZM2639.93,939.7h-72.51c-3.15-18.65-5.08-38.98-5.93-61.15h72.17c.93,20.44,2.71,40.97,6.26,61.15ZM2561.48.5h72.17v72.17h-72.17V.5ZM2561.48,73.67h72.17v72.17h-72.17v-72.17ZM2561.48,146.84h72.17v72.17h-72.17v-72.17ZM2561.48,220.01h72.17v72.17h-72.17v-72.17ZM2561.48,293.18h72.17v72.17h-72.17v-72.17ZM2561.48,366.35h72.17v72.17h-72.17v-72.17ZM2561.48,439.52h72.17v72.17h-72.17v-72.17ZM2561.48,512.7h72.17v72.17h-72.17v-72.17ZM2561.48,585.87h72.17v72.17h-72.17v-72.17ZM2561.48,659.04h72.17v72.17h-72.17v-72.17ZM2561.48,732.21h72.17v72.17h-72.17v-72.17ZM2561.48,805.38h72.17v72.17h-72.17v-72.17ZM2566.36,939.7h-72.46c-3-19.3-4.7-39.74-5.58-61.15h72.17c.88,20.43,2.53,40.93,5.86,61.15ZM2488.3.5h72.17v72.17h-72.17V.5ZM2488.3,73.67h72.17v72.17h-72.17v-72.17ZM2488.3,146.84h72.17v72.17h-72.17v-72.17ZM2488.3,220.01h72.17v72.17h-72.17v-72.17ZM2488.3,293.18h72.17v72.17h-72.17v-72.17ZM2488.3,366.35h72.17v72.17h-72.17v-72.17ZM2488.3,439.52h72.17v72.17h-72.17v-72.17ZM2488.3,512.7h72.17v72.17h-72.17v-72.17ZM2488.3,585.87h72.17v72.17h-72.17v-72.17ZM2488.3,659.04h72.17v72.17h-72.17v-72.17ZM2488.3,732.21h72.17v72.17h-72.17v-72.17ZM2488.3,805.38h72.17v72.17h-72.17v-72.17ZM2492.76,939.7h-72.47c-2.83-19.65-4.33-40.16-5.14-61.15h72.17c.88,20.29,2.36,40.87,5.43,61.15ZM2415.13.5h72.17v72.17h-72.17V.5ZM2415.13,73.67h72.17v72.17h-72.17v-72.17ZM2415.13,146.84h72.17v72.17h-72.17v-72.17ZM2415.13,220.01h72.17v72.17h-72.17v-72.17ZM2415.13,293.18h72.17v72.17h-72.17v-72.17ZM2415.13,366.35h72.17v72.17h-72.17v-72.17ZM2415.13,439.52h72.17v72.17h-72.17v-72.17ZM2415.13,512.7h72.17v72.17h-72.17v-72.17ZM2415.13,585.87h72.17v72.17h-72.17v-72.17ZM2415.13,659.04h72.17v72.17h-72.17v-72.17ZM2415.13,732.21h72.17v72.17h-72.17v-72.17ZM2415.13,805.38h72.17v72.17h-72.17v-72.17ZM2419.13,939.7h-72.41c-2.63-20.02-3.96-40.6-4.74-61.15h72.17c.84,20.31,2.15,40.86,4.97,61.15ZM2341.96.5h72.17v72.17h-72.17V.5ZM2341.96,73.67h72.17v72.17h-72.17v-72.17ZM2341.96,146.84h72.17v72.17h-72.17v-72.17ZM2341.96,220.01h72.17v72.17h-72.17v-72.17ZM2341.96,293.18h72.17v72.17h-72.17v-72.17ZM2341.96,366.35h72.17v72.17h-72.17v-72.17ZM2341.96,439.52h72.17v72.17h-72.17v-72.17ZM2341.96,512.7h72.17v72.17h-72.17v-72.17ZM2341.96,585.87h72.17v72.17h-72.17v-72.17ZM2341.96,659.04h72.17v72.17h-72.17v-72.17ZM2341.96,732.21h72.17v72.17h-72.17v-72.17ZM2341.96,805.38h72.17v72.17h-72.17v-72.17ZM2345.57,939.7h-72.39c-2.4-20.4-3.51-40.99-4.36-61.15h72.17c.75,20.34,1.97,40.85,4.58,61.15ZM2268.79.5h72.17v72.17h-72.17V.5ZM2268.79,73.67h72.17v72.17h-72.17v-72.17ZM2268.79,146.84h72.17v72.17h-72.17v-72.17ZM2268.79,220.01h72.17v72.17h-72.17v-72.17ZM2268.79,293.18h72.17v72.17h-72.17v-72.17ZM2268.79,366.35h72.17v72.17h-72.17v-72.17ZM2268.79,439.52h72.17v72.17h-72.17v-72.17ZM2268.79,512.7h72.17v72.17h-72.17v-72.17ZM2268.79,585.87h72.17v72.17h-72.17v-72.17ZM2268.79,659.04h72.17v72.17h-72.17v-72.17ZM2268.79,732.21h72.17v72.17h-72.17v-72.17ZM2268.79,805.38h72.17v72.17h-72.17v-72.17ZM2272.03,939.7h-72.45c-2.15-20.39-3.12-40.94-3.94-61.15h72.17c.63,20.42,1.81,40.86,4.22,61.15ZM2195.62.5h72.17v72.17h-72.17V.5ZM2195.62,73.67h72.17v72.17h-72.17v-72.17ZM2195.62,146.84h72.17v72.17h-72.17v-72.17ZM2195.62,220.01h72.17v72.17h-72.17v-72.17ZM2195.62,293.18h72.17v72.17h-72.17v-72.17ZM2195.62,366.35h72.17v72.17h-72.17v-72.17ZM2195.62,439.52h72.17v72.17h-72.17v-72.17ZM2195.62,512.7h72.17v72.17h-72.17v-72.17ZM2195.62,585.87h72.17v72.17h-72.17v-72.17ZM2195.62,659.04h72.17v72.17h-72.17v-72.17ZM2195.62,732.21h72.17v72.17h-72.17v-72.17ZM2195.62,805.38h72.17v72.17h-72.17v-72.17ZM2198.44,939.7h-72.42c-1.94-20.67-2.81-41.38-3.55-61.15h72.17c.81,28.24,2.05,44.68,3.8,61.15ZM2122.45.5h72.17v72.17h-72.17V.5ZM2122.45,73.67h72.17v72.17h-72.17v-72.17ZM2122.45,146.84h72.17v72.17h-72.17v-72.17ZM2122.45,220.01h72.17v72.17h-72.17v-72.17ZM2122.45,293.18h72.17v72.17h-72.17v-72.17ZM2122.45,366.35h72.17v72.17h-72.17v-72.17ZM2122.45,439.52h72.17v72.17h-72.17v-72.17ZM2122.45,512.7h72.17v72.17h-72.17v-72.17ZM2122.45,585.87h72.17v72.17h-72.17v-72.17ZM2122.45,659.04h72.17v72.17h-72.17v-72.17ZM2122.45,732.21h72.17v72.17h-72.17v-72.17ZM2122.45,805.38h72.17v72.17h-72.17v-72.17ZM2124.84,939.7h-72.39c-1.68-20.8-2.39-41.48-3.15-61.15h72.16c.49,20.4,1.44,40.82,3.38,61.15ZM2049.28.5h72.17v72.17h-72.17V.5ZM2049.28,73.67h72.17v72.17h-72.17v-72.17ZM2049.28,146.84h72.17v72.17h-72.17v-72.17ZM2049.28,220.01h72.17v72.17h-72.17v-72.17ZM2049.28,293.18h72.17v72.17h-72.17v-72.17ZM2049.28,366.35h72.17v72.17h-72.17v-72.17ZM2049.28,439.52h72.17v72.17h-72.17v-72.17ZM2049.28,512.7h72.17v72.17h-72.17v-72.17ZM2049.28,585.87h72.17v72.17h-72.17v-72.17ZM2049.28,659.04h72.17v72.17h-72.17v-72.17ZM2049.28,732.21h72.17v72.17h-72.17v-72.17ZM2049.28,805.38h72.17v72.17h-72.17v-72.17ZM2051.26,939.7h-72.36c-1.55-20.34-2.3-40.76-2.78-61.15h72.17c.45,20.4,1.26,40.81,2.97,61.15ZM1976.11.5h72.17v72.17h-72.17V.5ZM1976.11,73.67h72.17v72.17h-72.17v-72.17ZM1976.11,146.84h72.17v72.17h-72.17v-72.17ZM1976.11,220.01h72.17v72.17h-72.17v-72.17ZM1976.11,293.18h72.17v72.17h-72.17v-72.17ZM1976.11,366.35h72.17v72.17h-72.17v-72.17ZM1976.11,439.52h72.17v72.17h-72.17v-72.17ZM1976.11,512.7h72.17v72.17h-72.17v-72.17ZM1976.11,585.87h72.17v72.17h-72.17v-72.17ZM1976.11,659.04h72.17v72.17h-72.17v-72.17ZM1976.11,732.21h72.17v72.17h-72.17v-72.17ZM1976.11,805.38h72.17v72.17h-72.17v-72.17ZM1977.68,939.7h-72.39c-1.29-20.37-1.87-40.79-2.34-61.15h72.17c.41,20.38,1.09,40.8,2.56,61.15ZM1902.94.5h72.17v72.17h-72.17V.5ZM1902.94,73.67h72.17v72.17h-72.17v-72.17ZM1902.94,146.84h72.17v72.17h-72.17v-72.17ZM1902.94,220.01h72.17v72.17h-72.17v-72.17ZM1902.94,293.18h72.17v72.17h-72.17v-72.17ZM1902.94,366.35h72.17v72.17h-72.17v-72.17ZM1902.94,439.52h72.17v72.17h-72.17v-72.17ZM1902.94,512.7h72.17v72.17h-72.17v-72.17ZM1902.94,585.87h72.17v72.17h-72.17v-72.17ZM1902.94,659.04h72.17v72.17h-72.17v-72.17ZM1902.94,732.21h72.17v72.17h-72.17v-72.17ZM1902.94,805.38h72.17v72.17h-72.17v-72.17ZM1904.1,939.7h-72.38c-1.07-20.37-1.56-40.78-1.94-61.15h72.17c.33,20.38.9,40.79,2.15,61.15ZM1829.77.5h72.17v72.17h-72.17V.5ZM1829.77,73.67h72.17v72.17h-72.17v-72.17ZM1829.77,146.84h72.17v72.17h-72.17v-72.17ZM1829.77,220.01h72.17v72.17h-72.17v-72.17ZM1829.77,293.18h72.17v72.17h-72.17v-72.17ZM1829.77,366.35h72.17v72.17h-72.17v-72.17ZM1829.77,439.52h72.17v72.17h-72.17v-72.17ZM1829.77,512.7h72.17v72.17h-72.17v-72.17ZM1829.77,585.87h72.17v72.17h-72.17v-72.17ZM1829.77,659.04h72.17v72.17h-72.17v-72.17ZM1829.77,732.21h72.17v72.17h-72.17v-72.17ZM1829.77,805.38h72.17v72.17h-72.17v-72.17ZM1830.47,939.7h-72.32c-.85-23.03-1.07-44.33-1.54-61.15h72.17c.3,20.37.71,40.78,1.7,61.15ZM1756.6.5h72.17v72.17h-72.17V.5ZM1756.6,73.67h72.17v72.17h-72.17v-72.17ZM1756.6,146.84h72.17v72.17h-72.17v-72.17ZM1756.6,220.01h72.17v72.17h-72.17v-72.17ZM1756.6,293.18h72.17v72.17h-72.17v-72.17ZM1756.6,366.35h72.17v72.17h-72.17v-72.17ZM1756.6,439.52h72.17v72.17h-72.17v-72.17ZM1756.6,512.7h72.17v72.17h-72.17v-72.17ZM1756.6,585.87h72.17v72.17h-72.17v-72.17ZM1756.6,659.04h72.17v72.17h-72.17v-72.17ZM1756.6,732.21h72.17v72.17h-72.17v-72.17ZM1756.6,805.38h72.17v72.17h-72.17v-72.17ZM1756.93,939.7h-72.36c-.62-20.38-.92-40.77-1.14-61.15h72.17c.17,20.39.56,40.77,1.33,61.15ZM1683.43.5h72.17v72.17h-72.17V.5ZM1683.43,73.67h72.17v72.17h-72.17v-72.17ZM1683.43,146.84h72.17v72.17h-72.17v-72.17ZM1683.43,220.01h72.17v72.17h-72.17v-72.17ZM1683.43,293.18h72.17v72.17h-72.17v-72.17ZM1683.43,366.35h72.17v72.17h-72.17v-72.17ZM1683.43,439.52h72.17v72.17h-72.17v-72.17ZM1683.43,512.7h72.17v72.17h-72.17v-72.17ZM1683.43,585.87h72.17v72.17h-72.17v-72.17ZM1683.43,659.04h72.17v72.17h-72.17v-72.17ZM1683.43,732.21h72.17v72.17h-72.17v-72.17ZM1683.43,805.38h72.17v72.17h-72.17v-72.17ZM1686.25,1001.85h-73.36c-1-20.28-1.54-40.59-1.87-60.9h72.34c.55,20.32,1.44,40.62,2.9,60.9ZM1683.33,939.7h-72.33c-.33-20.39-.48-40.78-.73-61.15h72.17c.14,20.38.36,40.77.9,61.15ZM1610.26.5h72.17v72.17h-72.17V.5ZM1610.26,73.67h72.17v72.17h-72.17v-72.17ZM1610.26,146.84h72.17v72.17h-72.17v-72.17ZM1610.26,220.01h72.17v72.17h-72.17v-72.17ZM1610.26,293.18h72.17v72.17h-72.17v-72.17ZM1610.26,366.35h72.17v72.17h-72.17v-72.17ZM1610.26,439.52h72.17v72.17h-72.17v-72.17ZM1610.26,512.7h72.17v72.17h-72.17v-72.17ZM1610.26,585.87h72.17v72.17h-72.17v-72.17ZM1610.26,659.04h72.17v72.17h-72.17v-72.17ZM1610.26,732.21h72.17v72.17h-72.17v-72.17ZM1610.26,805.38h72.17v72.17h-72.17v-72.17ZM1611.43,1001.85h-73.28c-.36-20.3-.58-40.6-.72-60.9h72.33c.31,20.3.83,40.6,1.67,60.9ZM1609.75,939.7h-72.32c-.14-20.38-.22-40.77-.34-61.15h72.17c.06,20.38.18,40.77.49,61.15ZM1537.09.5h72.17v72.17h-72.17V.5ZM1537.09,73.67h72.17v72.17h-72.17v-72.17ZM1537.09,146.84h72.17v72.17h-72.17v-72.17ZM1537.09,220.01h72.17v72.17h-72.17v-72.17ZM1537.09,293.18h72.17v72.17h-72.17v-72.17ZM1537.09,366.35h72.17v72.17h-72.17v-72.17ZM1537.09,439.52h72.17v72.17h-72.17v-72.17ZM1537.09,512.7h72.17v72.17h-72.17v-72.17ZM1537.09,585.87h72.17v72.17h-72.17v-72.17ZM1537.09,659.04h72.17v72.17h-72.17v-72.17ZM1537.09,732.21h72.17v72.17h-72.17v-72.17ZM1537.09,805.38h72.17v72.17h-72.17v-72.17ZM1463.91.5h72.17v72.17h-72.17V.5ZM1463.91,73.67h72.17v72.17h-72.17v-72.17ZM1463.91,146.84h72.17v72.17h-72.17v-72.17ZM1463.91,220.01h72.17v72.17h-72.17v-72.17ZM1463.91,293.18h72.17v72.17h-72.17v-72.17ZM1463.91,366.35h72.17v72.17h-72.17v-72.17ZM1463.91,439.52h72.17v72.17h-72.17v-72.17ZM1463.91,512.7h72.17v72.17h-72.17v-72.17ZM1463.91,585.87h72.17v72.17h-72.17v-72.17ZM1463.91,659.04h72.17v72.17h-72.17v-72.17ZM1463.91,732.21h72.17v72.17h-72.17v-72.17ZM1463.91,805.38h72.17v72.17h-72.17v-72.17ZM1463.91,878.55h72.17c.03,20.38.03,40.76.08,61.15h-72.34c.06-20.38.05-40.77.08-61.15ZM1463.83,940.95h72.34c.06,20.3.19,40.6.47,60.9h-73.28c.28-20.3.41-40.6.47-60.9ZM1536.66,1003.35c.29,20.22.72,40.44,1.43,60.65h-76.18c.7-20.21,1.14-40.43,1.43-60.65h73.33ZM1390.74.5h72.17v72.17h-72.17V.5ZM1390.74,73.67h72.17v72.17h-72.17v-72.17ZM1390.74,146.84h72.17v72.17h-72.17v-72.17ZM1390.74,220.01h72.17v72.17h-72.17v-72.17ZM1390.74,293.18h72.17v72.17h-72.17v-72.17ZM1390.74,366.35h72.17v72.17h-72.17v-72.17ZM1390.74,439.52h72.17v72.17h-72.17v-72.17ZM1390.74,512.7h72.17v72.17h-72.17v-72.17ZM1390.74,585.87h72.17v72.17h-72.17v-72.17ZM1390.74,659.04h72.17v72.17h-72.17v-72.17ZM1390.74,732.21h72.17v72.17h-72.17v-72.17ZM1390.74,805.38h72.17v72.17h-72.17v-72.17ZM1390.74,878.55h72.17c-.11,20.38-.2,40.76-.34,61.15h-72.32c.24-20.39.31-40.78.48-61.15ZM1462.57,940.95c-.14,20.3-.36,40.6-.72,60.9h-73.22c.92-20.28,1.37-40.59,1.62-60.9h72.33ZM1317.57.5h72.17v72.17h-72.17V.5ZM1317.57,73.67h72.17v72.17h-72.17v-72.17ZM1317.57,146.84h72.17v72.17h-72.17v-72.17ZM1317.57,220.01h72.17v72.17h-72.17v-72.17ZM1317.57,293.18h72.17v72.17h-72.17v-72.17ZM1317.57,366.35h72.17v72.17h-72.17v-72.17ZM1317.57,439.52h72.17v72.17h-72.17v-72.17ZM1317.57,512.7h72.17v72.17h-72.17v-72.17ZM1317.57,585.87h72.17v72.17h-72.17v-72.17ZM1317.57,659.04h72.17v72.17h-72.17v-72.17ZM1317.57,732.21h72.17v72.17h-72.17v-72.17ZM1317.57,805.38h72.17v72.17h-72.17v-72.17ZM1317.57,878.55h72.17c-.15,20.38-.35,40.77-.74,61.15h-72.33c.54-20.38.76-40.77.9-61.15ZM1388.98,940.95c-.4,20.31-1,40.61-1.92,60.9h-73.31c1.45-20.28,2.35-40.58,2.9-60.9h72.34ZM1244.4.5h72.17v72.17h-72.17V.5ZM1244.4,73.67h72.17v72.17h-72.17v-72.17ZM1244.4,146.84h72.17v72.17h-72.17v-72.17ZM1244.4,220.01h72.17v72.17h-72.17v-72.17ZM1244.4,293.18h72.17v72.17h-72.17v-72.17ZM1244.4,366.35h72.17v72.17h-72.17v-72.17ZM1244.4,439.52h72.17v72.17h-72.17v-72.17ZM1244.4,512.7h72.17v72.17h-72.17v-72.17ZM1244.4,585.87h72.17v72.17h-72.17v-72.17ZM1244.4,659.04h72.17v72.17h-72.17v-72.17ZM1244.4,732.21h72.17v72.17h-72.17v-72.17ZM1244.4,805.38h72.17v72.17h-72.17v-72.17ZM1316.57,878.55c-.19,20.39-.54,40.77-1.16,61.15h-72.31c.75-22.99.89-44.28,1.3-61.15h72.18ZM1171.23.5h72.17v72.17h-72.17V.5ZM1171.23,73.67h72.17v72.17h-72.17v-72.17ZM1171.23,146.84h72.17v72.17h-72.17v-72.17ZM1171.23,220.01h72.17v72.17h-72.17v-72.17ZM1171.23,293.18h72.17v72.17h-72.17v-72.17ZM1171.23,366.35h72.17v72.17h-72.17v-72.17ZM1171.23,439.52h72.17v72.17h-72.17v-72.17ZM1171.23,512.7h72.17v72.17h-72.17v-72.17ZM1171.23,585.87h72.17v72.17h-72.17v-72.17ZM1171.23,659.04h72.17v72.17h-72.17v-72.17ZM1171.23,732.21h72.17v72.17h-72.17v-72.17ZM1171.23,805.38h72.17v72.17h-72.17v-72.17ZM1243.39,878.55c-.3,20.38-.71,40.77-1.56,61.15h-72.31c.99-20.37,1.4-40.78,1.7-61.15h72.17ZM1098.06.5h72.17v72.17h-72.17V.5ZM1098.06,73.67h72.17v72.17h-72.17v-72.17ZM1098.06,146.84h72.17v72.17h-72.17v-72.17ZM1098.06,220.01h72.17v72.17h-72.17v-72.17ZM1098.06,293.18h72.17v72.17h-72.17v-72.17ZM1098.06,366.35h72.17v72.17h-72.17v-72.17ZM1098.06,439.52h72.17v72.17h-72.17v-72.17ZM1098.06,512.7h72.17v72.17h-72.17v-72.17ZM1098.06,585.87h72.17v72.17h-72.17v-72.17ZM1098.06,659.04h72.17v72.17h-72.17v-72.17ZM1098.06,732.21h72.17v72.17h-72.17v-72.17ZM1098.06,805.38h72.17v72.17h-72.17v-72.17ZM1170.22,878.55c-.31,20.39-.92,40.78-1.99,61.15h-72.29c1.21-20.37,1.71-40.8,2.1-61.15h72.17ZM1024.89.5h72.17v72.17h-72.17V.5ZM1024.89,73.67h72.17v72.17h-72.17v-72.17ZM1024.89,146.84h72.17v72.17h-72.17v-72.17ZM1024.89,220.01h72.17v72.17h-72.17v-72.17ZM1024.89,293.18h72.17v72.17h-72.17v-72.17ZM1024.89,366.35h72.17v72.17h-72.17v-72.17ZM1024.89,439.52h72.17v72.17h-72.17v-72.17ZM1024.89,512.7h72.17v72.17h-72.17v-72.17ZM1024.89,585.87h72.17v72.17h-72.17v-72.17ZM1024.89,659.04h72.17v72.17h-72.17v-72.17ZM1024.89,732.21h72.17v72.17h-72.17v-72.17ZM1024.89,805.38h72.17v72.17h-72.17v-72.17ZM1097.05,878.55c-.39,20.4-1.09,40.8-2.41,61.15h-72.32c1.47-20.35,2.15-40.77,2.56-61.15h72.17ZM951.72.5h72.17v72.17h-72.17V.5ZM951.72,73.67h72.17v72.17h-72.17v-72.17ZM951.72,146.84h72.17v72.17h-72.17v-72.17ZM951.72,220.01h72.17v72.17h-72.17v-72.17ZM951.72,293.18h72.17v72.17h-72.17v-72.17ZM951.72,366.35h72.17v72.17h-72.17v-72.17ZM951.72,439.52h72.17v72.17h-72.17v-72.17ZM951.72,512.7h72.17v72.17h-72.17v-72.17ZM951.72,585.87h72.17v72.17h-72.17v-72.17ZM951.72,659.04h72.17v72.17h-72.17v-72.17ZM951.72,732.21h72.17v72.17h-72.17v-72.17ZM951.72,805.38h72.17v72.17h-72.17v-72.17ZM1023.88,878.55c-.47,20.4-1.22,40.81-2.78,61.15h-72.33c1.6-20.78,2.24-41.45,2.93-61.15h72.18ZM878.55.5h72.17v72.17h-72.17V.5ZM878.55,73.67h72.17v72.17h-72.17v-72.17ZM878.55,146.84h72.17v72.17h-72.17v-72.17ZM878.55,220.01h72.17v72.17h-72.17v-72.17ZM878.55,293.18h72.17v72.17h-72.17v-72.17ZM878.55,366.35h72.17v72.17h-72.17v-72.17ZM878.55,439.52h72.17v72.17h-72.17v-72.17ZM878.55,512.7h72.17v72.17h-72.17v-72.17ZM878.55,585.87h72.17v72.17h-72.17v-72.17ZM878.55,659.04h72.17v72.17h-72.17v-72.17ZM878.55,732.21h72.17v72.17h-72.17v-72.17ZM878.55,805.38h72.17v72.17h-72.17v-72.17ZM950.71,878.55c-.52,20.41-1.4,40.82-3.19,61.15h-72.34c1.84-20.8,2.61-41.5,3.36-61.15h72.18ZM805.38.5h72.17v72.17h-72.17V.5ZM805.38,73.67h72.17v72.17h-72.17v-72.17ZM805.38,146.84h72.17v72.17h-72.17v-72.17ZM805.38,220.01h72.17v72.17h-72.17v-72.17ZM805.38,293.18h72.17v72.17h-72.17v-72.17ZM805.38,366.35h72.17v72.17h-72.17v-72.17ZM805.38,439.52h72.17v72.17h-72.17v-72.17ZM805.38,512.7h72.17v72.17h-72.17v-72.17ZM805.38,585.87h72.17v72.17h-72.17v-72.17ZM805.38,659.04h72.17v72.17h-72.17v-72.17ZM805.38,732.21h72.17v72.17h-72.17v-72.17ZM805.38,805.38h72.17v72.17h-72.17v-72.17ZM877.53,878.55c-.56,20.42-1.59,40.83-3.6,61.15h-72.31c2.08-20.39,2.98-40.94,3.73-61.15h72.17ZM732.21.5h72.17v72.17h-72.17V.5ZM732.21,73.67h72.17v72.17h-72.17v-72.17ZM732.21,146.84h72.17v72.17h-72.17v-72.17ZM732.21,220.01h72.17v72.17h-72.17v-72.17ZM732.21,293.18h72.17v72.17h-72.17v-72.17ZM732.21,366.35h72.17v72.17h-72.17v-72.17ZM732.21,439.52h72.17v72.17h-72.17v-72.17ZM732.21,512.7h72.17v72.17h-72.17v-72.17ZM732.21,585.87h72.17v72.17h-72.17v-72.17ZM732.21,659.04h72.17v72.17h-72.17v-72.17ZM732.21,732.21h72.17v72.17h-72.17v-72.17ZM732.21,805.38h72.17v72.17h-72.17v-72.17ZM804.36,878.55c-.9,27.98-2.2,44.75-3.99,61.15h-72.31c2.38-20.45,3.48-41.12,4.14-61.15h72.17ZM659.04.5h72.17v72.17h-72.17V.5ZM659.04,73.67h72.17v72.17h-72.17v-72.17ZM659.04,146.84h72.17v72.17h-72.17v-72.17ZM659.04,220.01h72.17v72.17h-72.17v-72.17ZM659.04,293.18h72.17v72.17h-72.17v-72.17ZM659.04,366.35h72.17v72.17h-72.17v-72.17ZM659.04,439.52h72.17v72.17h-72.17v-72.17ZM659.04,512.7h72.17v72.17h-72.17v-72.17ZM659.04,585.87h72.17v72.17h-72.17v-72.17ZM659.04,659.04h72.17v72.17h-72.17v-72.17ZM659.04,732.21h72.17v72.17h-72.17v-72.17ZM659.04,805.38h72.17v72.17h-72.17v-72.17ZM731.19,878.55c-.7,20.33-1.93,40.95-4.37,61.15h-72.33c2.57-20.02,3.83-40.6,4.53-61.15h72.17ZM585.87.5h72.17v72.17h-72.17V.5ZM585.87,73.67h72.17v72.17h-72.17v-72.17ZM585.87,146.84h72.17v72.17h-72.17v-72.17ZM585.87,220.01h72.17v72.17h-72.17v-72.17ZM585.87,293.18h72.17v72.17h-72.17v-72.17ZM585.87,366.35h72.17v72.17h-72.17v-72.17ZM585.87,439.52h72.17v72.17h-72.17v-72.17ZM585.87,512.7h72.17v72.17h-72.17v-72.17ZM585.87,585.87h72.17v72.17h-72.17v-72.17ZM585.87,659.04h72.17v72.17h-72.17v-72.17ZM585.87,732.21h72.17v72.17h-72.17v-72.17ZM585.87,805.38h72.17v72.17h-72.17v-72.17ZM658.01,878.55c-.78,20.43-2.12,40.89-4.82,61.15h-72.28c2.76-19.65,4.21-40.16,4.94-61.15h72.17ZM512.7.5h72.17v72.17h-72.17V.5ZM512.7,73.67h72.17v72.17h-72.17v-72.17ZM512.7,146.84h72.17v72.17h-72.17v-72.17ZM512.7,220.01h72.17v72.17h-72.17v-72.17ZM512.7,293.18h72.17v72.17h-72.17v-72.17ZM512.7,366.35h72.17v72.17h-72.17v-72.17ZM512.7,439.52h72.17v72.17h-72.17v-72.17ZM512.7,512.7h72.17v72.17h-72.17v-72.17ZM512.7,585.87h72.17v72.17h-72.17v-72.17ZM512.7,659.04h72.17v72.17h-72.17v-72.17ZM512.7,732.21h72.17v72.17h-72.17v-72.17ZM512.7,805.38h72.17v72.17h-72.17v-72.17ZM584.84,878.55c-.84,20.44-2.31,40.91-5.24,61.15h-72.31c2.94-19.31,4.57-39.75,5.38-61.15h72.17ZM439.52.5h72.17v72.17h-72.17V.5ZM439.52,73.67h72.17v72.17h-72.17v-72.17ZM439.52,146.84h72.17v72.17h-72.17v-72.17ZM439.52,220.01h72.17v72.17h-72.17v-72.17ZM439.52,293.18h72.17v72.17h-72.17v-72.17ZM439.52,366.35h72.17v72.17h-72.17v-72.17ZM439.52,439.52h72.17v72.17h-72.17v-72.17ZM439.52,512.7h72.17v72.17h-72.17v-72.17ZM439.52,585.87h72.17v72.17h-72.17v-72.17ZM439.52,659.04h72.17v72.17h-72.17v-72.17ZM439.52,732.21h72.17v72.17h-72.17v-72.17ZM439.52,805.38h72.17v72.17h-72.17v-72.17ZM511.67,878.55c-.89,20.44-2.47,40.93-5.63,61.15h-72.27c3.09-18.67,4.96-39,5.74-61.15h72.17ZM366.35.5h72.17v72.17h-72.17V.5ZM366.35,73.67h72.17v72.17h-72.17v-72.17ZM366.35,146.84h72.17v72.17h-72.17v-72.17ZM366.35,220.01h72.17v72.17h-72.17v-72.17ZM366.35,293.18h72.17v72.17h-72.17v-72.17ZM366.35,366.35h72.17v72.17h-72.17v-72.17ZM366.35,439.52h72.17v72.17h-72.17v-72.17ZM366.35,512.7h72.17v72.17h-72.17v-72.17ZM366.35,585.87h72.17v72.17h-72.17v-72.17ZM366.35,659.04h72.17v72.17h-72.17v-72.17ZM366.35,732.21h72.17v72.17h-72.17v-72.17ZM366.35,805.38h72.17v72.17h-72.17v-72.17ZM438.5,878.55c-.94,20.45-2.65,40.96-6.05,61.15h-72.27c3.34-18.86,5.3-39.23,6.16-61.15h72.17ZM293.18.5h72.17v72.17h-72.17V.5ZM293.18,73.67h72.17v72.17h-72.17v-72.17ZM293.18,146.84h72.17v72.17h-72.17v-72.17ZM293.18,220.01h72.17v72.17h-72.17v-72.17ZM293.18,293.18h72.17v72.17h-72.17v-72.17ZM293.18,366.35h72.17v72.17h-72.17v-72.17ZM293.18,439.52h72.17v72.17h-72.17v-72.17ZM293.18,512.7h72.17v72.17h-72.17v-72.17ZM293.18,585.87h72.17v72.17h-72.17v-72.17ZM293.18,659.04h72.17v72.17h-72.17v-72.17ZM293.18,732.21h72.17v72.17h-72.17v-72.17ZM293.18,805.38h72.17v72.17h-72.17v-72.17ZM365.32,878.55c-.96,20.47-2.84,40.67-6.36,61.15h-72.35c3.53-18.69,5.66-39.03,6.55-61.15h72.16ZM220.01.5h72.17v72.17h-72.17V.5ZM220.01,73.67h72.17v72.17h-72.17v-72.17ZM220.01,146.84h72.17v72.17h-72.17v-72.17ZM220.01,220.01h72.17v72.17h-72.17v-72.17ZM220.01,293.18h72.17v72.17h-72.17v-72.17ZM220.01,366.35h72.17v72.17h-72.17v-72.17ZM220.01,439.52h72.17v72.17h-72.17v-72.17ZM220.01,512.7h72.17v72.17h-72.17v-72.17ZM220.01,585.87h72.17v72.17h-72.17v-72.17ZM220.01,659.04h72.17v72.17h-72.17v-72.17ZM220.01,732.21h72.17v72.17h-72.17v-72.17ZM220.01,805.38h72.17v72.17h-72.17v-72.17ZM292.16,878.55c-1.21,24.39-3.51,43.2-6.79,61.15h-72.3c3.74-18.59,6.03-38.9,6.92-61.15h72.17ZM146.84.5h72.17v72.17h-72.17V.5ZM146.84,73.67h72.17v72.17h-72.17v-72.17ZM146.84,146.84h72.17v72.17h-72.17v-72.17ZM146.84,220.01h72.17v72.17h-72.17v-72.17ZM146.84,293.18h72.17v72.17h-72.17v-72.17ZM146.84,366.35h72.17v72.17h-72.17v-72.17ZM146.84,439.52h72.17v72.17h-72.17v-72.17ZM146.84,512.7h72.17v72.17h-72.17v-72.17ZM146.84,585.87h72.17v72.17h-72.17v-72.17ZM146.84,659.04h72.17v72.17h-72.17v-72.17ZM146.84,732.21h72.17v72.17h-72.17v-72.17ZM146.84,805.38h72.17v72.17h-72.17v-72.17ZM218.98,878.55c-1.3,25.06-3.72,43.03-7.19,61.15h-72.4c4.19-19.54,6.5-40.06,7.43-61.15h72.17ZM73.67.5h72.17v72.17h-72.17V.5ZM73.67,73.67h72.17v72.17h-72.17v-72.17ZM73.67,146.84h72.17v72.17h-72.17v-72.17ZM73.67,220.01h72.17v72.17h-72.17v-72.17ZM73.67,293.18h72.17v72.17h-72.17v-72.17ZM73.67,366.35h72.17v72.17h-72.17v-72.17ZM73.67,439.52h72.17v72.17h-72.17v-72.17ZM73.67,512.7h72.17v72.17h-72.17v-72.17ZM73.67,585.87h72.17v72.17h-72.17v-72.17ZM73.67,659.04h72.17v72.17h-72.17v-72.17ZM73.67,732.21h72.17v72.17h-72.17v-72.17ZM73.67,805.38h72.17v72.17h-72.17v-72.17ZM145.81,878.55c-1.4,25.51-3.92,43.09-7.61,61.15h-72.46c4.52-20.08,6.9-40.77,7.9-61.15h72.17ZM.5.5h72.17v72.17H.5V.5ZM.5,73.67h72.17v72.17H.5v-72.17ZM.5,146.84h72.17v72.17H.5v-72.17ZM.5,220.01h72.17v72.17H.5v-72.17ZM.5,293.18h72.17v72.17H.5v-72.17ZM.5,366.35h72.17v72.17H.5v-72.17ZM.5,439.52h72.17v72.17H.5v-72.17ZM.5,512.7h72.17v72.17H.5v-72.17ZM.5,585.87h72.17v72.17H.5v-72.17ZM.5,659.04h72.17v72.17H.5v-72.17ZM.5,732.21h72.17v72.17H.5v-72.17ZM.5,805.38h72.17v72.17H.5v-72.17Z"/></g></svg>