<?xml version="1.0" encoding="UTF-8"?><svg id="Layer_2" xmlns="http://www.w3.org/2000/svg" viewBox="0 0 1200 673.25"><defs><style>.cls-1{fill:#112c3b;}.cls-2{fill:#41ffff;}.cls-3{fill:#fff;}</style></defs><g id="Layer_1-2"><rect class="cls-3" x="263.38" y="-263.38" width="673.25" height="1200" transform="translate(936.62 -263.38) rotate(90)"/><path class="cls-1" d="M680.01,330.54c0,14.52-3.8,28.37-11.04,40.63-3.01-1.67-6.15-3.14-9.38-4.41-4.92-1.96-9.99-3.46-15.16-4.46,6.61-9.22,10.19-20.25,10.19-31.75,0-30.16-24.51-54.68-54.63-54.68-28.36,0-51.74,21.28-54.36,49.55-.17,1.74-.24,3.46-.24,5.12,0,5.81.93,11.55,2.72,17.02,2.13,6.57,5.61,12.8,10.09,18.14l-18,18.02c-7.69-8.68-13.49-19-16.82-30.08-2.23-7.43-3.38-15.2-3.38-23.1,0-44.18,35.9-80.1,80-80.1s80.02,35.92,80.02,80.1Z"/><path class="cls-2" d="M662.94,381.78c-3.59-2.67-7.54-4.88-11.75-6.55-6.18-2.48-12.71-3.73-19.41-3.73-4.25,0-8.48.51-12.58,1.53-10.58,2.6-19.96,8.37-27.09,16.67-.26.27-.49.56-.73.85l-.19.23c-3.09,3.48-6.99,6.26-11.28,8.04-3.74,1.54-7.69,2.32-11.74,2.32-2.06,0-4.08-.2-6-.58-9.1-1.8-16.82-7.56-21.18-15.79l-.63-1.2-15.8,15.85.47.69c9.8,14.21,25.93,22.69,43.15,22.69,2.33,0,4.6-.15,6.73-.45,2.13-.26,4.04-.62,5.83-1.08,7.09-1.73,13.86-5.02,19.61-9.53l.29-.21c2.83-2.24,5.41-4.75,7.67-7.46,5.87-6.92,14.43-10.89,23.49-10.89,5.2,0,10.32,1.32,14.82,3.81l.54.3.51-.35c4.71-3.25,9.07-6.96,12.94-11,.88-.88,1.71-1.8,2.51-2.71l.7-.81-.86-.64Z"/></g></svg>