<?xml version="1.0" encoding="UTF-8"?><svg id="Layer_2" xmlns="http://www.w3.org/2000/svg" viewBox="0 0 1200 673.25"><defs><style>.cls-1{fill:#fff;}.cls-2{opacity:.5;}</style></defs><g id="Layer_1-2"><rect class="cls-1" x="263.38" y="-263.38" width="673.25" height="1200" transform="translate(936.62 -263.38) rotate(90)"/><path d="M496.75,309.56v8.93h17.53l-18.97,26.64v4.11h33.36v-9.66h-18.41l18.25-25.36v-4.67h-31.75ZM563.79,313.67c-4.58-4.02-9.24-5.23-15.43-5.23-7.24,0-16.72,3.22-16.72,12.4s8.92,11.75,16.4,12.32c5.63.32,7.88,1.45,7.88,4.19,0,2.9-3.46,4.83-7.15,4.75-4.42-.08-10.85-2.42-13.67-5.55l-4.82,7c5.79,6.04,12.06,7.08,18.33,7.08,11.33,0,17.04-6.04,17.04-13.04,0-10.54-9.49-12.23-16.96-12.72-5.06-.32-7.4-1.77-7.4-4.35s2.57-3.94,7.24-3.94c3.78,0,6.99.89,9.81,3.54l5.47-6.44ZM573.83,299.42v10.22h-7.39v8.45h7.39v17.14c0,9.9,5.63,14.81,14.23,14.49,2.98-.08,5.31-.56,8.12-1.69l-2.73-8.37c-1.45.72-3.22,1.21-4.74,1.21-3.06,0-5.14-1.85-5.14-5.63v-17.14h11.01v-8.45h-10.93v-11.27l-9.81,1.05ZM599.79,309.56v39.68h9.81v-20.93c0-7.32,4.74-10.06,9.89-10.06,3.22,0,5.06.89,7.07,2.58l4.42-8.53c-2.17-2.17-6.11-3.78-10.21-3.78s-8.12.72-11.17,5.63l-.72-4.59h-9.08ZM671.9,332.91c1.53-16.34-6.75-24.55-20.02-24.55s-21.06,8.69-21.06,20.77c0,12.72,8.12,21.17,21.78,21.17,6.03,0,12.86-2.09,17.04-6.44l-6.27-6.2c-2.25,2.33-6.99,3.7-10.61,3.7-6.91,0-11.17-3.54-11.82-8.45h30.95ZM641.11,324.78c1.45-5.15,5.79-7.73,11.09-7.73,5.63,0,9.65,2.58,10.29,7.73h-21.38ZM708.47,315.04c-2.25-3.94-7.32-6.44-12.62-6.44-11.57-.08-20.66,7.08-20.66,20.77s8.68,21.17,20.42,21.09c4.42-.08,10.61-2.33,12.86-7l.48,5.8h9.24v-39.68h-9.4l-.32,5.47ZM696.73,317.37c15.43,0,15.43,24.07,0,24.07-6.51,0-11.74-4.51-11.74-12.07s5.23-11.99,11.74-11.99ZM760.56,349.25v-21.25c0-5.23,3.3-9.82,8.6-9.82s7.48,4.43,7.48,9.66v21.41h9.81v-21.41c0-11.91-5.55-18.84-16.8-18.84-5.14,0-9.73,1.61-13.26,7.24-2.25-5.47-6.99-7.41-11.74-7.41-3.78,0-8.36,1.45-10.45,5.47l-.72-4.83h-9.08v39.76h9.81v-21.25c0-5.23,3.14-9.98,8.44-9.98s8.12,4.75,8.12,9.98v21.25h9.81Z"/><path d="M488.94,333.76c0,6.84-1.79,13.36-5.2,19.14-1.42-.79-2.9-1.48-4.42-2.08-2.32-.92-4.71-1.63-7.14-2.1,3.11-4.34,4.8-9.54,4.8-14.96,0-14.21-11.55-25.76-25.74-25.76-13.36,0-24.37,10.03-25.61,23.34-.08.82-.12,1.63-.12,2.41,0,2.74.44,5.44,1.28,8.02,1,3.1,2.64,6.03,4.75,8.55l-8.48,8.49c-3.62-4.09-6.36-8.95-7.92-14.17-1.05-3.5-1.59-7.16-1.59-10.88,0-20.81,16.91-37.74,37.69-37.74s37.7,16.92,37.7,37.74Z"/><path class="cls-2" d="M480.9,357.9c-1.69-1.26-3.55-2.3-5.54-3.08-2.91-1.17-5.99-1.76-9.14-1.76-2,0-4,.24-5.93.72-4.98,1.22-9.4,3.94-12.76,7.85-.12.13-.23.26-.34.4l-.09.11c-1.46,1.64-3.29,2.95-5.31,3.79-1.76.73-3.62,1.09-5.53,1.09-.97,0-1.92-.09-2.83-.27-4.29-.85-7.93-3.56-9.98-7.44l-.3-.56-7.45,7.47.22.32c4.62,6.69,12.21,10.69,20.33,10.69,1.1,0,2.17-.07,3.17-.21,1-.12,1.9-.29,2.74-.51,3.34-.81,6.53-2.37,9.24-4.49l.14-.1c1.33-1.05,2.55-2.24,3.61-3.51,2.76-3.26,6.8-5.13,11.07-5.13,2.45,0,4.86.62,6.98,1.8l.26.14.24-.17c2.22-1.53,4.27-3.28,6.1-5.18.41-.41.81-.85,1.18-1.28l.33-.38-.41-.3Z"/></g></svg>