<?xml version="1.0" encoding="UTF-8"?><svg id="Layer_2" xmlns="http://www.w3.org/2000/svg" viewBox="0 0 1200 673.25"><defs><style>.cls-1{fill:#26a11e;}.cls-2{fill:#0a4547;}</style></defs><g id="Layer_1-2"><rect class="cls-2" x="263.38" y="-263.38" width="673.25" height="1200" transform="translate(936.62 -263.38) rotate(90)"/><path class="cls-1" d="M600.02,424.86c-4.42,0-8-3.58-8-8v-68.4c-7.45,4.91-17.13,10.03-29.63,13.61-14.02,4.02-28.53,5.57-43.13,4.6-4.7-.31-8.79-3.19-10.68-7.5-1.89-4.32-1.22-9.29,1.75-12.95l39.08-48.31c2.78-3.44,7.82-3.97,11.25-1.19,3.44,2.78,3.97,7.82,1.19,11.25l-34.77,42.97c10.45.04,20.82-1.37,30.9-4.26,16.2-4.64,26.74-12.23,34.04-18.05v-67.65c0-5.4,3.29-10.05,8.38-11.85,5.09-1.8,10.57-.25,13.97,3.95l75.3,93.08c2.98,3.69,3.64,8.67,1.72,13.01-1.92,4.33-6.05,7.19-10.78,7.46-11.77.67-23.5-.41-34.87-3.19-14.61-3.57-27.65-9.52-37.71-15.58v69c0,4.42-3.58,8-8,8ZM608.02,328.61c8.86,6.68,23.96,15,41.51,19.29,7.63,1.86,15.44,2.84,23.31,2.92l-64.82-80.13v57.93Z"/></g></svg>