<?xml version="1.0" encoding="UTF-8"?><svg id="Layer_2" xmlns="http://www.w3.org/2000/svg" viewBox="0 0 1200 673.25"><defs><style>.cls-1{fill:#fff;}.cls-2{fill:#26a11e;}.cls-3{fill:#0a4547;}</style></defs><g id="Layer_1-2"><rect class="cls-1" x="263.38" y="-263.38" width="673.25" height="1200" transform="translate(936.62 -263.38) rotate(90)"/><path class="cls-3" d="M520.57,355.26h6.93v20.05c0,2.24.26,3.88.79,4.91.82,1.83,2.62,2.74,5.38,2.74s4.54-.91,5.36-2.74c.53-1.03.79-2.67.79-4.91v-20.05h6.93v20.06c0,3.47-.54,6.17-1.61,8.1-2,3.54-5.83,5.31-11.47,5.31s-9.48-1.77-11.5-5.31c-1.08-1.93-1.61-4.64-1.61-8.1v-20.06Z"/><path class="cls-3" d="M573.11,366.35c1.97,2.08,2.95,5.14,2.95,9.17,0,4.25-.96,7.49-2.89,9.72-1.92,2.23-4.4,3.34-7.43,3.34-1.93,0-3.54-.48-4.81-1.44-.7-.53-1.38-1.31-2.05-2.32v12.58h-6.24v-33.63h6.04v3.56c.68-1.05,1.41-1.87,2.18-2.48,1.41-1.08,3.09-1.62,5.04-1.62,2.84,0,5.24,1.04,7.21,3.12ZM568.27,370.89c-.86-1.43-2.25-2.15-4.17-2.15-2.31,0-3.9,1.09-4.76,3.26-.45,1.15-.67,2.61-.67,4.38,0,2.81.75,4.78,2.26,5.91.89.66,1.95,1,3.18,1,1.78,0,3.13-.68,4.06-2.04.93-1.36,1.4-3.17,1.4-5.42,0-1.86-.43-3.51-1.29-4.94Z"/><path class="cls-3" d="M580.45,355.37h6.2v17.61l7.96-9.1h7.85l-8.65,8.99,8.99,15.03h-7.68l-5.85-10.31-2.61,2.72v7.59h-6.2v-32.53Z"/><path class="cls-3" d="M621.46,364.25c1.68.75,3.07,1.94,4.17,3.57.99,1.43,1.63,3.1,1.92,4.99.17,1.11.24,2.71.21,4.79h-17.58c.1,2.42.94,4.12,2.52,5.09.96.61,2.12.91,3.48.91,1.44,0,2.61-.37,3.5-1.11.49-.4.92-.95,1.3-1.66h6.44c-.17,1.43-.95,2.89-2.34,4.36-2.16,2.35-5.19,3.52-9.08,3.52-3.21,0-6.05-.99-8.5-2.97-2.46-1.98-3.68-5.2-3.68-9.66,0-4.18,1.11-7.39,3.32-9.62,2.22-2.23,5.09-3.35,8.63-3.35,2.1,0,3.99.38,5.68,1.13ZM612.02,369.7c-.89.92-1.45,2.16-1.68,3.74h10.87c-.11-1.68-.67-2.95-1.68-3.81-1.01-.87-2.25-1.3-3.74-1.3-1.62,0-2.88.46-3.77,1.38Z"/><path class="cls-3" d="M646.68,364.25c1.68.75,3.07,1.94,4.17,3.57.99,1.43,1.63,3.1,1.92,4.99.17,1.11.24,2.71.21,4.79h-17.58c.1,2.42.94,4.12,2.52,5.09.96.61,2.12.91,3.48.91,1.44,0,2.61-.37,3.5-1.11.49-.4.92-.95,1.3-1.66h6.44c-.17,1.43-.95,2.89-2.34,4.36-2.16,2.35-5.19,3.52-9.08,3.52-3.21,0-6.05-.99-8.5-2.97-2.46-1.98-3.68-5.2-3.68-9.66,0-4.18,1.11-7.39,3.32-9.62,2.22-2.23,5.09-3.35,8.63-3.35,2.1,0,3.99.38,5.68,1.13ZM637.24,369.7c-.89.92-1.45,2.16-1.68,3.74h10.87c-.11-1.68-.67-2.95-1.68-3.81-1.01-.87-2.25-1.3-3.74-1.3-1.62,0-2.88.46-3.77,1.38Z"/><path class="cls-3" d="M676.47,366.35c1.97,2.08,2.95,5.14,2.95,9.17,0,4.25-.96,7.49-2.89,9.72-1.92,2.23-4.4,3.34-7.43,3.34-1.93,0-3.54-.48-4.81-1.44-.7-.53-1.38-1.31-2.05-2.32v12.58h-6.24v-33.63h6.04v3.56c.68-1.05,1.41-1.87,2.18-2.48,1.41-1.08,3.09-1.62,5.04-1.62,2.84,0,5.24,1.04,7.21,3.12ZM671.63,370.89c-.86-1.43-2.25-2.15-4.17-2.15-2.31,0-3.9,1.09-4.76,3.26-.45,1.15-.67,2.61-.67,4.38,0,2.81.75,4.78,2.26,5.91.89.66,1.95,1,3.18,1,1.78,0,3.13-.68,4.06-2.04.93-1.36,1.4-3.17,1.4-5.42,0-1.86-.43-3.51-1.29-4.94Z"/><path class="cls-3" d="M575.51,407.56c.51-.74,1.35-1.47,2.52-2.19l.36-.22c-.5-.56-.88-1.13-1.15-1.72-.27-.58-.41-1.19-.41-1.82,0-1.25.42-2.23,1.27-2.94.85-.7,1.95-1.06,3.3-1.06,1.24,0,2.26.36,3.06,1.08.81.72,1.21,1.64,1.21,2.77,0,1.01-.24,1.84-.73,2.47-.48.63-1.19,1.22-2.13,1.75l2.47,3c.28-.4.5-.84.66-1.32.15-.47.23-.98.24-1.5h2.95c-.05,1.05-.31,2.1-.76,3.17-.25.6-.65,1.26-1.21,1.99l3.12,3.73h-4.02l-1.2-1.46c-.58.54-1.12.94-1.63,1.2-.9.46-1.93.69-3.1.69-1.76,0-3.14-.51-4.13-1.54-.99-1.03-1.49-2.17-1.49-3.42,0-1.03.26-1.92.77-2.66ZM578.76,411.67c.47.47,1.07.71,1.81.71.55,0,1.08-.12,1.57-.37.49-.25.9-.53,1.2-.84l-3.22-3.92c-.84.55-1.4,1.04-1.67,1.46-.27.42-.41.88-.41,1.39,0,.57.24,1.09.71,1.56ZM580.22,402.46c.14.23.46.63.94,1.2.48-.33.83-.6,1.04-.83.4-.42.6-.88.6-1.37,0-.36-.12-.68-.36-.96-.24-.28-.61-.42-1.1-.42-.31,0-.59.08-.86.25-.4.24-.6.62-.6,1.15,0,.31.11.64.34.98Z"/><path class="cls-3" d="M600.38,399.52c1.38-1.42,3.15-2.12,5.28-2.12,2.86,0,4.95.95,6.28,2.85.73,1.07,1.12,2.13,1.18,3.21h-3.59c-.23-.82-.52-1.45-.88-1.87-.64-.75-1.59-1.12-2.84-1.12s-2.29.53-3.03,1.58c-.74,1.05-1.11,2.54-1.11,4.47s.39,3.37,1.17,4.33c.78.96,1.77,1.44,2.97,1.44s2.17-.41,2.82-1.24c.36-.44.65-1.11.89-1.99h3.57c-.31,1.87-1.09,3.4-2.36,4.57-1.27,1.17-2.89,1.76-4.86,1.76-2.45,0-4.37-.79-5.77-2.38-1.4-1.59-2.1-3.78-2.1-6.55,0-3,.8-5.31,2.39-6.94Z"/><path class="cls-3" d="M626.32,413.36c-1.07,1.32-2.7,1.99-4.89,1.99s-3.81-.66-4.89-1.99c-1.07-1.32-1.61-2.92-1.61-4.78s.54-3.42,1.61-4.77c1.07-1.34,2.7-2.02,4.89-2.02s3.81.67,4.89,2.02c1.07,1.34,1.61,2.93,1.61,4.77s-.54,3.46-1.61,4.78ZM623.66,411.52c.52-.69.78-1.67.78-2.95s-.26-2.25-.78-2.94c-.52-.69-1.27-1.03-2.24-1.03s-1.72.34-2.25,1.03c-.52.69-.79,1.67-.79,2.94s.26,2.26.79,2.95c.52.69,1.27,1.04,2.25,1.04s1.72-.35,2.24-1.04Z"/><path class="cls-2" d="M600.01,343.14c-2.14,0-3.87-1.73-3.87-3.87v-33.06c-3.6,2.37-8.28,4.85-14.32,6.58-6.78,1.94-13.79,2.69-20.84,2.22-2.27-.15-4.25-1.54-5.16-3.63-.91-2.09-.59-4.49.84-6.26l18.89-23.35c1.34-1.66,3.78-1.92,5.44-.57,1.66,1.34,1.92,3.78.57,5.44l-16.8,20.77c5.05.02,10.06-.66,14.93-2.06,7.83-2.24,12.92-5.91,16.45-8.72v-32.7c0-2.61,1.59-4.86,4.05-5.73,2.46-.87,5.11-.12,6.75,1.91l36.39,44.99c1.44,1.78,1.76,4.19.83,6.29-.93,2.09-2.92,3.48-5.21,3.61-5.69.32-11.36-.2-16.85-1.54-7.06-1.73-13.36-4.6-18.23-7.53v33.35c0,2.14-1.73,3.87-3.87,3.87ZM603.88,296.63c4.28,3.23,11.58,7.25,20.06,9.32,3.69.9,7.46,1.37,11.27,1.41l-31.33-38.73v28Z"/></g></svg>