<?xml version="1.0" encoding="UTF-8"?><svg id="Layer_2" xmlns="http://www.w3.org/2000/svg" viewBox="0 0 103.5 58.07"><defs><style>.cls-1{fill:#231f20;}.cls-2{fill:#fff;}</style></defs><g id="Layer_1-2"><rect class="cls-1" x="22.72" y="-22.72" width="58.07" height="103.5" transform="translate(80.78 -22.72) rotate(90)"/><path class="cls-2" d="M39.63,33.96h.83v.03l-.74,1.03h.74v.09h-.87v-.04l.73-1.03h-.69v-.08Z"/><path class="cls-2" d="M41.98,35.11v-.52h-.73v.52h-.09v-1.15h.09v.54h.73v-.54h.09v1.15h-.09Z"/><path class="cls-2" d="M43.78,35.11l-.13-.28h-.68l-.12.28h-.09l.51-1.15h.1l.51,1.15h-.09ZM43.62,34.75l-.31-.7-.31.7h.62Z"/><path class="cls-2" d="M44.55,35.11v-1.15h.09v1.15h-.09Z"/><path class="cls-2" d="M47.16,34.24c0-.18-.14-.21-.29-.21-.22,0-.32.1-.32.23,0,.18.19.23.33.23h.49v.07h-.1v.25c0,.12.03.23.14.23v.07c-.09.01-.17-.05-.19-.15-.08.14-.21.16-.34.16-.28,0-.42-.12-.42-.32,0-.14.12-.24.23-.28-.12-.04-.21-.14-.21-.26,0-.18.15-.3.41-.3.18,0,.37.05.37.28h-.08ZM47.18,34.56h-.31c-.23,0-.34.13-.34.25,0,.15.11.24.34.24.13,0,.32-.05.32-.24v-.25Z"/><path class="cls-2" d="M50.06,35.11l-.13-.28h-.68l-.12.28h-.09l.51-1.15h.1l.51,1.15h-.09ZM49.9,34.75l-.31-.7-.31.7h.62Z"/><path class="cls-2" d="M51.57,34.19c-.08-.13-.22-.15-.35-.16-.13,0-.35.05-.35.23,0,.15.16.18.35.22.22.04.45.08.45.33,0,.26-.26.32-.45.32-.18,0-.38-.07-.47-.25l.08-.04c.07.14.25.21.39.21s.36-.04.36-.24c0-.17-.19-.21-.38-.25-.21-.04-.42-.08-.42-.29,0-.24.25-.32.44-.32.16,0,.31.03.42.19l-.07.04Z"/><path class="cls-2" d="M53.15,34.19c-.08-.13-.22-.15-.35-.16-.13,0-.35.05-.35.23,0,.15.16.18.35.22.22.04.45.08.45.33,0,.26-.26.32-.45.32-.18,0-.38-.07-.47-.25l.08-.04c.07.14.25.21.39.21s.36-.04.36-.24c0-.17-.19-.21-.38-.25-.21-.04-.42-.08-.42-.29,0-.24.25-.32.44-.32.16,0,.31.03.42.19l-.07.04Z"/><path class="cls-2" d="M55.09,34.54c0,.3-.19.59-.58.59s-.58-.29-.58-.59.19-.59.58-.59.58.28.58.59ZM54.02,34.54c0,.26.17.51.49.51s.49-.25.49-.51-.16-.51-.49-.51-.49.24-.49.51Z"/><path class="cls-2" d="M56.79,34.95c-.11.11-.27.17-.42.17-.39,0-.59-.27-.59-.58,0-.31.2-.59.59-.59.15,0,.3.06.42.17l-.06.05c-.1-.1-.23-.15-.36-.15-.33,0-.51.24-.5.51,0,.27.17.5.5.5.13,0,.26-.05.36-.15l.06.06Z"/><path class="cls-2" d="M57.55,35.11v-1.15h.09v1.15h-.09Z"/><path class="cls-2" d="M59.34,35.11l-.13-.28h-.68l-.12.28h-.09l.51-1.15h.1l.51,1.15h-.09ZM59.18,34.75l-.31-.7-.31.7h.62Z"/><path class="cls-2" d="M60.27,34.04h-.41v-.08h.92v.08h-.41v1.07h-.09v-1.07Z"/><path class="cls-2" d="M61.57,34.49h.67v.08h-.67v.45h.72v.09h-.81v-1.15h.79v.08h-.7v.45Z"/><path class="cls-2" d="M63.81,34.19c-.08-.13-.22-.15-.35-.16-.13,0-.35.05-.35.23,0,.15.16.18.35.22.22.04.45.08.45.33,0,.26-.26.32-.45.32-.18,0-.38-.07-.47-.25l.08-.04c.07.14.25.21.39.21s.36-.04.36-.24c0-.17-.19-.21-.38-.25-.21-.04-.42-.08-.42-.29,0-.24.25-.32.44-.32.16,0,.31.03.42.19l-.07.04Z"/><polygon class="cls-2" points="55.14 22.94 48.06 30.02 48.06 30.31 48.36 30.31 55.44 23.23 55.44 22.94 55.14 22.94"/><polygon class="cls-2" points="48.06 22.94 48.06 24.79 48.08 24.79 48.48 24.39 48.48 23.35 52.32 23.35 52.32 22.94 48.06 22.94"/><polygon class="cls-2" points="55.02 28.86 55.02 29.9 51.18 29.9 51.18 30.31 55.44 30.31 55.44 28.46 55.42 28.46 55.02 28.86"/></g></svg>