<?xml version="1.0" encoding="UTF-8"?><svg id="Layer_2" xmlns="http://www.w3.org/2000/svg" viewBox="0 0 1200 673.25"><defs><style>.cls-1{fill:#fff;}.cls-2{fill:#3c857f;}.cls-3{opacity:.5;}</style></defs><g id="Layer_1-2"><rect class="cls-2" x="263.38" y="-263.38" width="673.25" height="1200" transform="translate(936.62 -263.38) rotate(90)"/><path class="cls-1" d="M628.37,252.35v25.03h26.67c-.26-9.03-2.63-17.53-6.64-25.03h-20.03ZM655.05,280.72h-26.67v25.03h20.03c4.01-7.5,6.38-16,6.64-25.03ZM548.26,252.35c-4.01,7.5-6.38,16-6.64,25.03h26.67v-25.03h-20.03ZM541.62,280.72c.26,9.03,2.63,17.53,6.64,25.03h20.03v-25.03h-26.67ZM625.03,309.09h-25.03v26.67c9.03-.26,17.53-2.63,25.03-6.64v-20.03ZM600,222.34v26.67h25.03v-20.03c-7.5-4.01-16-6.38-25.03-6.64ZM596.66,335.77v-26.67h-25.03v20.03c7.5,4.01,16,6.38,25.03,6.64ZM596.66,222.34c-9.03.26-17.53,2.63-25.03,6.64v20.03h25.03v-26.67Z"/><g class="cls-3"><rect class="cls-1" x="600" y="280.72" width="25.03" height="25.03"/><rect class="cls-1" x="571.63" y="252.35" width="25.03" height="25.03"/></g><path class="cls-1" d="M557.68,369.23c0,1.22-.23,2.25-.68,3.08-.45.83-1.06,1.51-1.83,2.02-.77.51-1.65.88-2.65,1.12-1,.23-2.04.35-3.12.35h-2.51v7.87h-5.04v-20.87h7.66c1.14,0,2.21.11,3.2.34.99.23,1.86.59,2.59,1.09.74.5,1.32,1.16,1.74,1.98.42.82.63,1.82.63,3.02ZM552.64,369.26c0-.49-.1-.9-.3-1.21-.2-.32-.46-.56-.8-.74-.33-.18-.71-.29-1.14-.35-.42-.06-.86-.09-1.31-.09h-2.21v4.92h2.12c.47,0,.92-.04,1.36-.12.43-.08.82-.21,1.16-.41.34-.2.61-.46.81-.78.2-.32.3-.73.3-1.22Z"/><path class="cls-1" d="M570.53,383.67v-20.87h14.03v4.24h-9.17v3.95h8.67v4.04h-8.67v4.33h9.7v4.3h-14.56Z"/><path class="cls-1" d="M607.16,367.11v16.56h-5.04v-16.56h-5.89v-4.3h16.83v4.3h-5.89Z"/><path class="cls-1" d="M634.1,367.11v16.56h-5.04v-16.56h-5.89v-4.3h16.83v4.3h-5.89Z"/><path class="cls-1" d="M652.1,383.67v-20.87h5.07v20.87h-5.07Z"/><path class="cls-1" d="M557.68,404.6c0,1.22-.23,2.25-.68,3.08s-1.06,1.51-1.83,2.02c-.77.51-1.65.88-2.65,1.12-1,.23-2.04.35-3.12.35h-2.51v7.87h-5.04v-20.87h7.66c1.14,0,2.21.11,3.2.34.99.23,1.86.59,2.59,1.09.74.5,1.32,1.16,1.74,1.98.42.82.63,1.82.63,3.02ZM552.64,404.63c0-.49-.1-.9-.3-1.21-.2-.32-.46-.56-.8-.74-.33-.18-.71-.29-1.14-.35s-.86-.09-1.31-.09h-2.21v4.92h2.12c.47,0,.92-.04,1.36-.12.43-.08.82-.21,1.16-.41.34-.2.61-.46.81-.78.2-.32.3-.73.3-1.22Z"/><path class="cls-1" d="M570.53,419.04v-20.87h14.03v4.24h-9.17v3.95h8.67v4.04h-8.67v4.33h9.7v4.3h-14.56Z"/><path class="cls-1" d="M607.16,402.48v16.56h-5.04v-16.56h-5.89v-4.3h16.83v4.3h-5.89Z"/><path class="cls-1" d="M634.1,402.48v16.56h-5.04v-16.56h-5.89v-4.3h16.83v4.3h-5.89Z"/><path class="cls-1" d="M652.1,419.04v-20.87h5.07v20.87h-5.07Z"/><path class="cls-1" d="M548.75,448.05h.02l4.83-11.95h2.24v14.44h-1.47v-12.54h-.04l-5.22,12.54h-.77l-5.22-12.54h-.04v12.54h-1.47v-14.44h2.24l4.89,11.95Z"/><path class="cls-1" d="M567.94,450.54h-1.47v-14.44h1.47v14.44Z"/><path class="cls-1" d="M580.03,450.54h-1.47v-14.44h4.24c.71,0,1.36.07,1.97.21.6.14,1.13.36,1.57.66.44.31.79.7,1.03,1.19.24.49.37,1.09.37,1.8,0,.53-.09,1.01-.29,1.45-.19.44-.45.81-.77,1.13-.33.32-.71.57-1.16.77-.45.19-.94.31-1.47.37l4.22,6.87h-1.79l-4-6.75h-2.45v6.75ZM580.03,442.53h2.55c1.18,0,2.09-.21,2.73-.64.64-.43.96-1.07.96-1.93,0-.48-.09-.88-.26-1.2-.18-.33-.42-.59-.73-.8-.31-.2-.69-.35-1.14-.45-.45-.1-.94-.14-1.49-.14h-2.61v5.16Z"/><path class="cls-1" d="M599.03,450.54h-1.47v-14.44h1.47v14.44Z"/><path class="cls-1" d="M616.65,438.43c-.31-.44-.71-.79-1.2-1.05-.49-.26-1.08-.4-1.77-.4-.35,0-.71.05-1.08.16-.37.11-.7.27-1,.5-.3.22-.54.51-.72.85-.18.34-.28.74-.28,1.2s.09.84.26,1.14c.18.3.41.55.7.77.29.21.62.38,1,.52.37.14.76.27,1.17.41.5.16,1.01.34,1.51.53.51.19.97.44,1.37.75.41.31.74.69,1,1.16.26.47.39,1.06.39,1.78s-.14,1.34-.41,1.86c-.27.52-.63.95-1.07,1.3-.44.34-.94.59-1.5.75-.56.16-1.13.24-1.7.24-.43,0-.87-.04-1.3-.13-.44-.09-.85-.22-1.24-.4s-.76-.4-1.1-.67c-.34-.27-.64-.58-.9-.94l1.26-.94c.31.52.75.95,1.32,1.3.56.35,1.23.52,1.99.52.37,0,.74-.06,1.12-.17.38-.12.72-.29,1.03-.53.31-.24.56-.53.75-.88.2-.35.3-.75.3-1.21,0-.5-.1-.92-.3-1.25-.2-.33-.46-.61-.79-.84-.33-.22-.7-.41-1.12-.56-.42-.15-.86-.3-1.32-.45-.48-.15-.94-.32-1.41-.51-.46-.19-.88-.44-1.24-.74-.37-.31-.66-.68-.89-1.13-.22-.45-.34-1-.34-1.65,0-.69.14-1.29.42-1.8.28-.5.64-.92,1.09-1.24.45-.33.94-.56,1.49-.71.54-.15,1.08-.22,1.61-.22.98,0,1.81.17,2.51.52.69.35,1.22.76,1.57,1.23l-1.16.94Z"/><path class="cls-1" d="M634.93,438.43c-.31-.44-.71-.79-1.2-1.05-.49-.26-1.08-.4-1.77-.4-.35,0-.71.05-1.08.16-.37.11-.7.27-1,.5-.3.22-.54.51-.72.85-.18.34-.28.74-.28,1.2s.09.84.26,1.14c.18.3.41.55.7.77.29.21.62.38,1,.52.37.14.76.27,1.17.41.5.16,1.01.34,1.51.53.51.19.97.44,1.37.75.41.31.74.69,1,1.16.26.47.39,1.06.39,1.78s-.14,1.34-.41,1.86c-.27.52-.63.95-1.07,1.3-.44.34-.94.59-1.5.75-.56.16-1.13.24-1.7.24-.43,0-.87-.04-1.3-.13-.44-.09-.85-.22-1.24-.4s-.76-.4-1.1-.67c-.34-.27-.64-.58-.9-.94l1.26-.94c.31.52.75.95,1.32,1.3.56.35,1.23.52,1.99.52.37,0,.74-.06,1.12-.17.38-.12.72-.29,1.03-.53.31-.24.56-.53.75-.88.2-.35.3-.75.3-1.21,0-.5-.1-.92-.3-1.25-.2-.33-.46-.61-.79-.84-.33-.22-.7-.41-1.12-.56-.42-.15-.86-.3-1.32-.45-.48-.15-.94-.32-1.41-.51-.46-.19-.88-.44-1.24-.74-.37-.31-.66-.68-.89-1.13-.22-.45-.34-1-.34-1.65,0-.69.14-1.29.42-1.8.28-.5.64-.92,1.09-1.24s.94-.56,1.49-.71c.54-.15,1.08-.22,1.61-.22.98,0,1.81.17,2.51.52.69.35,1.22.76,1.57,1.23l-1.16.94Z"/><path class="cls-1" d="M646.13,450.54h-1.61l6.24-14.44h1.43l6.2,14.44h-1.63l-1.59-3.79h-7.46l-1.57,3.79ZM648.25,445.4h6.36l-3.18-7.67-3.18,7.67Z"/></g></svg>