<?xml version="1.0" encoding="UTF-8"?><svg id="Layer_2" xmlns="http://www.w3.org/2000/svg" viewBox="0 0 1200 673.25"><defs><style>.cls-1{fill:#3c857f;}.cls-2{opacity:.5;}</style></defs><g id="Layer_1-2"><rect x="263.38" y="-263.38" width="673.25" height="1200" transform="translate(936.62 -263.38) rotate(90)"/><path class="cls-1" d="M652.35,290.09v43.62h46.48c-.45-15.74-4.59-30.56-11.57-43.62h-34.91ZM698.83,339.53h-46.48v43.62h34.91c6.98-13.07,11.12-27.88,11.57-43.62ZM512.74,290.09c-6.98,13.07-11.12,27.88-11.57,43.62h46.48v-43.62h-34.91ZM501.17,339.53c.45,15.74,4.59,30.56,11.57,43.62h34.91v-43.62h-46.48ZM646.53,388.97h-43.62v46.48c15.74-.45,30.56-4.59,43.62-11.57v-34.91ZM602.91,237.79v46.48h43.62v-34.91c-13.07-6.98-27.88-11.12-43.62-11.57ZM597.09,435.46v-46.48h-43.62v34.91c13.07,6.98,27.88,11.12,43.62,11.57ZM597.09,237.79c-15.74.45-30.56,4.59-43.62,11.57v34.91h43.62v-46.48Z"/><g class="cls-2"><rect class="cls-1" x="602.91" y="339.53" width="43.62" height="43.62"/><rect class="cls-1" x="553.47" y="290.09" width="43.62" height="43.62"/></g></g></svg>