<?xml version="1.0" encoding="UTF-8"?><svg id="Layer_2" xmlns="http://www.w3.org/2000/svg" viewBox="0 0 95.76 95.76"><g id="layer-1"><path d="M71.85,33.87c0,5.5-4.46,9.96-9.96,9.96s-9.96-4.46-9.96-9.96,4.46-9.96,9.96-9.96,9.96,4.46,9.96,9.96ZM71.82,61.23c-.22,6.33-1.8,12.54-4.63,18.21-5.32,10.07-15.83,16.32-27.22,16.2h-3.98v-21.91c-.04-7.69-6.26-13.91-13.95-13.95H.13v-3.98C0,44.39,6.26,33.89,16.32,28.57c5.66-2.83,11.87-4.42,18.21-4.63C46.3,8.73,64.47-.11,83.69,0h0c6.62-.04,12.02,5.29,12.06,11.91,0,.01,0,.03,0,.04.14,19.26-8.71,37.47-23.93,49.27ZM8.43,51.8h9.01c2.96-6.59,6.44-12.94,10.4-18.98-2.75.64-5.42,1.6-7.94,2.87-6.16,3.25-10.41,9.23-11.47,16.11ZM62.93,67.92c-6.04,3.96-12.39,7.44-18.98,10.4v9.01c6.88-1.06,12.86-5.31,16.11-11.47,1.27-2.52,2.23-5.19,2.87-7.94h0ZM87.79,11.84c-.06-2.16-1.83-3.87-3.98-3.87-20.56.59-34.47,8.46-47.89,27.18-3.74,5.39-7.04,11.08-9.85,17.02,8.91,1.66,15.87,8.63,17.53,17.53,5.93-2.81,11.63-6.1,17.02-9.85,18.7-13.44,26.58-27.34,27.17-48.01ZM24.52,71.24c4.63,4.68,4.63,12.22,0,16.9-3.61,3.61-14.43,5.84-18.92,6.63l-5.6.98.98-5.6c.8-4.49,3.02-15.3,6.63-18.92,4.73-4.51,12.18-4.51,16.91,0ZM20.05,79.69c0-1.06-.42-2.07-1.17-2.82-1.56-1.56-4.08-1.56-5.63,0-1.52,2.74-2.59,5.71-3.16,8.79,3.08-.58,6.05-1.64,8.8-3.16.75-.74,1.17-1.76,1.16-2.81Z"/></g></svg>