<?xml version="1.0" encoding="UTF-8"?><svg id="Layer_2" xmlns="http://www.w3.org/2000/svg" viewBox="0 0 21 19.25"><g id="Layer_1-2"><path d="M18.38,0H2.63C1.18,0,0,1.18,0,2.63v16.63h21V2.63c0-1.45-1.18-2.63-2.63-2.63ZM19.25,17.5H1.75V2.63c0-.48.39-.88.88-.88h15.75c.48,0,.88.39.88.88v14.88ZM8.75,4.38h7.88v1.75h-7.88v-1.75ZM7,5.25c0,.72-.59,1.31-1.31,1.31s-1.31-.59-1.31-1.31.59-1.31,1.31-1.31,1.31.59,1.31,1.31ZM8.75,8.75h7.88v1.75h-7.88v-1.75ZM7,9.63c0,.72-.59,1.31-1.31,1.31s-1.31-.59-1.31-1.31.59-1.31,1.31-1.31,1.31.59,1.31,1.31ZM8.75,13.13h7.88v1.75h-7.88v-1.75ZM7,14c0,.72-.59,1.31-1.31,1.31s-1.31-.59-1.31-1.31.59-1.31,1.31-1.31,1.31.59,1.31,1.31Z"/></g></svg>