<?xml version="1.0" encoding="UTF-8"?><svg id="Layer_2" xmlns="http://www.w3.org/2000/svg" viewBox="0 0 95.63 83.69"><g id="layer-1"><path d="M91.65,51.8h-2.66c-1,0-1.98.08-2.97.23l-28.07-21.05,6.73-6.44c1.59-1.52,1.65-4.05.12-5.63-1.53-1.59-4.05-1.64-5.63-.12l-16.63,15.92c-.83.83-1.96,1.26-3.14,1.16-1.19-.1-2.23-.7-2.94-1.69-1.09-1.51-.76-3.88.67-5.32l18.74-17.65c3.55-3.34,9.1-4.15,13.44-1.97l9.23,4.61c2.75,1.37,5.83,2.1,8.91,2.1h4.21c2.2,0,3.98-1.78,3.98-3.98s-1.78-3.98-3.98-3.98h-4.21c-1.84,0-3.7-.43-5.35-1.26l-9.22-4.61c-7.27-3.64-16.55-2.29-22.48,3.3l-2.46,2.32-2.79-2.54c-3.66-3.34-8.4-5.17-13.51-5.17-3.07,0-6.14.73-8.87,2.09l-9.22,4.61c-1.65.82-3.51,1.26-5.35,1.26H3.99C1.79,7.96,0,9.75,0,11.95s1.78,3.98,3.98,3.98h4.21c3.07,0,6.16-.73,8.91-2.1l9.23-4.61c4.07-2.05,9.79-1.49,13.44,1.84l2.34,2.13-10.54,9.93c-4.28,4.27-4.96,11.03-1.59,15.69,2.07,2.88,6.19,5.02,9.74,5.02,3.16,0,6.19-1.24,8.38-3.44l4.01-3.84,25.29,18.96c-.12.09-24.7,18.51-24.7,18.51-2.88,2.24-6.9,2.24-9.84-.04l-24.27-18.2c-3.42-2.57-7.67-3.98-11.95-3.98h-2.66c-2.2,0-3.98,1.78-3.98,3.98s1.78,3.98,3.98,3.98h2.66c2.57,0,5.12.85,7.17,2.39l24.21,18.16c2.89,2.25,6.35,3.37,9.81,3.37s6.87-1.11,9.71-3.33l24.28-18.2c2.05-1.54,4.6-2.39,7.17-2.39h2.66c2.2,0,3.98-1.78,3.98-3.98s-1.78-3.98-3.98-3.98h0Z"/></g></svg>