<?xml version="1.0" encoding="UTF-8"?><svg id="Layer_2" xmlns="http://www.w3.org/2000/svg" viewBox="0 0 95.63 95.63"><g id="layer-1"><path d="M27.89,0h-11.95C7.14,0,0,7.14,0,15.94v11.95c0,8.8,7.14,15.94,15.94,15.94h11.95c8.8,0,15.94-7.14,15.94-15.94v-11.95c0-8.8-7.14-15.94-15.94-15.94ZM35.86,27.89c0,4.4-3.57,7.97-7.97,7.97h-11.95c-4.4,0-7.97-3.57-7.97-7.97v-11.95c0-4.4,3.57-7.97,7.97-7.97h11.95c4.4,0,7.97,3.57,7.97,7.97v11.95Z"/><path d="M27.89,51.8h-11.95c-8.8,0-15.94,7.14-15.94,15.94v11.95c0,8.8,7.14,15.94,15.94,15.94h11.95c8.8,0,15.94-7.14,15.94-15.94v-11.95c0-8.8-7.14-15.94-15.94-15.94ZM35.86,79.69c0,4.4-3.57,7.97-7.97,7.97h-11.95c-4.4,0-7.97-3.57-7.97-7.97v-11.95c0-4.4,3.57-7.97,7.97-7.97h11.95c4.4,0,7.97,3.57,7.97,7.97v11.95Z"/><path d="M79.69,51.8h-11.95c-8.8,0-15.94,7.14-15.94,15.94v11.95c0,8.8,7.14,15.94,15.94,15.94h11.95c8.8,0,15.94-7.14,15.94-15.94v-11.95c0-8.8-7.14-15.94-15.94-15.94ZM87.66,79.69c0,4.4-3.57,7.97-7.97,7.97h-11.95c-4.4,0-7.97-3.57-7.97-7.97v-11.95c0-4.4,3.57-7.97,7.97-7.97h11.95c4.4,0,7.97,3.57,7.97,7.97v11.95Z"/><path d="M55.78,27.89h11.95v11.95c0,2.2,1.78,3.98,3.98,3.98s3.98-1.78,3.98-3.98v-11.95h11.95c2.2,0,3.98-1.78,3.98-3.98s-1.78-3.98-3.98-3.98h-11.95V7.97c0-2.2-1.78-3.98-3.98-3.98s-3.98,1.78-3.98,3.98v11.95h-11.95c-2.2,0-3.98,1.78-3.98,3.98s1.78,3.98,3.98,3.98Z"/></g></svg>