<?xml version="1.0" encoding="UTF-8"?><svg id="Layer_2" xmlns="http://www.w3.org/2000/svg" viewBox="0 0 12.45 14.78"><defs><style>.cls-1{fill:#666;}</style></defs><g id="Layer_1-2"><path class="cls-1" d="M3.97,5.96s.05-.01.07-.04c.12-.18.13-.29.32-.45.47-.41,1.06-.36,1.58-.07.2-.82,1.11-1.16,1.84-.75.05.03.21.18.25.15.31-.92,1.57-1.02,2.07-.21.58,1.08,1.3,2.14,1.87,3.22.99,1.89.49,4.08-1.3,5.26-.63.42-1.59.98-2.27,1.31-1.25.6-2.46.5-3.67-.13-1.46-.76-2.88-1.72-4.33-2.52-.79-.68.08-1.65.8-1.91,1-.35,1.72.3,2.53.75.02.01.05.06.08.01L.13,4.24c-.64-1.43,1.27-2.59,2.22-1.12.55.85,1.02,1.82,1.56,2.7.02.04.05.13.05.14Z"/><path class="cls-1" d="M4.44,1.76h.52s.13.07.15.09c.34.25.19.76-.24.8-.37.03-1.19.04-1.55,0-.18-.02-.35-.13-.41-.31s-.04-1.34-.02-1.59c.03-.38.36-.68.71-.44.05.03.21.22.21.27v.46c2.01-1.59,4.99-1.35,6.68.59.22.25.51.61.16.91-.47.41-.86-.35-1.16-.63-1.38-1.27-3.62-1.37-5.06-.16Z"/></g></svg>